<mxfile host="app.diagrams.net" modified="2023-09-13T07:32:09.446Z" agent="Mozilla/5.0 (Windows NT 10.0; Win64; x64) AppleWebKit/537.36 (KHTML, like Gecko) Chrome/109.0.0.0 Safari/537.36" etag="BQuB60YTX-r8xu0KmKAK" version="21.7.4" type="google">
  <diagram name="Page-1" id="2hT9Kn81X1C6-k3tBAfC">
    <mxGraphModel grid="1" page="1" gridSize="10" guides="1" tooltips="1" connect="1" arrows="1" fold="1" pageScale="1" pageWidth="844" pageHeight="600" backgroundImage="{&quot;src&quot;:&quot;data:image/png;base64,iVBORw0KGgoAAAANSUhEUgAAA0oAAAJTCAYAAAA2dOYKAAAACXBIWXMAAAsTAAALEwEAmpwYAAEt/UlEQVR4nOz9d3fj2LLtC054Q09RNl1lVW1z732vu7//x+jX5+yzd7l08qInvOs/FrAEQpTLVKakzPkbo0ZVUSQIggAYc0XEDKUoigKEEEIIIYQQQiTqY+8AIYQQQgghhDw1KJQIIYQQQgghpAGFEiGEEEIIIYQ0oFAihBBCCCGEkAYUSoQQQgghhBDSgEKJEEIIIYQQQhpQKBFCCCGEEEJIAwolQgghhBBCCGlAoUQIIYQQQgghDfTH3gHyuBRF8di7QAghhBDyZGGs9P2hqnfLFTGjRAghhBBCCCENmFH6wVEU5VHel6szhBBCCCHkKcOMEiGEEEIIIYQ0oFAihBBCCCGEkAYUSoQQQgghhBDSgEKJEEIIIYQQQhpQKBFCCCGEEEJIAwolQgghhBBCCGlAoUQIIYQQQgghDSiUCCGEEEIIIaQBhRIhhBBCCCGENKBQIoQQQgghhJAGFEqEEEIIIYQQ0oBCiRBCCCGEEEIaUCgRQgghhBBCSAP9sXeA/JgoivLN37Moim/+noQQQgh53jxGzAIwbnkKMKNECCGEEEIIIQ0olAghhBBCCCGkAYUSIYQQQgghhDSgUCKEEEIIIYSQBhRKhBBCCCGEENKAQokQQgghhBBCGlAoEUIIIYQQQkgDCiVCCCGEEEIIaUChRAghhBBCCCENKJQIIYQQQgghpAGFEiGEEEIIIYQ0oFAihBBCCCGEkAYUSoQQQgghhBDSgEKJEEIIIYQQQhpQKBFCCCGEEEJIAwolQgghhBBCCGlAoUQIIYQQQgghDSiUCCGEEEIIIaQBhRIhhBBCCCGENKBQIoQQQgghhJAGFEqEEEIIIYQQ0oBCiRBCCCGEEEIaUCgRQgghhBBCSAMKJUIIIYQQQghpQKFECCGEEEIIIQ0olAghhBBCCCGkAYUSIYQQQgghhDSgUCKEEEIIIYSQBvpj7wAhhBBCCCFkHUVRvun7FUXxTd/vOUChRH4YvvUNB+BNhxBCCCHPA0VRGLc0YOkdIYQQQgghhDSgUCKEEEIIIYSQBhRKhBBCCCGEENKAQokQQgghhBBCGlAoEUIIIYQQQkgDCiVCCCGEEEIIaUChRAghhBBCCCENKJQIIYQQQgghpAGFEiGEEEIIIYQ0oFAihBBCCCGEkAYUSoQQQgghhBDSgEKJEEIIIYQQQhpQKBFCCCGEEEJIAwolQgghhBBCCGlAoUQIIYQQQgghDSiUCCGEEEIIIaQBhRIhhBBCCCGENKBQIoQQQgghhJAGFEqEEEIIIYQQ0oBCiRBCCCGEEEIaUCgRQgghhBBCSAMKJUIIIYQQQghpQKFECCGEEEIIIQ0olAghhBBCCCGkAYUSIYQQQgghhDSgUCKEEEIIIYSQBhRKhBBCCCGEENKAQokQQgghhBBCGuiPvQOEfM8oivIo71sUxaO8LyGEEEKeL48RtzzlmIUZJUIIIYQQQghpQKFECCGEEEIIIQ0olAghhBBCCCGkAYUSIYQQQgghhDSgUCKEEEIIIYSQBhRKhBBCCCGEENKAQokQQgghhBBCGlAoEUIIIYQQQkgDCiVCCCGEEEIIaUChRAghhBBCCCENKJQIIYQQQgghpAGFEiGEEEIIIYQ0oFAihBBCCCGEkAYUSoQQQgghhBDSgEKJEEIIIYQQQhpQKBFCCCGEEEJIAwolQgghhBBCCGlAoUQIIYQQQgghDSiUCCGEEEIIIaQBhRIhhBBCCCGENKBQIoQQQgghhJAGFEqEEEIIIYQQ0oBCiRBCCCGEEEIaUCgRQgghhBBCSAMKJUIIIYQQQghpQKFECCGEEEIIIQ0olAghhBBCCCGkAYUSIYQQQgghhDTQH3sHCCEPj6Ioj70LaxRF8di7QAghhJAnyFOLWeowo0QIIYQQQgghDSiUCCGEEEIIIaQBhRIhhBBCCCGENKBQIoQQQgghhJAGFEqEEEIIIYQQ0oBCiRBCCCGEEEIaUCgRQgghhBBCSAPOUSKEPAi3zUp6arOUnvLcBkIIIYQ8PswoEUIIIYQQQkgDCiVCCCGEEEIIaUChRAghhBBCCCENKJQIIYQQQgghpAGFEiHkQbnOJIHmCYQQQgh5TtD1jny3VC5rDNC/LZvc7a5zvKu+m6fmiEcIIYQQQqFEnhW3BdR1UVR/LsXSw3CT4FEUBUVRoMhzQFGgqqr4/6IAyn8rigKUz61ed5/3IYQQQgj5VlAoke+WKnCnSPr6VMLmOoEjHy9F0k2ZJIokQgghhDwFKJTId0s9ICdfD0VRkOc5UBRCCKnqFSFUzyTV/1Zlm8DviRBCCCFPDAolQsjD0Cinq7J5N5k7NP92UzaJmSZCCCGEfEsolMh3QVVml+c5ijxHUeSyV0bT9LUsB3lYmoKomSna1Dd2H2c8CiRCCCGEPAYUSuTZUzcGyNIEs9MjLC5OkMYRTKeFVn+I7tYuLLf1yHv6fdEsr6v/W1XF5IE8yxB6S3izCUJviaLIoekGDMuGabswbAe6aUHTdKiadqf3oVMeIYQQQr4FFErkWXFTkJxnGSJ/hYuPf+LwP/8P4tBHqzfEYP8VijxHf/cFTNv51rv83dL8Djb9f+gtMTs9xMWnv7AcnwEADNuBabtwewM4nR7sVge6acGwbGi6Ad0woaiXI95UVWMPEyGEEEK+ORRK5N40A+LHKGnbVMIVhz4WF6dYjE/hzSco8hxZkiCJQqRxBG8+gd3qQFFUGZibjgvdMEXZXpYiS1PohgnDdmRW5HP2q+J7yoasWYBXpXXApagpS+2q45bGESbHH3D0239hcXGKyF9BURSomi6O8bnIJpllVkk3LeiGKTJMugEAsFsdtPpbaPWH0A1T7ssm6/e72MFvOm+azoh0SiSEEEIIQKFE7okMkvE0ZhPV9yFYLTA7PYQ3G4v+JABZmmA1vUAc+liOz2C3u1AUBabtwnLbcHsDmLaLPEuRJjHyLIVuWmj1hnA6PeimBVUTl8ldhVMzYN90zJ7SMfwsigJ5ngEA1A19SHHgY35+jNO//oPTv/6DPEvXXh4BwPzy/1VNg6rpMqOkGUIotfpb6O++wOjlW3SG29BNa+29rhy/moNedezvSv35z/77IYQQQsgXQ6FEbuXKjJzGTJzHoBpmWieNI/iLGSLfu/L8OPCRZxn8xQyKokDTDWiGAdN2oRlmmU1KUOQ5dNOC5bbRGW7D7Q3Q3dqF2xtAVc0r2wXWg+qmk1teCrbvyQK7En6VgCzyHFBV2WOUpSlmZ0c4+u3/h/HhuysiaRN5liHPMmRpgiQKoCiqFFz+fIo48LH9+hcM9l7CtJ2NjnlXzCRu+QzVa+rbum3GEyGEEEJ+HCiUyI2siaTmavuj7ZWgHiinSQxvNoE3GyOJgvXnqSqKPEcaR0jj6G7bVlW4nT7agxF6OwfojnbRGW7DcttllklbOyZNa+z6PhY197fvJVOxJlQURR6HyPewGJ/i+Pf/xulf/0Hkry5fc01Grshz+R0VeQ6xJZGtCr0lQm+JJAoRhz7i0EdnuA271RHleeV+qJouM373LaNrCqy6aKJYIoQQQn5cKJTIs2KT0MjzHJG/QrCcIVgtkGciyF6zBC8D8Tu/T54jWC2QxCFWszHOP/6B3mgPw4PX6O0coN3fKgPrHKqqXVuWt8k2+7lnLRRFQYHLfa8ySXmeYzE+xdFv/4WLj39eEaw3Hf+6WNpE6C1x/uEPeLMx2oMR2oMRWr0hTKcFp9OF6bSgmtbaPgJXj29TrFbPy/McWZrIzJ+m6VA07Vl/T4QQQgj5MpSCEQC5hSulTLUm/m+dGdkklFazsXC6+/f/g8nxR1nqJQJ4BcDl/t8mlmTQX4qtOobtoL9zgOH+a3RHu/JxRVWlAYGmGyJzUr5f5fCm6brc/7pYem6X33XZl9BbYjW9kJkkfzH9vO3XBKfs72p8Z4Zlw+n00eoPYTktON0+nE4PTrsHTddhOi1YbguabmzMKG0SSlmaIo0jFEUBTRdzt1RNf/ailhBCCCFXuWv8yowSuZVmUF8PFx/TIawK1pfjM5z+9R/Mz48bewdUIqkKtjeVf23626bsRpbEmJ0dIfSWGB++K4WiEIuaYcKwbOimCVXTkaUJVFVDezDCYO8lWv0tEYBfIzSeA02RV+17EkeYnx3j7P1vOP/wx5VM0r3eo8wsrZW/NZ6TpQm82RjBag5V1WBYNux2V5bj9XeFmG31t+S28jy/vQRPVaGWZXzlB5bvXf/entN3RgghhJDPh0KJ3JmnECDWswGiPG6O2ekRZmdHSKJw43PvU3J3HYqqloYDAZIwwGotm6ZA03WZUUK5b4qqwu324S9m2H79M3o7BzBK17bvITuR5zmC5QyT4484/fPfwnFwPvni7VbmENedbyLbJ4wfACDyV/AXU9E7pmqIQx+absB0XNitztprr+sTk8JPUVAU4nwRVXiqKNv8Dr4vQgghhNwPCiVybx5dMJVBa5YmWFycYjW9kEHz2tM2CKTb+mSuC4c3bksGzwXSJN64D+FqgdBbIs9SaLqB7mgPmq5L176bjuVTC86bJgdx4GF8+L4sefxwJ3e7u3LTd3EdSRRCURSsphdYXJyis7VzRSgBV89fabZRfidFntfMN3IghxRRhBBCCPlxoFAiz5Y4DLCcnGM1vUCePlyQfhc2CqeNz8ywHJ8BAFRNR1EU6G3vr5XhPUeKPMdqOsb48B3m58d3dhP8WlQ9ZQWAYDnH+Og9DNtBURRo9YbQS6OHqgRv07FXVQ15nqFAlWGquehd42pICCGEkO8XCiXyrKj3rCRRgHC1+KKemG/FcnwGTTegahp0w5Q9S8+NKguWJjFW03MsJ+cPmkn6HJr9ZFmaYDk+E8InTbH3yz/R3zkAsDlLt16Op8rEkVKzG7/OEIIQQggh3y/PL1IjPzTSCa0okMYRkihEmsRPNnCtB/Gr6QVO3/1HOOQZBlq94bMyB6hbaUf+CqvpGP58ijSJH3nP1t0Kq5lZq+kFDMvGYP/V2nOv61EqNjzWfB4hhBBCfhwolMizoy6WAFwOfX2CKIoCRdOQZxnSOMLs9BCm7cLp9GDariwJey4oioIkCrGaXiBYzpBEwYOYZXwNkiiEv5ghDjz5mKqqyPN8o0DdZAXOTBIhhBDy47J5SiYhT5gqoNUNs2bp/TQD2ErQVRmPonSKW03OEXrLG197n0xG07L7pm1c16NzV+LQhz+frg33fUyKUvgURbFm8Z5nKbI0QZYmGwVO/bHmMdk0KJgiiRBCCPmxoFAizxJFUcphrg40w3zs3bmWIs+vzGmKfA/z8xN4s8m12Zj7BubXBfNNMfA5224SLOdYjE8ReavP3sZDUz/OdbIkRrhaIvK9jVmi246DtJinWCKEEEJ+OFh6R54V9WBXVTWYtgvTdpDG0ZPIblxHfehtnqUIvQXi0EeeZzLbtOm5dbe1KyWH6y+6/O/GgOBmtqQu3G4TT83X5nmO0FvCm02epIlGUyzFYYBgNUfoLWBY9ka3wboYqmiW4BFCCCHkx4NCiTwr6r0lqqbDdFowbRf+Yva4O3YPsjSBv5hhcvQBhmWjPRhB1XTohgnNMKQ73qbA/dqSuQ0mBADkTCBgswBb38TVQbj1410UhTBxmFzAm42RJvEVx7mnRp6l8OdTLC5OYbltOO0uAPFZ85tmalEgEUIIIT88FErk2VEF76qmiSzBEy69q1OJijzLEAceLj79hSQK0eoP4XR6sNw22v0ttIfbN/YR3bW/SFEUFDWnusrGW9X0jaLotqxVlibw51P4iyni0EeR52JbmvKks3lx6MObjdEd7UqhdJNIIoQQQggBKJTIM0bVNLjdPtxuH7NT49GHnt5Ekeei1K0mlrzZGHHoY35+DLvVgem46Ay3Mdh7hVZfDElVVQ2qpkEzTKjq1ZbCvOzNyfMMeZqiKHIoigrNMKBqunzN+pygq4Kovu1N7m8A4M0mOHv/O+bnx09aGNVRVBXBaoHJ0QeZfbTbXaiqyp4jQgghhNwIhRJ5tqiqBqfTg9sdwLBsRP7TMReoqAwcKrOBSixVZEmMIIkRLOdQFAXL8RlW0wv0tvdht7uw3DY03YDT6cJ0WjBKO/EsTZFEoXB1S2LEYYAkCpClSfn8Hpx2D5bbAlAJIXG518v4bhMK1XPTJMb8/BgXn/6EP5/KvxfFZhOFp0DVg5XGEZaTcxi2A8ttYfvVL7Dc1p0+PyGEEEJ+XCiUyLNFUVWYTgudrR10tnYQBR7SOHpSgXtzXyqxVD3eDNNX0ws5/0c3LZi2C8OyYbltWG4LltuWs4yiwEOepkgTMXg3iULkaQpV1+F2+9h+9Qu2Xv4EvSxNrGeRrhg8FAXSUrBlSQzLbcvMS+R7mBx/wOlf/8FyfIYsTa79fE8PBUWeIfJXmJ58gqYbUBQVWy9+guW25FwlQgghhJAmFErkWVIP9t1uH53hNlbTC3hJ/CQnKjUzS9f9DQCSSGSH8kw44mm6Ad20oJsWLKcFRVWRxhHiQLjmZWkiB9pWWG4bAGC3u2gPRtD0y0t9kxteNUT24tNfiPwVOsMd9Hb2Ybc6mJ8d4/j3/8bk+APSJP5KR+jrUQnTcLXA+PCdFKvD/dewW+3H3j1CCCGEPFEolMizR9MNmLYLTTc2llLJYa9117cnTL3/J88y5FmGJAqhapoo0VNV5Gm6ltlpEvkrjA/fw3RaKIoc3dEe1LIUbdMxCpZznH/4A+cf/kDoLTE/O8bk+AMMy0GwnGN+doTIXz2L41dR5PmVSXGht8Tk+AMUVYWqath68UZkmaos323ugoQQQgj5YaBQIs8eRVVhtdoi26KoKLApmFdwtdDt23GTwLir+KhE011ZTS9w8uf/yO23+lswTEtktYpCZrLyLMX05BNO/vo3FucnyNIEq+kFlKP3pWBQnnQv0k1sKn0MlnOMD9+hM9xGeziC3epA1zR5dlAkEUIIIQSgUCLPjMqtrB7M6qaFVn8LTqcHVdOkDTZQzyY9z0D/c6gEUBpHWE3OZfZp/5f/hf7ui7JPKQdyUXIXLGeYnR1hNb240n9U1Lb51Gcm3YeiKJCl6ZrwrI4bh80SQgghBKBQIs+Q5oq/bpho97cw2H+F1fQC8/NjZKVVNoBnY2X9kCiKggJCCInjkUBRFGRpKvqVFAVZkiD0FliOzzE7PUQSBgAgh93WRZEUD4/xYb4CWjlLChuG+hJCCCGEABRK5DtAURTopoX+zgGSMICiqpifHyMO/O8msL8PojdnvTkn9JY4+fPfCL0lWv0taLqByF+JAbLLmex9qlAUBUpNMH2PYrM+W4oQQgghpAmFEvkuUBQF7eE21DJbUhQFFhcniAP/sXftUaic3ar/TuOoPB4e3N4FVE1HHHiIfA9JFMhyxrp9+A/BBpt0QgghhBCAQok8M+rW1vXHiqKAqqpw2j0M918hDjzEgS+F0vfUX3NX1krnquGrSYzl5Fz+Pc9En07TorzZm7Rpm88dVdOuCMIqgyZc8VQKJ0IIIeQHhkKJfFdoug7DdqDphjRyIJfUZy3V2VSu972jKMrGc+SHyaYRQggh5EYolMizYlMQ23wsXC3hzSdrZXeVuQFwdcDrj0Ddwe6m59zlse+GDeeSWs+eMZtECCGE/ND8WEvI5Lulbukcegt4swni8Ob+JOUHy6CQS/I8Qxz4SKKw9lhOcUQIIYQQCTNK5LuiKAoxmDX//lzayMNRFAXSOEIax1IcVTOkNE0YgrBHiRBCCPmx4ZI6+a5QFAWt3hDD/ddwuwP5eGVvXZkaVBmoplkB+TFQVQ2m48KwbABAmsSI/BWC5Ryht5Siif1KhBBCyI8LM0rku0JRFHRHuzITkGcpIn9VDlwte5OKAt/P6FTyOSiqCsttw3RcFEWOLEmQJQnyLIWiKDAK+7F3kRBCCCGPDIUS+a4oigK6aaE72gVQQDdMrKYXWE7OhWV4GAAovssBquTu5FkKlGWaWZJA1TRYbhtAAUVRoWoPe2us99ARQggh5HlAoUSeNJvmJt3luabtYLj/Gna7C286xvz8GP5ihsXFCfzFDHHoX+vo9r3ODSICVdNht7sw3RY0XRcDdlUVltvaOHz2IUQOBRIhhBDy/KBQIk+WapBsxW1iqfl3VdPgtHswbRft4QhJFOL8wx84/uNfSKJAFt+pmrY2aPS+gfFNPU4UWk8LVdPhdHoY7r9GZ7gN03aRJjEA8X3Xz6Hm+bRJRN3E2nMq0dU4v+6zEEDIc+YxznEuUBBCvhQKJfIkaQaZBT7vh1bTdWi6DtN2AABJFGJ8+B5APSBWAVwduKooytpjFD3PH80w0Nvew9aLN2j1hlA1DUomvuNN51dTzHx2sNd4HQM4Qggh5OlDoUSeFFVgWgWlDx1QZkkCVNtXVTGItSgAKFCU67NYVXkWxdLzoz5gWDdMuN0BWr3hrW6HTat5VdWEsLpFLDWzRPXn12c11YVXM5tFCCGEkMeHQok8OeoBo/rA1t2VQFJUFVibtSSC1ytCqFYqRZ4XVZlbUSt7s1sddLZ24PYG0HRDPK4oUJTN33NR5PKcKBQFgHbv/VgTQUWBPM+gqtrGLBPPNUIIIeTpQKFEnhRfO1DcPDepkD1KTYo8XzMSv+/Mpeuez8zUt6M61qqmw7TF7CRNN+S5tkm01LnvObmpx03a1efZZdayKDjUlhBCCHnCUCiRJ02axEjjGGkSAQAspyWHhH4OqqZfmz0QGQhVmDvkuQhqa4Jmk+i5i+DhQNunQoE4ChD5K8SBD9NxxXlwQ2ZH1XQUiviO7/o9rpWMlhkkQJwreZaJEk5FgVKf910UN4o1QgghhHx7KJTIk6QoCqRJDG82hjebIFwtoOo62oMRulu7MGznq5Tl6aYpS7LyLEMShWII6TXv9bkiqN43Q74OzWxgnmXw51NMTz6h1d9Cf/cFDNO6fH4jsyN7iL7gPKuyR0Wey364Sg6tiXWKJEIIIeTJQaFEniRpHGE1vcDZ+98xOfqAJAqg6QacTg+97X20h9vojnZhtzr3Ko3K0qT8J73sPamswTUNiqLCsByYtgNFVZEmMYLFDKG3BCCsxOuvUTUdhmXLLJSiqlBVDVmaIIlCZGki37tuBlEJpadqEFHv73mK+3cfqs9SCd/Z6SFavSHc7gCGaX3Vck9FUaBpOnIlA8pz57qMJiGEEEKeFhRK5EkSBR4mxx9x8uf/YHZ6CEAEvJpuYH5+gu5oF9uvf8Hw4DXc7uDW7FJRFMjSRJRdhT7yLL38W00IVGVSmm7AarVlUBuHAYoih7AVvxQPiqJAN0xohgmggGaY0A2zfC8PcegjS+IbBcdTEkvVMbbcNjTdQBpHSKIAWZogz7LbN/DEKYocq+kYy8k5kigAMKj97WHMFNZcE0uRVgnsTc9pPk4RRQghhDwNKJTIkyRcLTA7PYQ3G8vHijxHGkfwZmMkUYAkDFDkObSfRGB/k1jKswyR7yFYzhH7HoCrAqUoCmSJEFNZOYS0PRyh1d9CGkcIvSXSOF4TDEWRI44C6HkGTTegmwpUTYfd6sDtDhD5K/iLGeLAQxKFV/brqQgkQBwP3bTQHoww3H8N03ERLGaYnx9jNRsjz4LH3sXPosgvZ2SJcrx8TSh/Le4ieDhwlhBCCHm6UCiRJ0mWpkjCYK10TdU05FmGLE0QLOdIohCm20KrvyXK31Tz2u0VRY4kChCHPpJYCJaq/0SW4JVBdOSvEIknQNV1aLoB02khz7Kyz+TSMjrPMuRZgDxNYVi2EF9FAU03YFg2LLcty/3SJH5SwmgTmqbDtBxYbgum7SKNozWHuOdKveRRzEPSy0HD3+C96WpHCCGEPEsolMiTxLBsWK02DMtB5K8AoHSkU2Q2QFEUJGGAJAqExfNnoCgKrgtjw9UCaRzBdFzoplVmjCxhNBFHa8/N8wxxGCBNYiiqinC1gGE50E1T9C4pClRVQw7Ixv6nSJ5nCL0lxofvoWoaIn+FYDlHGsePvWufRTNrqNTEb138VWLmttI3ih5CCCHkx4FCiTxJLLeNwd4rBMs5picJ0jhaGxxaWS178wkWF6fojnbhdgfXBrmqqsGwHFhOC7phIQ58GRSrmraxh6jKBCVRKEwjbph50yzpSsIAke/BtB2omi6yUc8gyM6zDMFqjtBbSnv0PEufxb5vQlEUKGUmEhB23+3+FtqDEVSdtz9CCCGEXA8jBfIksdwWhvuv4C+m8OfTUijlV4wXvNkEs9NDdLZ2YFiOKH/bIJZUTYPT7sLp9GA6LvzFVNpHCzvw/NrMElAgDv3LsruiuKMrnHid/L8n7iBX5Hlp2nC1f6dZpvgcuLRuV2TZpqKq6GztoDvalTbwz1UEEkIIIeTrQqFEniS6YaI9GGGw91KYN8Qh4kCIjiqjVGVxZmdHUDUNwWKGVn9L2Ia3u9LcoZ456mztYOfN36CoKoLFDFHgXemDql5T2X1vKrWT9t5lxqIugqq/PUeXuObsoYqma9tzoLJ8r6OqGuxWF25vAN0QPW1yXtJt26OgIoQQQn4oKJTIk0XVNLQHI/R3X5TOcaVQavQVRf4KJ3/+G/OzY/R29rH/6//G9qtfYDougMuhn6qqotUb4sXf/y+YjouLj39ievLpsgdKVaFq4pLI0qTMGqkACplNqQ+YvexnUcp9ytcyTd8Tz1H0AWK/myKvEkb3GRZ81x4mQsj9+d7ul4SQ7wcKJfKkqAekqqrC6fQwevkW/nxa2oKH4m9l8Cud6JDDm0+QxCFUTTTrD/ZewnLba8LFsGxohglV1+G0u7DcNsaH7+AvpsizDGkcrQ+PLf+7KDYLBRE4i/9eE1HlMFq324dh2YgDH1HgXclMka9PXeSlcYQ0Ef1uVUapKAqkpR28bpgUQoQQQggBQKFEniBFUQBFgTwTs4k6Wzvo7Rxgfn6M+fkJ8iyFogmL50oAVcNR48DH4uIUrd4Qrd4QdqsDYH1OjaIoaPe34LR7MGwHqqbh7P3vcmZTc7aNoqpAfn1GpQrEZUlg+bjpuBjsv0J7MEKwmGF2diTFHnkcDMtGEoUIlnNYbhuGaSFcLcTsrDSF0+mh1RvcviFCCCGEfPdQKJEnhyytK8ucdMNEb2cfw+kbRL4njBgaYmZ9cGwuMk7XZAaq12i6jv7OgZzNVOQ5kjhEliSlg122JoKuK9Xa9LhuWnC7fWwdvMHWy58QBz7sdhen7/6D+dnxNxl4Si5xOj30d1/A7Q6gahqW4zPx3RYFvPlEZhQHey+hKApMx/1sC3FCCCGEfB9QKJEnhcziKArymvhp97ew/foXrKYXCL1FTcSUQqm4NFJwO320+lswbefK9qt+papPxbBsDPdfIc9SaLohS+SEvfcKSRRKm+xq+9ftc73OXlFVGKYNu9VBu78F9LdQ5Dm82RiryTmA4tn2/TwXquGyrf4Qw/3X2PnpbzAsBxcf/8T48D3m58dI41jOiiqKHKG3RFEU6O8coD0YXTGDIIQQQsiPA4USebJUrnV5nkM3LXSG2+gMtzE7PUTkr6Q4AiB7ikzbRWuwhc5wG4a1LpTyPAdqWYECIpjWDBODvVdwOj1kiZiblEQBZmdHmJ58wvzsGAVy+T7AZZld3YJaUSDL7rIkRrBaIFgtpKGA3e5CM8wy08WMxNfGsGz0tvex9/M/MXr5Fk6nh+XkHMFqjsnxB5G5zIXde1UOOT3+CEBkBNuD0WPuPiHkGr5HwxxCyNOEQok8aap+JUVVYbe7GOy/wnJyLsVSHVXVYLlttAcjuL0BtNpAUdn3VOs1KooCaqEJEdNqw2615d/yPEd7MILd6kA3TCwn50jjqBwceymWLkuw1n+0q8Gts9NDuN0+uqNd+Isp4sATAoulW18VRVXR3drFwd/+L+z9/E/YrTa8+RTjw3dYXJwiXC02vi70lhgfvkN/5wDJwRtYbuvyj0VxbTknIeTbQZFECPlWUCiRJ0016LT67+5oF6OXbxEH3lWhpGkwbTF0tnI0q5fvQVGgKKoQSzKzlKMo1CvCRVVVtPpb0HQDhuVgevIRy/EZguUccRigKPIr/St1y+kiz5ElCRbjU2iGIV67WmBxcSr7k6qsFPkyNh1HTTfQ3d7D1os3MCwbs7MjnL37DUe//ReC1fzG7eVZhijwEIe+MPsoZ2nVSzYJIV9OU/BsEkD1cmygcU+vPU4IIV8DCiXy5Kn/ULrdAUav3iL0lgi9JSLfuzRGUBRAUaCqtb6SRhagCnQL+d/rQ2nrmLYjhJftwOn0MOseYnr8EfOLE4SrhexfkcNmG/1LeZZiNb1AEgYwLBtpEkvTgPvM8CE30xRJVdncYO8lOsNtRL6Hi49/4fiPf2F+fgxgfbBwc1t5lmFxcYrx4Xuomo5WbyDODQZkhDwq8npldpcQ8o2gUCLPClVV4bR7GO6/QrAUvSZVGVWR58jSBGkSI89z0ePUWI1Uao9VjzczQ83g2XJa6O8cQNMNAEAUeAhrvUdyuzWq/8+SGEGalj1V6wYOzCZ9HQzLRne0i1Z/CwDgzSeYnx+vDRYWPWLXle8UWI7PMD58B6fdhdPuQtW0NWMHlv4Q8m2ou01KNrhRiocpngghDwuFEnl2VPOJQm8JfzGVQqkaGBsHPpIwgOm4V+YnAZcmEZtorlhWz7XcFjTDAFBgNb2QJXRVNum6DJEQRsJ+vE5VUkix9GXUSx0r7HYXWy9+Em6DgDxP4sCXz1W0mzN6kb/C5OiDtJnvbe+v9bARQr4NN92vgXUnU0IIeWhY/0OeFZUwkaYN3T5UTYeqaSiKXAil0Ecc+tI04bMckhqZpjzPoekG3O5ADrJVNe1WoaNqwiyiLqSECcTVvihyf5RGqaWiqmj1hugMt6GbFgBstHYXvWkb+iHKfiRAiKWLj3/h/MPvt/Y1EUIeD95LCSFfC2aUyPOjzPS0+lvYevETIt/DYnyKJAxE9mA+ReR7sMuSqYq8Jpzq1IfXbspA1f9uuW30dvaxnJxhfJhcMZRosikYL/IczCM9DGI1WZQz2q0OejsH2H37dzid/lpvm6Ybd+4Lq4RVliZI4lD0lDEQI+SbUt2Pk7JKIA48JFEIVdOgmxZ005KupADLYQkhXwcKJfKsqP8Ymo6LrRc/IU1iKKqKydGHclCtKHWrZ3uqrFKzRKP52LUBcSWWVBWdrR30d19gNR3fLpRq2Yy6OxtL7h6GquxR0w30dg7w6n/9fzB6+bYskxSYTgut3hD+YoYkDADcPIel+p4M20Fvex/d0R4sl2V3hHxLqntxsJhhcvwRq+kF4tCXC1Z2q4P+7gt0tnZglNljQgh5aCiUyLNFN0y0+kPsvf2HnFUUrpZwOj0xM6lyw6txnRC6KWNQD6hVVYXltOB2BzDty4G2zT6l6v/rGS1FUaHbrnheUSBNYqRxdK/P/NzZ1FP0peiGid7OAfZ+/if6uy/WZx8BaA+2MHzxRgwAXs5lb1lFc19UTUNntIvB3iv0d19gePBalvHJz/EIGSaumJPvjU1Z+yar6QVO/vgXvPkEWZpAUVRohgHdtLAcn2H79S8YHryRPYTNygFeN4SQL4FCiTxLqiyQbpjojnbRHm6jt70Pfz5FnmelkYN65fnNH+LPmYujajp004JWlnzchqKoYu6SqkI3TGiGKXtkmpmv7x0ZvFz3d1WFqoqermq4bz0rVz9WqqZBM0wM915h9+d/YOfNr7DbXbH9WqbQbnUw2HuJ+dkxpicfkUT5RgMOVdOg6QbagxFGr37Gzpu/oTPchuW22DBOyDeg2Rca+SvMzo4wPnq/cVFJZplUFduvf5HOpIQQ8lBQKJFnRX34Z138qKoKp9ODabvI8wyqql028z/EiuKGAPmmoLlpHCDc7xRkWSq2VRRi8O13zpqJRW2Ft3pcUZQ1y/SqrEY3LeRZiiQKkUTBZZ9QTSxphonRy7c4+Nv/QX/3hehJU1VkaYo49JFnGTRdh93qwDBtWG4LhuVId0RgPZtkuW0M9l5h+/Uv6O3so93fkufQXVa+CSGfx6brKQkDTI4+YH52fG3mPQkDTI4/wun0Ybe76I321rL4hBDypVAokWdNfe6RbpiysbfJlwS2zX4WYQ6gQ9MNqJq+lvVosjY3qXTlq9uK/yjZpLrQqH/mApdZJLvVQXswQns4gqabiPwV5udVkJTJ7ai6AcN2MNh7iYO//R/s/fzPte89z1IkYVAKURtZmiLPs41Zxeq9hTHIG+y8+Ru2XryBYdlXPgOzSoR8ffIsQxKFOP/4B45//xcWFyfyb82sMgCEqwUuPv4Jw7Khqhq6o11eo4SQB4NCiTwr6sLoth/Dr7H6X2VDNMOEYTvQTRNpHKHA1T6lK6/NRWZJGjoU379I2tS7tQm73cXOm1+x/foXdLZ2kKcpZmdHCFcLLMvn5FkGRVVh2ja2Dt5g75d/YrD3CppuyPOiPnNFNy3ohoU8zxB6S0T+CkkUyplWRZ7DsGw4nR72fv4nDv72f4SLVqMfqX7O3TbThRDyZYTeEuOj9zj+/b8xPfkkS+tuIljNcf7hD9itDtxuf+NCByGEfA4USuRZ0swMfIuG3brwMm0HdqsjSv2ybC1zdPM28spA74fJJhV5LnuSVE2HYdlrdt2t3hD93RdlU/brSzGiKPBmYwSrBVbTC+RZCstpYXjwGnu//BO7P/1dBkR5niPPUiiK2K5hO7L8MvQWmJ8dYzW5uCzjK1emK9HbHo7Q295b2++qKXztszCjRMhXIc8yRIGHs/e/4+TP/8Hk6D2SKASAG4WSoqqIAx+z00OYjgvdtNDffQGn04OqXp1XR3MHQsh9oFAiz4qbzBea2aa1cq9rzBzuQz1joekmDMuGYdk3WoQ3f+B/FHEEbC6TEbOO9uF0etANC0CB9nAb/Z0DOJ3e2ndm2i66oz3EgY8siRF6S7i9AbZf/4LB3ssrq8aqqpXfkSbKcDRxe4t8D6vpBfzFVApaRVGglAODkzBA7HtIk/jKTJbqvKm+9zzPr2SuCCHXc9d7bhKFGB++w9n73zA/O0KaxOL1tzhlVo/neYbJ0QeRuc8z7Fp/X3MmJYSQz4FCiXx3bPphfugsQGVPqxnmRqOHH5FmQFOVtpm2C6PMwHVHe+jt7MtBkXmewW51pbUvcClsTceVgshy2whWc3S3djF69TNM20UcBijyHKquQzdM4ZRXvreq6dL4Q9WEcDJsR/aUVWRpiijwML84wfTkE3rb+zBtZ6Oozu8pcptii5koQq4nicPSmfITQk8U3N51SDQg7jeRv8L46D003RCz1bb34LR7ckg5cP1vATNNhJBNUCiR74KbBsY+VIB6xVq8srJulnb8QFmjCqVW4lIPN0ynheH+K/S292UmyXLbUFUNUBTkWSozPxWV4YOqabDbXZiOi1Z/iDjwYTotOJ0ewtUC3nyCPE1hui20ByMYpnVpvFFzRnTaPfR3DuAvpggWM+mIp2paaayRY352BMsR85f6Owdr2ao0iZElibQjr2eTbuuDk/tyw3MI+Z65rVy1+nuWJIhDH1maQNX0tTl4t91Tq/tPnmXIkhiz00Oouo4sidHffSFLfnXDvNEVr76vNwknXsuE/DhQKBFyBzbNX9J0A5phrM1rIusld6bjordzIEwahttXjqOqXnUpVFUVqK3+FrkK03aFbbgsjcvhzSaYHH+AoijY+/mfGL18KwROmUmqsjiW24JZWoM3V6irffUXM5y9/w1x6GM1vYDb6UPVdYSrBdIkhqKo6Ay3Mdh7uf762ufJUiG6FEVdE46oBV4MsAhZL4cu8hxQ1XIUQLhmBX7b3LX154nn5lkGfzlD8alA7HuYnnyCphswHXEPqUqmnU5f9jFV2+CQWkJIEwolQm5hU68TAFneweAXMthpUgUfmq7L41QvYbuuJC0ve4cqpzrDsuH2BvUtAwBWk3MEq4V0r2sPRqIMr7bN0FshWM4Rh/6VlelqNlMaR1hcnCL0llhcnMLt9qEoKvzlDIAwnDAsu1zt1pClaZlRFJ85iSMx7DhLYbltWG4biqbJv9/HrZGQ7xl5/RcFUGaA0yhE6C2QRGHjGlVwm0y6XPwoyiyxcBYNVnMEqzlUVSvLbx2xaGK7sFptDPZeYrD3Cm5vcOWeQcFECKmgUCLkjhRlI78I+lUxt8m07lVH/z1TBTj14+EvZrj49Jc4TooKu9W5fghtGTQlUYjFxSnOP/yB0FvAbnUwPHgDp9OTrzMdF93RLrZe/ITFxSmSSPQ3qKqG9mAEVdOQRCGWk3OMD99hfPge3mx8pUG8iTCOSBAs5zLoag9GcLsDOJ2e3L8kCmE6rsyIBYsZjn77L+RZit23/4DpuADWS3wokMiPjhQepUiqFkq8+QSzUzEOAKj1O94yQmGt5LcyXtG0tXltWZ4jSxMkUYjIX4n+UsOCN5tgfnaM9nAb3dEuWr3hmqEMIYQAFEqE3IlC9rzka4+hlikgVwlXC5y9+w2GZcusTNOtbq0MRwqlE5y9/w1JGGD06ucr2zVMC73tfeiGifnFCfz5FFHgwV/MYDot2K02Qm+J07/+g+M//hvL8Zl8rapp61nCRpYpSxM5a8ntDtDb2cf261/gdgcIvSWyJEaeZTKjGAc+JscfcfLnv5BnGZxOD263L6yKDfPKsGJCflSqeyZqmeQsTbA4P8H87AhR4AG4vE7uOnYBuMxqV+JLaQim6r2yNEEc+PAXU8xOD+H2BmV26SWG+69hue1yoePqsHFCyI8HhRIhtyADeVWFgsuVzjj0EQXe1XKuOwxY/d6oVnY3BRVZmqDIc9HPdcfsm2HZ6GztQNN07P38TyGKGoNgNV1Hd7QLu93FanqBYDkvV44D2K12mVE6Q7Ccr73uul6hpp25qok5TG6nj+5oF6qmYXZ6iCQOYdouiqIQQd74FJPjD/J9luMztPpb6I5210ozq5IjiiXyo7GWScL64OYsTRH5KwSrBfI0XXvdphEDa9utlfzWTRrWylxvsBfP0gTebIIsScp7yAK7b/8Oy21d3Xfw2iXkR4RCiZA7stbsm+eIAx+Rv0Ke333V84v34ZaZIk8BOci1HCqrGybagxHsVueKwx1QW2UuUTUNptNCZ7gNy21jePBaZqGqFeIsTYRzXdn7pJsWTMdFGkfl31N4szGW47O15vBq/zb1UzWx3Db6uwfobO1A1TT48ynGh++QxhHaw23YrQ7yzEawnEuRVhQFZmdHcHsDOO0u7FbnC48mId8HRZlJqsizDHEYYHz4DvPzE9FDuKHU7i5iqb4AU89CKbXs8aYMk3h+Cn8xhb+YIo0j5FmKLE3Q6g3XSoWZWSLkx4RCiZBbqK8iVtmIPMuQZ6n4Uf7KP6B1cVS5OymacueylGql9T5lLDfty3UZtLUARVHgdvuwW120hyMM9l/BtN0rg1pl8FGzd1cUVe5zliZIk1gKpSxNEPkewtUCUeBJC+E8y2R5n+m4CFZzrKZjWcqziebnaP6/5bYx2HuFVn8LwXKOi09/YXZ6iDgMkKUJnHYX7eG2nNOk6QaSKIS/mIoSvbJ8r4JDasmPTn2xKQo8nH/4Ayd//g+W4zPkabo2e+w+XLf4cd/teLMJjuL/gjefYOfNr9h+/StaayYyNHog5EeDQomQW6g7lgHlj70qgnlV077qwNmbMkjXiZbrVl+/VjaqWa5m2i562/sY7AtHqVZviE4pKK7s0wbbdd00pfAIV0ucf/gDumkhz1KkcYy47EUKVwtkaVKW/alwewNZ7hYs55gcvUdWM2+o7+dNx0BRVRiWjfZghN72HhRFwfjwHY7/+BcW41OkcYQsiYVduWnBafewdfAG3myCJDpBGkcii8Uhs4SsIUWS72F2eojTv/6N8w9/lPPMvkx4bLqm73uvy9JEzFtbzZHGkchU245cqOH1TMiPB4USIbewVhpWZT5UFbppwTDtG3887ztZvv66qudnLcAvimt1WSVElNKtrdpOnmXrc31uKWW5bR+rz7Rp/0ynha2DN9j9+R8Y7L2E5bRkGd7admp9Qs3jp+kGDMuBYTtYjs+wuDhB6C3LkpgURZ4jiQIkUbh2rLRTE+fvf4eq68jTFEkcyt6y+6AoCuxWF263D1XTS9H1AYuLkzKTmCFYLbCcnKM72sX2619hWDYmx+I5mmFKo4c6eZkRZLBFfjSa572/nGF2eojVdCx7GIHyWn4imdfl+Ayz0yN0R3vQavbhzCQR8mNBoUTILSiKcmWSh6Io0A2r/AF9mB/2TQFC1YxcBRJFnl87VWRTaV39dcoNE+k/h/r7VXOMRq9+xujl29I9ar0hOk1iqKroE0jjSFqta4a5VpamKAqcTg+daBuryTnmFydYjs+kOK3moAC4zN5ArAYHq/mV4/C5gVeaxPBmYwTLOaYnnxAHfu2zp4hDH2kSQzdN6KaJznAHve0JTMdFq7+11ldVfS5CfmSqa39+doyLT3/BX0yfZL9lkeeIwwBJFFwpoSWE/FhQKBFyC9dlAVRNE05uXzkArqxugUYf0B0zQ/Vm5Coj9LnOfJtEh6ppaA+3sfP6V+y+/bsY+mpayPMcqqqiKApE/gpZmsC03TIjI0pbFEWF1RIDWiuHOEVRoKpi5lJnaweR70HTdOFAV5byiXknqhgqWbrNhWWWx5sLF6uqf+m+gVhRFMiSGMFyjuXkHJG/umIIUZGnaTlzSYdhOxjsvYTptOTgW/n+5Wci5EdGlLbNsJqeYzW9kAOcr8vSPJaIqvoODcuGtsGAhhDy48A7ACGfgaKol+VVNwil+/QQXXlt4/9VTUOrN4TVakNVNcRhgDj0EQfCLUqUrNllP0+GOPA2TLr/suCjbgGuaro0NNh58ysG+6/QG+1dlgAqCpI4Qhx4CJYLAAU03USWJlhOzjE/O0YaRzAdF+3BCJbTgmYYUDVdiqZWfwuW20aWJNBNE6btwrAdaLqBIs/RSbaRxjEUVcVqegHdtEQwNp9+0WdUdR2GZcNyReZqk0BcTS9w+u4/CL0lLLeNYDWHZphwOj047a4svdvUm0XI98B1IwGuWzxK4xjhaoFguUCWJNKEoelc99jUZ+apui4XfKq/MTtMyI8DhRIhd6BZPqUoCgzLhmm791pxbPYh3fbc6jmabsDt9jHYe4XO1g4URUHoLeHNJgiWM5mtcbr9csZPjuX4DPPzY1nmVu8DkPvQcPS7zeSg2i9h4e2it3OA3bd/x/brX4SrnabJTBIgSuOC5Rxx4Nfq/AvEZTO3NxtDUVUhlEpzBFXTYJg27HYXve099HdfwChnKOVZhjSJZYZK0w2YjgtV1ZCEgdiGYX5x0KWbFlr9LQz2XiLyV5iefEKaxNB0Q5g5pAmSMMD05BOWk3P52d3uAKbtlGU74Vr5ISHfG02RdJuAiAMPq+kF0jiCZhhr/Ulr233kcrwiz5FnGbIkQZaI0rtN7qeEkO8fCiVC7kH9B9Jui4Z/w3aA+WZXubqJQlOsmLYLy21BM0wUeS5LvKrgXzNM6IYJ3bRgtzpyiKkoO1OQRCEibyWtqKvnVVPlV9ML2TAdrhbI8wyabsByWsjzDKG3RBKF0nGqyPNrS8zk56oJENN20Rluo7e9D6fdlY9XIikvgw1Agem0YDpuWZKXwbAdqJqGNImRxhHiwIduWqJcrRShbrePLImRpSkMy0YSBQi9JcLVUpbuGdalI1XoLREsZoh87wut0BXxHdguTMeF5bbx4h//N3rbewAUBMsZ/MUMkb9CEoUIVwuEqwVUTYi1SsRlSYz2cATdsGBYtsws3dQMzuCLPGXW7mX12We3LEzkeY4iz7EYn+L8wx9YTS9k5rjqAXpscdQkz1KE3hL+Ygqn04NpO4+9S4SQR4BCiZB7IIWSosC0HbT6Q1huWwqiuwTomm6U2ZJ9tAcjmLaDNIkxOz2Ev5jCsBw5sNTp9Mv32br2xzpLU+R5VhpMmPLx7tYuulu7a307uilKw/Isgzcbl25ymXSUS+NIlvOlcbQW3Mu5URClh263j+5od22o6tpKa2nWYLc70A0ThuVA03Xohgm320d/9wWKooA3E85XSSRERkW4WiAOAyzGp1BVDVEg5ieF3rIUQ6kofzQM6UZXvvEXO1MpigJV06AoKuxWG3tv/4Hk4A2KooC/mGI1vZCCzZ9P4c3GiMMA3nwCbz5BEoVCLGUp2v0tUb7DEjzyvVEbIivuEeIazPMMaRwhCQOkSSwHT4v+pAtE/kouHhRF/oULG1+HPMvgL2aYnx3LTHEFFzQI+XGgUCLkFjatnFb/1s0yW6BqlzXtmgagCh7yy9r2csXUdFxsvXiD3Z+E8YFmmEiiAJpuyNKz9mCE9mCEztaOyGzcsJqp6Tq0DZeyqmnojnbh9gaIA78UU6rcVhXM51km9rPMAPnLGeZnR5ifn4i/l4MgQ2+x5vxmuW04nR5UXZfHaW1gpFJlklprK86qpsOwHJGJ6vTE8Fjfw2J8itXkXNp+x6GP5fhM9htlaVLu76Vgy9IEeZ49+Gp0nmWyxA6AcObTdCilQHa7AxEIRgHSOMb8/Bhn73/D5OgDAMBfTDE/O4bptGA5Ldh5znId8uxpzpOrzwqrXCKTKEQc+AhXC/jLGSJvBafTw2D/lbh+3Bbi0t6/umfep3fzW5JEAfzFFEkUyMfq/UqEkO8fCiVC7sB1Qa5uWnA6PditDoLVQj5eb3JuluK1ekOMXv2M7Te/yt6byBcW03mWlWV4HjRdGBukrgjYVVW47Ml9KoVN5WKnKAqKPC8zLithLNDulYF9X74uL/enactd9Ra5qwFQFGVZ2RJx7gN5DkURQ3Z100J/5wX6uy/gdHqyR6uaN1WFEPU5S0kSI88yqJqGLE2hqCq6o92ypC7EcnKOosjlENkqQ1TPMF373XyFAEuIoFCWIlbOg1WmqSr3q6j6xtI4RuiJ86ASmaqmPalGdUI+l+o+WL8X5nmOOPAxPfmI6cknRP4KkbdCFHgIlnNE/grtwQiAyKY77S5i34MXTgA8bbOTJAqxmo3hzSbo776QGfvrTCwIId8fFEqEfAF66XJmtdqIAu+y36e4WkpSlZ/Y7S6cdlf+6KZJjOXkDJPjj5gcvQcgsi6aYcBy28Ime7gty+90w0SWpTKYB8QcI0VREIcBluMzrKYXUBQF7eE2ulu76GxtQzcs2ZsUBz5QFFB1Xbqz5VkGTddFr89yjshbwZtPEAceAJS9Qg5GL99i75d/SivsusFFFTpUAizyPQTLWbl6XJRZM5GdsVsd6dIX+SsoiipFUnW87lrOWD/Gde5rfS6eL2Y+NWeoVKVFiqpe6ckwbQft4TaG+69EmWOawG51Ybe7a9bnhHxvRP4Kk6MPOP79vzE9+SQyvnkmS3oBsfCwml7AbnWEY2htwae6pp4iWZogXC3gzScIlnO0+lu0+SfkB4NCiZA7UF9FrTvgaYaJ3vY+Fhen8Bcz4TB3TXCuqpoYpDrcloYMQLlqOR2Lvhdvufaa5fgMqqajPdiC2x0IoWRayLN0LeOhl5kpEZCMESxnAADn/BjzwTbagy3opiUzTsLEQWR4KqFUFDlUVUOWJoh8D958IjM8AGDYDvo7B9j9+R/YffsPmQ1rHqNquGzoLTE7PcT87BhR4JU9S4Yox7MddLf30B6M1oY7pnG8tj1A2ThnZdMxfqhgS1FU6Wi4cbV7w0pydR5omo5gtZD9Xe3BqHTlW9+35rlEyHOgmUnKkhjjw3c4+u2/MD58t1aaWyeJQizHZ4gCT2Ze6zzFsjsAMrs/Pf4Iy2lh+3Uus8ebFj54PRPy/UGhRMgtNH8QqxIzpRQZrd4QneE2JkcfENbK75pohgG3O4DbG0DTL00X8iwTYqTeC6VpMpNSFHlpAy4Gm9bL7LJyxVb8cKuyX6dayfUXMwSrBSZH76WQyLMMeV4bXFv7fIqiyn6lLE1lDwEAOO0uejsH6Ay310wjNh2vyPcwOfqAi09/CaHkr5DnGVRVk+52/Yko39NNE95sgtBbrr3fZZ/X5aBc+ZcNmaPPDbaa/RHV99QebsNudeVnKopizcVQ7lv5vVluC4Zlo5sm0k1QiK312+z68VbYu0SeDfXzNEtEb97Fx78wOfogBkjXro96JrgockSBhzj010wfnir1bHZR5JhfnIiKgLLUull6e+O2Gtc4xRQhzwsKJUK+AFVVYbktdLZ20BluS9vqTUG7blho9Ydo9Yay9KQoCkT+Cv5iijgM1p5fBfBFniPL87UysLtSBST3f+XmbeU1YQaUq8o1w4cqe5JnKZbjM8xOD7Ecn61tJ/JXUFQh6pIohKIo0j2uEkTVvCXgcrX5uqGUD7UaXW3fbnUw3H+F4f5rOQdJDtndkBmq/qYbJmAAgAO71RElRRtWnvOaqNtUxkfIUyfPczFw+a//4OLjn7KXsJ6Bre5fiqo2XCmfD9VnSMIAs9NDOd5AlA2LEQe6YcKwHTFTrzS2yWv3pOYMPkLI84JCiZB7simwtdw2uqNdePMJFhcnKHA1U1HN5DFs53J1Mc8RLOfwpuM1Z6W6SUPFpoGxNz3e/PuXEgUeZmdH6GztoNXfkqV3ceAhXC1RFAXa2JIiYc0MQVVlWV/Vq1XkOYLVHEkonKWaAcWmAbgPWaLTPF6Kqoo5U24bbm8Au9W+3I+am991Ac+a419t+0Weo1AUed5U86qKohAr03cUSk8x0Hpuq+M3HcPv6bPcxpd81qrkbjk5x+T4A4LVXGbAN4mhp1pWdxfqfZdZmmB68gnBcg7dtGDaTjkIfID2cITB3ku0ekPx5Nrxre4Zm4wwHpLHOH8f45703K5T8vyhUCLkAbCcFrqjPczOjjA7PQRQlrFBrKhaTgu97X30d1/ActuyHCvLUgTLOZaT8zVRsclV6TohdFtvzpcYHNTJkhjL8RkuPv0Fy21j68Ub6IaJuBQ61XNWxhiT4w+YnR4i8j35noUi9kNRVGmrrmk64nzzHJWvHWA1jSI03RACrijEsN6zIzjtHiy3tS7eyoAnv2b/6m5/l5bxunyssjkHxLwZtdCepAgiZBPVINbV9AL+fPqkzRgeksqFMw484QCq69A0HabTgnPaFaWHb8R8uSqzluf5mtkNIeT5QaFEyAOgGYYYEtvpyWnz1Q+jphtoD8SKY2e4s2aCkMYRQm8pB78ClyYGivK0HKGqQGFy9AGGZcNpd9Ed7UphkGcZ5ufHCJZzzM6OsJycy1I98Xrx35quw3LbaPW3YLkt2O0uNMNAsFogS+JvsmJYHdMq62fYjhRFhuWUwjVGb2cfve19mI4Lw7TWVodRE01orBhXc5gArJVZVj1k9V4OluaQ50A9C16NIKh6JJ9z1ug61mZGNa7XPBOLHQlQisZzAOJer6g/l+5+ylfNIBFCvg0USoQ8AKqmw+320eoNYbc68OYTaZigGyY6Wzvojnahm5cmCGkSI1jOEQdew8QAAAppHvDUCJZzTI8/ojPcgd3uotXfgqYb8BczrKbnmJ58Ep8/S2XJXVHkNXMKIaqcTg/D/dfQDAOL8xOcvvsPxofvvknQVeQ56nKsPRhh+9Uv6O8eQFU1zC9OsDg/wbwsNdx9+w8M9l6uBUxKrR/jJrGjKJevEUNr1XL4ryKH2BLynMizDFmybkDzPVEtZlwp/d1QDgyI4zE7O0JRFIgDH8MXb9Dub62ZPnBBhJDnCYUSIQ+AqqpQVRPd0S6GL97IeUUApDOe2x1AVS+DazGcdIk0iddq4Z9qDfalE1SK1fQC5x/+gN3qYOvFGzidHiLfQxKF8Jez2qBW0WdVZOtDd+1WB52tHQwPXgur8K1dZFlaut8t1mYpfQ3hVPUjGZYNy21j+9XP2H79C7ZevAEgrND9+RRn73/D/OJEZJw6PTid3nqwdM2qsaKK4bxQlMvsVfU8VYXWuPXWS/oIecqkSYzIX8kZbt8rt4kkUV4nTGeqbPv5xz+QRAGSKET26mf0dvbF4PAnuOBFCLkbFEqEfAHNVcJWfwvbr39B5K0QLOcARGCh6vqaiQMgStHEP9maOLrNnOGxKPJcGg9kaYLJ8Qfp8uT2Bgi9hZiPsib0iiufz3JaGB68xmDvpZz/ZLkt9EZ76O8eYHKUSpH5tbJLqqqVIu8n0YTd34JumkiTGIZpoTvaxejVW4wP38FfTDE/O0Zvex92q4MCgDcbI0sTWbJXHYfmjK0m160qUyCRb8mmHsibnlsnDnwsLk7hzcbP0snuvtQXa+riSBy/q/PdvPkEk+MPoofJEGXXqmnxGifkmUKhRMgXUs8E2K0ORi/flq5mYv6R0+kJA4frhE9tpfJrZVAeCmnVXRQIVwucvvsP8ixDq7+FOPAQrOZrAVjVY1X/TIbtoLO1U2bYLo9JZ2sH269/lT1bXxNV19HqDbH9+hfs/PQ3oCgwOzvCxcc/oZsWOsNtdEd72Pnpb1icn8B0XGnE4M0nOP3z30iTCHari8HeS/R29qFq+trnqVuo12HmiDw29xVJRVEgjSMEqwXOP/yB6cnHK9f6j8imRa0kCrG4OBWPKwqyJBbDqA3zym/AWh8U7wmEPEkolAh5API8h1qWphmWje3Xv8Dt9LGcnENRFLjdPoD1IFnVtLVSPACyNOtzuSkb9VACrL7tNI4wPnwn6vPzHEkcrhk4VO9bt8pGUSDPUmmbXReZ3dEunHbvwfZz0/DLCt20YDouNN1AHPgIlnNMjj4gSxPsvPkVvZ0D7Lz+FVsHb2A6LdjtDpIoxPjTOxz9/l9I4wit3hBZmkAzDHSGO7d+d9cNnWSQRO7L5wruut19s2z0uhLQPMuwuDjFxae/cPruPz9MNqlJPYtUv582761pHMGfTzE7PSyPk4Le9h7URs/Sjy40CXkOUCgR8gVsKmHRDRPt/hba/S10t/eQpQlM273yvCxNEIc+0iS+sk3gafYq1UVSNUjypuxPXSBV/62bFjT90gmuLhwrd8DF+BT+fPpZQ3ab1I9jVTrjtHvojnaFla+qIktjhKtFOSdlhiQMEHpLMVOpK9wMdcNE5K/gzcZyiG7ke0iTWFgm7y3R3z2AabvSHvgpfofk+6Yugjadf80sxibRVP07TWJ4swmWkzOMP73D5PgjFhcnX/sjPCluEkTXkecZgtVC/Hs5R+SvECxnGOy/gt3qQDfMja6XvF8Q8vSgUCLkC5GDRBtDSRVFgeW2Rc/Ohob/OAywmo7lVPsKRVHLbdzdHvwp9jWJjE55bJCjyHPopgW71SlnSYkhlfWskm6Y6G7vYbj/WpT6lH1emwbv3kbT2U5RVWiGCd0w0dveQ2drB3arC0AYa6RJjKLIZf/VcnIOp9PD1os36O++QHswkgNzq30HxMylPMvgL2ZIogDDgzdo9QZrM1TkPl0TCNERi9yXTefWpqBbnnPVv6uFiXqWF5cujvXterMJjn//b1x8+gvLyZlwuiM3cpnJLsq5Sz5Cb4nl5Bxx4GP79S/obO1sNoGhWCLkyUGhRMgDUf3I1evQ6/9dz54URYHIE9mJKPDWtvOcfig39VSpa7bZufy76bjobe9jeCBc8pSaI1z9te3BCJ2tHcxOD6VQqmekvmQ/TcvB8OA19n/93+jvvpAmDNV8ozzL5D9JFCKJAiiqijSJ4c+nKIoC/mImv6PqucvJGSJ/JY0rFEWB3erIoJSuduRrUhdJRZ4jK01i6uWnAOSCjbDsvxRSeZ6J4cdln11lc33x6S8c//GvHy6L9BBcliZWWSUPRZ4jDgPsvv07Oltipt5TriAghFAoEfLZbMoCbAqE68389R/FJAoQBR6yWuldlUmqb39TBkVprgY/Yiap6QqlaqX4yDIU5SwpVdPR3drFzpu/YfTqLUzbla+vyut0w0SeC2GlahpUvWGhfc8eqypIrAcgmmFgsP8KWy9+ko57AGRvmV5zqlNUYW0e+StMj2PZoB0sZmv7Ur1PHPqYnx1BMwxYbhum40LXNDmcFhDdDVUgSsjnsqmvqDrH8lyI/CxN5PUoshciE1oUBbKigFpo5fWRI0/T8vk6TNtBFHiYnx1jcvReDlMld+dqua9YNFpcnCCJAgBiRl53a3fNMZMLKYQ8PSiUCPlMqiC8KrGS/59liENf2EebNgzbka+R5Vjl8/I0XWuKXiuZuUEYPDVnvLpQuxwsm0PVdDjtLno7B9h9+3f0d19ItztxnALMz46wnJzDsGyYjovI9zA7PUQSBg+2f3W3vjwVRhJVti/PxEq62xtgsP8KAOAvpkiiUJYOpkmMOBD9ZGkcXRGq1WeOAg/BYobIX12K2NqMLAZC5KtQZoWqWT+iPFSXhjGV6G8u6lQiK4lDhKsFkiiEqmpYzcaYnR5ievLphzRteEjq9/MkCsueVAVZmiB58zc5JmHzsGqW4hHy2FAoEfKlFAUKXP6oVY5HSRSiPRzBdNzyaYV8LnDpuqablhzQKmd03FEIPamepCrwklkkDa3+EFsvfsLe239g6+VPaxmbLEsRBx7GR+9x+te/oekGnE4fceDJfp8vsUuv5j7VX59EISbHH+F0ehgevIHdagvXOt2A2x1A0w3YrQ6Of/9vLManss9KURRkRYIkCkphpW0UtIqqijKm2uyoTc5ihNyXO/Wxlc/RDROKJe4NqqqtDUaWg1PLBRtU96zFDIuLU8Shj+X4DN58giyJoWr6WgktuZkrg2o3/P9ycibub4oYvt0ejDYawPBeQcjjQ6FEyBeilKVUeTlnR9T6a+UqYUPIVEFz2cPS2dqBv5jVhNLd33N9sxsau79xYNN8T80wMdh7iRd//7/QGe6siSQA0DRdvkZMtvcQBz6SOJTH40s/Q/P1SRhgdnoIoEAcBth+/TNMpwVNF+VJ7cEIhuXAX0zhL2fIkhhRuY0sTW5fXS8/T1HkV8RR3eTjcwKgrxU0Mcv1/KiX86qqiqJyq1NVKLgUR8Dl97upVwmKUvYlaSjyHMFyjsXFCUJvKa/Bes8heRiqY+0vpgi9JZxOb+0417N9wFXDoOfAc9pXQm6CQomQL2AtGC5nBCmKKtzuABiWvdHZCACsVhtOuwfTdnBp5/AwPy6bemhEtgpfbXV4TSTpBlo9kU0avXxbvu+lWCgKIVSSKITd7mL08i1mZ0fw5hMxrPcribwsTeAvpqI0MkmgmyZGL38uy5R02K0O7FYH8/M9zE4PsZqOkUThle3cJpiuFa7N5npC7sBGm++awUll0FAXR02TgOsC12qQbLCcI1jO4C9ma7PQWHr39bh1llLpmFp//iZ4TyHk60GhRMhncqUUplqdLUtVFEW9MfOTZ5nsK6hvU1EUKGVp13WCofn4Tc8v8hyaackytjwrNsqxZt/Nl2C5bfS29+F2B5fbrwVvke9hNb1AsJrD7fbRHe1CNy1E/motu/YlpXfVzCSguBLsFXmO1fQCs9MjtPpb6Ay30eoPoemGmHvluOXsq89oZK+JUrkvtVV/rrSSz2WtjLPqsat6JO8hwqvt5IWwt7/4+Ccmxx+wmo2vDIwmD0dzrpxpu3A6PRi1QbRrGcDad0wIeRwolAj5QpoOR5uClWZwXBRixkawmK2ZFhR5LueZ3IfKkEC3zEsLYE2HYdmwnBYM24GmG3I2UbCaI40jKSAeutfJdFx0httwOj3xuYpCNDEXBYLlHJPjj1hNLwAA269/QX/nAP58Ck031swPHpqq58hy2zDdFhRFQeSt4LS7MJ2WXJl32l10tnaQJmIQbVEUyNLk9hLJ8vXXNWYDFErk86ifP2vnUNn3qDau4btkH/IshTefYHryCbPTI4qkb0C1EGa5bditTrk4kyLPhPOgGDGhlYO5Lx3xCCGPA4USIQ9Ic+jjdSu8RZ4jXC2wnJwj9Jby8arf6XOyKJquo9XfguW2oek6TNuF3e7C6fSEMLAdBMs5ZmdHOP/wB5bjMwCZ3J8vpZ79qYa7ViulWZpgNTlH5HuYnnzCxac/EQc+Wr0hett7iEMfaRzJQKHiS/ZLbGf9WFaDIJ1OD3s//xO9nf3asFhRBqjpBkynhd72Piy3Ld3AlpMzLCfnt+6TnA9Vfveb7OEJuY26MFozYmhksqurpTrP7nOOpUmMJAzEIGWem1+dagi2YTto9YYwHRdZEsObjeEvZvAXU+RZBqvVxmDvJdr9LQB0vyPkMaFQIuQB2NhDcINLVZYmcmJ7NUeoeu5dewIMy0Znawem7SL0ljAsG93RHtqDESy3Bctt11YtxaXudgeIw+DKvCDgy8VSVSpS5DmyJMZqeoHx4TuYtotgNcfs9AjhaoH5+bHMJmVpAvdElOd588mD9iZdW7ZYFMizFEWRi6zecg7TdtHZ2oHd6kBVVTjtLrD/CiiKcvBsiPHhOwAKvNl47TtrbBxZmgjBt6kMkrNSyD3ZZOkdBz7iwJMzu6rZZcDd3PEuxZcK03FhOS34hnH9eU0eFNNyYDotRP4KJ3/9Wzql+ksxo81yWggWM2y//gVudwDdtKTTJkUTId8WCiVCPpPrVnhvC4SFO16KPM+kgPmc0je73RVZke19memw28JqttXfgqYbV8pxhEDzEIf+1YDqM/uBmk3lBYDQW+Li45/wF6KcLvJXwjI9DpHGlwN2I3+F2dkRsjRBuFqWgYCKAl+nJr8SoavZGMe//zcMy0FR5Bi9fIv+7ouyv6wQ8586PeEGVuQoigKaYSBNYmkIselYVbOhqlV6wPlixyoGRT8m14lqRVEQBx4mxx9gWA5GL9/KhY+8NJTBDfegeubJsGy0ByO0hyMsJ+eIA//rfBgiqWZa5VmK2ekRgtUcWZKsLbB4mobQWyJYLbD7k5g/Z5WlwoSQbwuFEiFfSH2F7y4/ZIqiQNOFw5rptNbmKCmaJlcOrxMtiqpCNy10hjsY7r/GYP8VWv0tMeDWsmG3OlAUBWkSYzUVFtdpEiPPMizHZ5gcfSjL/Yp7CbRm5kk2j2/YRhpHWE7O4S9nAIAsSTb2P+RZhtXkHLHvIc+zUlx8XWGgahrSOMLs7AiabsByWkh3XyCJQkxPPiJYLQAAbqeP7vYeDNMCAPR3XyCNI4SrBYLlbONe1u3Om3ytleCbzjk54PgZsal0te6Y+CNx3WeOQx+r6QUst40sfSkfV1X1bt/5xgw4DQO+FWJu1VRWFTTJ0gTz82PEoS9mu7U7MG3nXoYdT4EvHYlAyFOAQomQL+CuWaSmmDIsG63+Ftr9Lfjz6RWTgHoZ2yYsp4VWfwjDdqAoijBNKAr5QypKxd7j4tNfiPwVkjBAEoeIvJXoB0riO+233J8NYqj+2ZsN5nmWQVHVO82HqrI0wNeb/1T1T6maBk035GBgQBhPKIqCYDnD7OwIk6MPAIDhwWvkeYatFz9BVVVouoHO1o40qNj4PooCVdOg6vqVGVr3EdObaAbNt22vbgv9XIKr24Kp5/RZHoIr/UjyOqvNP2qISLXsc7yOullKEoXw5hN4swnL7r4RRZ4jqmX1m72d9eeF3hLebIzI95D1Uxia9Vi7fW82GRgBoHAizw4KJUIeCcttoz3cxmJ8itBbIM+yOwWCiqLAdFy43T5M271iGrGajTE5+oDzD39gdnqIJAqlo1I907FJ/DSzWdf1Lym1YKz5/kptwvxdRE/V4PzQXJctU1QVum6UWbltbL34CbphYnryCePD91hOzgCsD5jt7xxAN63bjRxUFaqmQ9P0K6LmIYL8+gptc1tVOaeiKNAN89kFJHcxQWmK8++dTYYOiqKg1R9iu/hFuKPV+g3vMti4ejzPRY/e4uIUy/EZ5yV9Q+56z6uy09WMvudE8/5310VFQp4aFEqEfCOaPxC6YaIz3EZnuANvNhErjOUPqOz5uSarVBRFWdd+2e+TJjH8+RRn73/H2fvfMDs7ktbj165aXvnxLYNUtew9ajhrAZAT5K8OUV0PzoQNripf/bWyRTexyZK7KAoYlgO328fo1c/obe9jfn6M6ckneLOx3EdvNkYaR6I8rzTFWE0vEPmrG99P03WRUWoe59LG+b6BQjPgXbN3znOkcYQkChAHIlOoqhrsdqd0PzSehajYtPrcFE4/WoB1XdlhnucwbReDvZdQFPVKQHrn86w0KvHnUwSr+df6GOSe1O+RqqbDclvQTfPGvrOnSP18rf7/R7uGyfcBhRIhj0TlUreaXmB68mktAF/7QWmIpaIoECxmGB+9R6u/BbvVhabr8BcznPz5Pzj5699YTS+uzGeq//dtvUlVeU5zlVnTDTEkd6PgKW4cjPitRVJdxCmKCqjV5xHicnjwGr3tfTFLZjaGN18vP8qzDKG3LG3NV8izFPOzY/iL2Z2ER9OW/HNE0trra8FyVTq4ml5gfn6CYDlH6C2QJQnUsv9tuP8ag72XsNzW2jaeKlUglSaxcHULhbGA0+7JzwD8OOV3m8RxnucIlmIGmqppMCxHlo7eh8pgRAThFgCFPUpPEE3XoZsWTKcFTTcee3fuxU0Z4ufYO0l+XCiUCHkkVE2DXc7LWE7OURQ5/PkUeb7BCKAmlqra9enxR3SGO2j1hyLbMTnHyZ//g+nJp7XXra1M3ypWRP/D+n6KwbVubwDTchCsFmsW2ZUg+dZC6C5sGuCbZxnyLIWmG0iiANOTT5iefFrLvsnANMtKpz7RzxT5KyRRePObXuNU9qWBQXMbSRRidnaEo9/+S/YxFEUORVFhWDbiwIdmGBgYL590kFUPqIpyIPFyfAZ/MYNumlBVbU0o1V/zvVMvowOAOPAxOf6AYDGD3e6iO9qF6bjy+XVBftMxqu4FaRyhKHJoui77FsnTQNU0OQvPclpXHEyfOvL8KzOc8r54iysjIU8NCiVCHplWfwt7P/8Tpu1ifPhOlndVJW7X2XdXQ1CnJ5/Q2dpB6C2lvW8lrCoRA2Bj6d1mirVMktPuYrD/CqOXb2G3u5ifHeH4j39hcXEin3dXkXRdKeHXpDKWqGfS0jjC2bvfoOo6vNlYOt0BuFL+qBuW6DvSDWiGCU3Xb/wMVQZLbQi0L2WtD6wMhMPVAsvx2Vo2soDoPZmfH8PtDWC5bXSG2w+6Lw/FlZK7MmNSZVidTh/pKL7S43BT7833wiazjshfYXL4HsFyjuGLN+hs7dz4/Dr1x7M0wXJyjvMPf2A1vbh27hf5ttS/A80w4fYGcLv9Mut3dVGh+u/6354KlQNjEoVI4hBZkoi5X05Lfp7v7Zol3ycUSuTOfKlrF9mMaYtZKE67C9N2cPzHv5BEwdpzqhVgVdNh2qLcxun0Ybc60rI6Ki22gXXXvM8NgDTdgNsbYPTyLUavfsb2619gmBZa/WE5a0iDN5uIvpxSQIhsVCH3t8hzZGmCNIkvLdAfQSxV76cbJpxOH6bjIo4CBOczac/bNK6ohJVmGMKit9VBf/cA/mKK1fRiY/O7qukwTHutp6BeZvKQ145umDBtF5bbRp5nyFNhv14UogG8ml0VBx6AzxNK1/VGfSmbtpsmMUJvidnpIcaH72SGoxrKXPVb3bTN7+Ue1Qx+q1606cknjI/eI40jtIfbYnW+cjfMc+CWzGVRDkT251Ocv/8dJ3/+D1azMY0cniC6YYoRErZ7ZXGr2XP5lMtRi0Kcu9X8vMKmMCLPCwolciea9s9P9ab8XNF0HW5vgOGLN1iMTzE/P95ore20uxi9+hn93RdoD0bQdB1ZWjnapVDV+znONakHTJbbxs6bX7H38z/FdPjSXctudbDz09+gahqW4zMoqgq71YHd7kI3TOG+lqVSHPnzKWanh6LMp7To/lalek27XcNysPPmV3S2hIHG+PAd4tAXWSdFGE/Uf8brQtPt9svPLFbi65mqClXTYNgOdMO6dKmqrp07iKVbbZ3LbamqKK/rl/OflpNzBMsZsjRFEgVIohCG5UAzjDWb8vtct81rftPr77sivPb88phU20yiEIuLU8zOjrCcnAMQNvhx4MsgSzfMjUFhfdDql/SBfQ3uu2JeF9VSMOW5ODanhwhXC6iajua8sTzPxPVfO8b1YcdFUci+u/n5MSbHH7GcnIv7xi2z254qzev7Ps+/62sek2o4bf2cqM716nGZ1cfnZWju4rL6OchzUNNhuW0YlhiwXs+0M5tEngMUSuRaqoAXivKkexy+F3TDRG+0h9Grn+EvZpifH6/1zVhuG6NXP+Pgb/8Hg/1XMEwL3nyK+dkRguUc/uKyv+khAgCn08Po5c8YvXx7ZT8Huy+gGya6o73LWvpWB7ppyexGJZSWkzNkaYJgtZAN4/WM17dEUZRaGZ0BVdNKIXH9inqaxIj8FUJvVWY5rl+9rUrurpQ3PkAQLoWLDEA0dLf3oJsWeospguVclK6tFlhNL0QjuGHda6jwTXwNIdEsJwTEcOJqkSBYzhEs50iiAJph3Lwfz3zxpm7bXWUzK7GU5xmC5Uw4MSYxtKJAuFoi9JZo9bdgak61Ebkt4KrxhaKqyNMUcRiIeWqPmOV9aL6Hz1CnyvxNjz9CURR0hjtybl4lL56y0KjOZ003pDiqhDwhzwkKJXItWZog9JbQDRNa25CDDJsOXOQBURQM918hXC0QB74USqbtYrj/CqNXb9Hb3odhWqKZ//QQ5x/+QBz6WE0vHrQh23TcK030ddyu6H9RVBWqqpWiQ4EGHTAtGLkjM0iz0yMYJ5+QRAHyLJPP/do/883AKU1isSrvLZDGESLfu3zuNa5faRyJOTN5hnC1wPzsWAYomwKzyiyiom6n/lDXTJ7ncghuqz+E2xvI7FewEj0+4WoBw7I/K3hslrBdt9/3DdTWnt/Ypum00B6M4PYGUDUNeZYhjgIkUXDreV3dm556GVJFPTsIYK1RP89S4V5YDkdeMyNRFKiqODbBao7QWyKJQpi2A7Wc3dW0Fa/er/q3YTuw3JZc2Kgyvc+RNWfJMvuyaebbddw3I/Utqcxa4jCAv5hh7+d/YuvlTzBM6zKzhFrJ8IYM8F34muWqqqqKBbEN7/GURR4hdSiUyM1sKLmTQeIzCEieA80hka3eENuvf0Eax9LRqj0YYfvVzxjsv4LltpBnGebnJzj/8AcuPv6JLE3Kf9IHWVmtAtVgORdld6Yly3PyLEVRFEJA6+u3kDzPkSWx6O3RDWFV3e7C7fZhue0rQ2+/NVmaYDE+hb+YCtevJN4oeqrV/Mow4fzjH8IZLwoQess1IVQ9v3p9Ndw3SxMYln35nC+8VuR1WOt9UlUVqmquPc90XOimhWApZuNYrfZnvd+m/U3iCHkqSrVUTb8UvJ9R7rM2DyrLEKwWCBYzxIEvz5EsibGcnGNxfgK71YGqagi9BZIoFH1j7S6MWmP4s2PDcSvyXGaGq0x+vQSvcptMohBJFEqBXy+zq/+7Is8y0S8YR1A1HW63j87WDmLfk0J002Dq58J9BNJzoHIlXFycIPJX0E0TdruDznAHmq5vXLB8SuLjOnvwp7SPhNwFCiVyLVW/hapqUjBdV9JBPh85JLLWY9Hqb2Hvl3+it7MPFAWcTg/twQi6aaEoCnjzCSbHHzA9+QR/OSu/C2GkcFum5jYRJUSCijjwcPHpLxRFIazBbRdFkSNLEuR5BstpwW535Wp+GkeiVGq1gKYbcDo9uN0+UJZfGJYtg5fHCsTyLEUcpDJTJ360iysDeS8HeeaIw8uZPpfbudx/2UNQt2LPc2Tpupj6EppBR9WnkGfZlb6coihgtzqwnNb6/t2DjSIpCmXW0nJasNz2mjX1524/z3P4yxlmp4dYXJwiWM1hWDayNIFpu6LPbTFDGkdQFBXzs2N48wl000J/5wCDvZdr231WgdgdHOrE/4tsiRCoYhFDVTVomr7Wg1axfi6XJY1lhcClOYaJVm8I03KkUIr8VSmwn59QqiOyuOJ+WPUS3sZ1z/mWmabrMlyRv4I3myBYzuG0e2tC6aF46MySLBNujqho3Mue1fVKfkgolMi1VPNzsiRBHAbQdNHbUQVmFEoPQ13YVMfUMC10t3bR7m/J7E29hKsySAi9hbSzBh5uFbUoChGcJjH8+RR2uyt7RAzThtPpoTvaleVoVSC7ml6IvoneEDs//Q1OuyvPI003pNlEta+PYRUuuC0QvPxBv6uoq/pKTKcF02nd2x78NiOHKzbAtXKqevCxKcv0JaRJjNX0ApOjD5idHkIzTGy9eIOBYd5bKNX3NYlCePMJFhen8OdTmYHbe/sP5K9/RZaW5WeGifZgJLNziqoijWP4i5ns0+mO9tDqDeR7AM9r5bqeUdYMU37GYLWAaYv+I8O00R6MAAjR43YHMN2WPC6bMklrturlgka4WmB2dgRvNinFqAPTbYlMVpZKF8jngsxel1lOQByfLEke5Bz4luV5m85dRVWhmxacTg9Opyfvw3Kx5CkPb/1C8xdCngIUSuRaqoCryMWqelHk5aqm/nRvzM+MTT0KFUKYXl6iValVJUiW47MrP9xf+kN+mfFJEfkrRP4Kq+kFVFWTJT7d0R6GB6/lc6fHHzE7O0KepWXjfYjhwWv0dvZFoKaq8gdTmjnUsjDfWizVBSdwKXDqQUozY1Rx274alo1Wb7g2++S+VPshexCuKV3ZKJ42PGcTt7nZVQ5oWZZifnaM8w9/4OTPf2FxcSqyELaLznAHn0ue51jNxjj98984//gHIt9DezDC7tu/o79zANNxoWq6tMTXTROabiBNYrR6Q3luTo7eY3Fxgt23f4f69h+wnNazKLm6qWejuu+mcSTHBKiaBtNxMTx4je5oV7oA2q2OdKO8rv+rEkvVaIGiEEN95+fHyLMU3a1dOLqBPMuebRCr6YYsOa0GcmdJ/OT6ju5KffFMN0x0t3bR332BVk+MZgi9Vekgp5d5s4fjITJLawJ9g1hqvhchTxkKJXIrmm7AtF3ZSEyR9LDc9XhWA/yC1QLLyfnGXpmHYJP4yjaUgVTOdvPzY3izCVAbVCssrDUp9CrnrqpMqMhzKGV/i1KWEn0rLlfv1bUAvCrHq9MsW9u0r9VnUTUNhuXA6fRguW1o2t1urzfa7pcrxs19aYqnTUK72s9mH1n1+qrfSDMMGWxXePMJ5mfHCFcLYVd/dozV9AKAyDClSSSGlH5GCW6V1ZifHWN89B6Li1PkWQpFUbA4P4GmG+hs7YgsUkNsViWdrWALwXIu+s0uZmXZ5wJut4/uaFc4wZWZmMfiLkFgM2jMs0z0JxUFAEXO0FEURZ5XRZHDX8zENXiH60YKpTIz0RluiyzwfIr5+TFWszGiwEOeZUjj6KvcU74mRZ6LRbzavUVkx7K159xGc7Gk+R7XveZriLH6+xuWg1Z/WPZ4pvAXU8SBj/ZwBLc7eKg3XJsjVzRK5u6yn4R8r1AokVup6uLJw3OXH6Jqbg4gHNhWk3NhE7xhztKXcpcf/TzL4Jd21GkcXRFsiqrCclpQNb20CBdlUnHgyyb1Sx56PfR2KmGjm6JHw+n0kCUJgtUcke/Vmtk371dzMC0gekjsVgedrR243f6aicNd2XQuCLvoUvDc0HsmHd/yXGZb4jCAoiile2FbiqEsTRD5HvxFVe7mwO2K4cVQFATLOS4+/omz97/DX0wRroR5QoWqacKRsfbYfSjyXGY0VtMLeR6H3hKT4w+IAg+r6QV23vyKwd4rWa6j6brItli2FA26YcJLIjF3rMw2AcJB77GFUpNNQeVVoZRKASoGCjsIVgskUQDDEm51umFCUURmWdN1MT/pjvfnytIfAJaTc8zPhRgOV4uH+ZCPRJ5lyJJ4zUgFEOXjYpZYTQA1DIrq1/pNbpbANdf+VxBL6/cWMSvJm42RRAGW43MURQ7dNOF2+rIU/otESz07DZH5VwrlwcYaPBeu21cuDv/YUCgR8gSp37Dr2YLQW8KbTz47SP0SqiAhiUIZiIhynfrAVdGPZLnCaW1xcYrFxSkmR+8RegtkZdP4ZWD3eZa2X4qiqGWvVR+9nX047S7SJIY3G2N+foI4EAYOSRggzzNZnideW/5o1gIkVdfR2znAcP8VTKd1rx/Wm567qRewXpqnKIpcAQ69JYLlDNOTT1hOzhH7HjRDZINNp4VWfwjdMBEFHpbjM9mjYrlttAcjtPpDFLnIVszPjrAYnyLyPSmCq89fHafPDa6LQrh5JWGw5vqWpQmC5Rxx4GM5Pqs+LVRNg25aaA9G8lqoevZUVWTxNN2A2x0IO/RGj85tx/gpUIncoswkqaoKzTChqmoZHJ+VVvBb6Ay3Ybc6soer6sup3yeaVtH1zJ+m6zBsR/YNVtfyc0VRVeRZhigQVv91Z8D2YITOcBuqflkuXnf/S6IQobdE5K/ulnWqXfv1/3+oO1h1HlSomoY4CjA9+YTV9EIM9M5StPtbyJJkrV/4rvfRm0rhqvdkH/I6NK/6saFQIuSJssn6NQkDBMv5owU3YnUzvVKeU1mHV7NfkijA9OQj0iTG4vwEq9kYcSCc4+o9JI/lfqdqGky3hc5wG4O9l+gMt5GlKWa2KyyX81z2h1SBi/x3+fq6s5jT7mJ48FoMAv6MbNK1lOWu1X9v+rHOshRBOaDYm00wPfmE2dkh4sCX34dhOXB7QkiE3hJe7ftQNQ1udyAySgCC1QJx4F3JIgHrhgFfInCjwJOBbX2VvrK8hrfE+Yc/RKau3YHb6YvSRlMIoeXkHN5sgrj8jnRTGEs47S6cdnetlPCpBzlVcCxKUxWZwa/cJL3ZBOPD99BNMTzY6fRg2o7sV9nYX3ZNzxogrmHdsIQzottG6C3kbDNAQVHkz6a3pyqXq9+TFFWFYTvobu1i68VPGOy9rFVFiOdWw7Ajf1WWMYrrIY2jy8xelsoSvmrba86veS4F00PRzFQBQBIGa2XB1bU4Of4Iw3bKa1csTN03s1RfdBEZuQy6aW0s1/3RubFEmnzX8Gog5AlSXyWsTBweuwm2ctdr1vJXwURVgpImEWanR5ifHSPPM6RJjCxJaq/79uV2TaryQLcnhubqpoUsTZBEIeLAl4M8q7K3ZnnNmtmDosJp99DqDYUl94Zg5XN+WGXQc0vGqchzzM+PcfHpL9FDWLqAVYFWNV8riUMxrDTP5PdRfXfBcr62Ir+pT+Wy58lAezCC0+nd+zMB4pyJA1+s4pe9bFVWoP6+cSCGKFdW4fOzY1kWuZqeY3Z6BG82lj0pTruH3vYe2sNtOSj5qY8zqETNZV8SytlUtezdfILl5Ew63sks5oZyu8oJbVM5Vj27ppsmDNsR5gerS3dH9Y59dU+J5rWm6QaGe6+w98v/Qn/3AG53cOW7rzLhWZqU56KHJAoQB77IbJbliKG3LO8HQkzWHUaBr+eCd9MYhTzL4M+nOEn+hTxLsf/r/5buk3cRSnWHRVmuG3hYXJwijSPZH9icy0UuqY7hc8lYky/j+d0VCfmBKYpySOojrfjeNJOnyHPkAIq4kNmK5mvXnv/IP8BViU4al8Lu/Biz00OspheI/NVaD5imG0J8yBVYITZUXUdnuI3t17+gPRzJ4DXP13sM7r1vtR/gTSVU9bKYLE2wmo4xPzuGYdmiZ0XVZFlVfRBuHVXTpDlFva+jSfN7s5wW+jsHaPWH9/5c1WeqBGmepWvbr8SbqmnScbG3vQdFVeHPJliMT6Udff07yrMMy8k5DMuGabvIsxRudyDnzVSDhVVVk0NyHxO5CLJm3iBKVxVVlX00SRjAm42xml4IQx2UpWa1DIBmGGL47z2yG6qmoz0YYXjwGqqmwZtPZI/Pc6PuEGfYDga7L7H/6//G7tt/yEzLTVSZuepekCYxwtUSceCVZXmin8+bTxD7HpI4lKL+W2XE62W/eZbJPkRAkbbhpu0CqnpjCWb98eoaSKIQ3myCydGHshS3BZSinFzPY/9+kW8HhRIhz4gsTR8toKmvYDdr6eXjeY4C+ZXXyOerKmTj9COW9+RZhtBbYjW9gKKo8GZjnL3/DcFqIQbqNo5vZfttlkNc49BHHHgwLAejl2+x9fInGch+yQ9ovbStCmSqEqwizzeW31VOZVU5kXx9I3CuRG49C1g3aqmCvuua06tBp3arg1Z/Sw60vSuXjn3lanmelUN51xvpL8VmJgf9VmVnceBjcXGKJAouxaSqIs9Fs3uwmmM1vcDu239g75d/SnOHykhEVYXNdtPl71uyni3OkKfp2jDZKhgu8lz20aRxdFnqqSgiw3Z+AqAQ85QcF4pirGUBbjoPFUVBqzfE9qufYdouJkfvsZycl8H3c+PyemgPRtj75Z8YHry+MuOrfkya/TeKosg5b7ppXWaGy8WU0FtiOT7D4uIUy/FZef37SOJQCtaHpF7WW99HRVGhapflkUkUYDW9gDebQN+xoH1GSJcmogSxKjWueuTI3WFZ3vcNhRIhT4Tqh/ym5twsiUV5yCOv/FY/5LppodUbwm51kOcZ/MUMwXImS/EEl6V2T6X3Ic9SBKs5vNkEhin6doLVAkkYyJk1pi1m+bjdPlr9IdoDUdJVlaokYQDDdtDfOUBnuPP1nSEbwV1eOtzNz4+lA2GVQVJ1/U7HulmSVp9vVSfPstJMoI/ezgHaw9Gtc6Lq53J9O95sjGA5E3NuGoK7GopalRQmYYB5aRleOcFV21FUdU3UZWVQOzn+gCxLkcYRuqNdQFHgz6fIsxSm46K/+wLd0d5nB4ObxOx9bJSbAbtmlIOYy2teURQpCr355LKXrJybUxQFIm+JydH7cjaSWwql+xmI2O0uhpoGtzeA0+lhcvQek+OPiEN/TZjduq1alvlrZlius++uzGQM28Fg7yVGL9+iPRhdKVW+zeSjGlVw9Tp24LS7cDt9dIbb8jsRDpmxKNEts7IyS12OG4hDX/Y8Nj9LnaYwqvdFrn/u9X7JNImlU6emG2J8xHImrxXRb2RcOWbr560C3bTQHe1CM0zY7c71X8Iz4Lbf0DprJeR3eK58zi0l0eT7gkKJkCdCZV1bBUxyhb2qV681u+fptxdKm6xzDcvGzk9/w2DvJdIkFrbS72KE3lK+5in+nuRZVh5LkZmwWx30tvcR+SsoigrLbaHV34LT7qKztSNtxBVVRZYkSBORudF0A5ph3liSCNzffW3Tincz8Iv8FaYnnzA5+oBgNRfZibIcaFMZXbO/4rrHgOq91jM9umlhsPcS/d0DGKZ9r34IQJy//nKGi09/YTk53xhU1w0zxOtzTE8+IktidLf3YLe7aPWHIquSiexqvW+uum7mZ0eIfQ+t/hYA4RZZFDncTh9FUcBy27BbnVu/s2vLTMtrtdrPTc9TGtdx+cK1c6Ea3l09V3xvooyusknP0gSm04Ld6kijkMj34M0nMCxHZsruSv39LbddbrsrMzCzsyN45XG9C9XnqPcp3mfo750FWZlRubynKDLza1g2ulu76G3vi+t0Qz/npu/oPsGxYTvo2Q46WzvlPSAWfU5lBrrqn6tGJviLGRYXJ/DnU3F9rvU1Ngw4Go9vuiaB4so1Uw0Cr94/Djycf/gDeZah1Ruiu713OZC4lpGuv79h2dIdsHJCvOvxqT/nKWRS6tfldf2Jn7O/9WN22/n6lI4HeRgolAh5SjSCz/qqdxpHcrX36jyib0OVbahnlDrDbez+9HdkaSLsp30P2fEHWZKiPNEZXEUuhlSatnCE627vyX02bAdOW7iLiWDycsVeN0xYuFp2Vs80VNz3x/K25+elcYE3n2B2eoiLj39ievJJWLYnyRet6F8GtwUURYWiapcZKk1DZ2tHimKjNqPopmCqOn+zNMVycoaz97/j9K9/w5tP7rw/ke9hgVOkSSyDPt20gBhl2drV4aAFxNDcKPAue5TyHKG3FJkZVUN3ew9OWxhSaIYhh9s2M2F5liHLUjlAufpbfocAf7MjXdkzlougrjIRUVQVpi3KAvM8x3J8hvHhe+RZhuH+Kwz2X8Ht9oVZhyEMNUxbzMhS7lhyt2n/FEWB3WqjM9zG/OwIk+OP8jyqhihXgfh1AftNc8fuS7NEtHoMQCkKGmJB09Db3sfeL/8Lw4PXD1pWualUT1XNK/eAykSj6l1Mkwhx4GOw9xLefILF+YnMYEf+6jIjeo3hRv1YlH+Rn7X+nDxLRdnwu98QekuEKzGLDEWB3s4BTLcFp90tN7bZ8lvTDemOuSnDclN25qmJgqpfrZnpXVucaPRwNXs+mzQzx4WiyJ7CTdf3pteR5w2FEiFPhHrmCFi/yceBj+XkDP58+qhmDhXVyrFwuYuR55ns42kPRvBmY/jJ053PUjnDGZYNzRCDZw3bkUGWqulrJTi3ZR7uGpx+SWAhmv9TxIGP6fFHnL77D6Ynnx5kWGg9aBNldpclQKqmw+n0sHXwBsP919JG/D5UwdzxH//C7PTw3q+PfA+Rv4JuWrIXTO53kcvvoHldVD1bdavl6fFH5GkKfzFDd7QrHRDtdgeabqIocjHUVVXlnJ00jqAbphx0WwVc1Syrm1hbzcblyn69/yVYzmFYNgzTlvu5uDjFanIOp9vHzpu/yWNf9YntvPkbdNOU+wOsZ6VvonpeXohBvkkclaWbKVD2t+mmBbfTFwOZS6MD4HIOUdU7JRZtaosD9yxprJdP1p0xFWVdetV76CrEd9LH9ptfsffzP2RP2trnfACuCJjG8a3u3aqmiUHBhYtWb4jB3kuE3gqLixOsphe4+PQXZqeHIsN5TYb3ynuXz7t0QyxQHZksTbGajhGHASbHH5FEAUJvWQr5UmDvvljbxyZCfG0w2qk+8zMK9m8SPE3SJJYjEHTDlIJxUwm8MIIpv+Pyuq+/J7D5XKNY+j6gUCLkkbjuJro+YHaF5eQMs9NDLCfnmJ0ePsqw2YpmMBqHPi4+/iUzS5uczK4zfnhMNN2A3epA1XT4iymyJJb9Rt3R7r22ddOq4nV8zg9o1bcTekssxqdYnJ88ePO97Peple4Zlo3hwWuMXr2VIqkeTFy3r8BlH9X5xz9x/Me/sLg4vd/+FCIorPZL9nsoCvI0RVHka+LzpiNfBeRx6GN2doRgtcD87AiaYcJyWzAsB3a7A920RFantE33F1PEgQ/DsuH2Bth68RO6o10x9PYWUdAMuiq7/MrQosrYaZoue0qqY5ZEATTDQG97H6NXby8zA1gP7O5SAnnlWFQr7xDfUbAQJZGryTnMsuzU7fbR2dqB3erUygIvhdLs9BAXn/5aE+r3FUn1112eSyJrtbY6Xx/CWhpyqKqG9nAbw4PX2HnzK5xO//L5t5yfX8ptZZn1v9mtNjT9JVp90ctptzo4e/87vNn42u3XF6Lq2wVyVOYV1bUBQMw9CwP5HRUAIm8lBjiHAQzLXtunpo183QRECgTxwI3H8qmJgGY2vxI0m67TyPfK39MAptNCu78FtzeQf69KEDe9thJLzcxb/d/V/lAsPX8olAh5ROo30fpNN89SJFGI8eE7nL3/HZOjD1csq7/5vm4QO0kU4vzjH4j8Ffq7BwAg+ipq2aSnJpIAEYiYjgvdNEX5ynwCzC/r9ZslLvJ1twiDiocow9tEmsTCqng2QbCaP9ixrVbxDcuWK8jVfKPB3kvsvf0HejsHVwbP3rbNyqVucvQe8/NjmaHaVL619toNjn1V4LhpoUDaJ29w7FvLUmgq8iyV9sqLixMhjEwLWpk5s9tdue/BaoHQWyCNIyGu211Evoc0jjDYeynFyo3UeibWymo1DWqmwbBskYVwXGi6LvuP0iSG5bbR29lfz5QowqGtCnKvfBd3OM+kcMsyJGEgF2HSJMZw/zV6O/sicOwOLsssq3tTnqEoCplpuvj01xc7v61fG+vZQfH9qdB0HabTQqs3hNvtSxE5PHh9bSbpawWpm3rPmu+t1Ky6DcuGYdlw2uL8UjUNp3/958rssrU+pkYJYuUaWn2c+vERmeD1DH6axJhfnKB9/BG9nf31THAVwAPyfNmYGd/Q27P+5xt6+G55ztfiyn4WYhZhnqXIkkTYu6cpJscfMT58h9BbwrRd9Hb20d3alftc3ReqUlkAsNw2LLcNtfxuq1Lo2xZpHvN4kC+HQomQR6J5w0xLRzugEI3A5yc4//gnVpNzBKvF2uR54NsLkE3uVpWF8WJ8KowQynIlIeie8JyJMiioTBygKEjjSAxR3bAyePXlV3/4birB27QqWZVtXddk3nw8L4/1Jvvyh0AzDLidPtzeAIqiQjdNGUD0dg5EOVrj2FSB3HXHKg59LMdnCJZz+ZiwGb99/69reL+OeoBa30aeZfK1qqZdEVPCXj2DbprAUuxzlqbSRbDK+oghpQXGh+9kr+DWi5/kcNtrP0ejVKx+HE3bkTORqmGvSSzK/bIkkdmtCrlCfos4u08pqL+cIVjOoSgqhgev8fIf/y9pXNKcz1QUBbTyPtDb3i8zyBnmZ0eynKz5mTc9tmk/rrufaboBp9NDezBCf/cFeqM9WK02VFWDYTv3tqn/Gqydc7g8/nmWAbWMjapp6Ay3sf/L/4bT7iFYzWVZqT+fyt69yhDDtF1Z5lg93nSklM54jfM6SxNMjz9CN8Rw4bpQqi8E1a/leqnZ55YHPxXq5XJxGGB+fozl+AzLyTmycpBzsJwjTWJomo7V9ALnzh+y9NS03TLDm0nhVLkqVsdSVVU0z9qndAzIw0ChRMg3ZFOAnUQhguUcq9kY4WoBRVXFAMDjD5ifHV27yvitqf9w1n+UKxvnJAzWn/+EZ3HkWSZs1tNUuH61O0jCQPS/3KNp+baeo6YhQLX6qOnGWgP+pnKNtdeXwbS/mJUDcb17fd5NgWv1uKIo0AwTpuXA6fTQGe6slQk5nZ50W2t+rvp/NwOsqt9J1TT0d1/A6fThL6YIvSXi4D7ZB1GK1QwEN1ksXz3nlIY9cllaVPUiVOdw6V5W5DmKoLg2c5vGkXAyK8s10yTG8ED0Dm0yEWiWO1WZg7TMwFTldrppyeeGqwWW4zOkcQS3N1g79pWxRvM9NvXQ3PkeUT5PM4zL7Fop5jad79VjTqeHnTe/lpkeF5PD92uB/pW3uUYwrZXVaRq0UkxWw4Mtt432YITuaBe9nQO0auVR1+3bbQL+Idl0nKqyr3ovWHWtGZaNrRdv0OpvIfJXCFcLRIGH5fgM05NP8GZjZFkK03LQ6m8hTSJ4s4mwbN9gZlG9n8iYKvLveZaKOXGqKl07DcuWgrx6XXXdZmki3VSr76Ga4XYbG7Nr1ywCfYvfr/p7VJUZp3/9B4uLEyGUaoO4ASABpFNrRWVwkaWp6D0zLYQrkV3u776A2x2Ia37Dd39d39KmxTRmmJ4+FEqEfAU2BdDyJlmrDc+zTKxkffgDs7MjRP4KhuWIoHg+3Wyh/EgrVtf1DFz7/CdYcleR5xnC1ULO9BEIR7I8z+T3s+kHr77y2vy7/IFuZDfSNEGwnCMKPGi6Ia14q9deeX1jm1Uppr+YYnZ2BH8xlduvl+dsol56BgBQL78bVdVKxzdhaiH2JYfT6aG/cyBNL+5CFWxJU4g0hW6aGL18i923f0eWJDj583/w6d//3yui+sq2ZJmRgubsmJsEeDPjqWgKdFOUPWVpUgrM2rXZmFGTJrcLOGEBHZe27AuEqwX2fv4n2sPtjY5a9X0L/RW8+UQIoSSGabvojnbR2dqRrntx4GM1vZCmDXrNjU/0ZKlr54bc//r33whS167d4rI5XVEUOJ0+3K4Y1Ds/O4aqaqL0bjCSZUaAEHpNwxm71cHo1c8wnRayJIG/nN3rum8+VxyPPbi9AdqDkRTqltuCbljQjJvPxW9V4nTbtuV3X5WEbni+aTvQTVP2gPV3DtDZ2sH0+KPI8KkqOls7yLMUhuUIg5zF7Mp2Lk0eNv82JGU2xen04PYGsFtdmSGpFgxEmelczIazbOmkqKr3cxCU135lWV+7n9XP1Xr/0HXb+RLqpaWr6QXO3v2G07/+jTSJr4ik66juZ+LfQqCOD98jWM6xnJxj9PItuqNdOJ3+tb2KzWtQUZQr1yl7mJ4+FEqEPCCbVpCA9eC6vgKV5xnm58c4+u2/5MwUw3agqhri0L+6/UcUH09Z+NyXIs+RlU3zke/BbndLe9yrP3jXCdNrRZL4H/m3LE3gL2aYnx9jNb2Qjmq97f21JuoNb7xmdSvE3RLebIw0jm6d3XTNJ7/yiKrpsFptueosAufBlSxSVecfB6LsDIoiDA00HVmaIFjOEIcBNN0oB/Y6MJ0W9K4pgxbDdu68z5VY+tLzrspIJFFQzs8KZHBy+X3frWeq2pc8S4Udc63cbDtL0RvtyYxP9ZnTJJbOdouLEyzHZ/Jad7siO+J2+zBMSwStYSDOyVYHrf4QhnVpxX6neUnK7XbH8t+KsAZvD0YYH73H9OQjguUMSRTCclqw3Pblc2uCvspsKaoKp92FabtIImEm4M3GiENfDsq1212oqoYkDq/0MlXuelX2pLO1g97OviwBrfq3mvt/Wyb3W3OXktvmfqvlcNvq89mtNux2F253gNBbCMv48hwS5/AWvNkE3nyCcLWQc5su37+2/dr7Vo541flWldaatlPOv0oRBR7C1QKqptdmUd1eEdDMDhW5WGgS1652KVhq7pDfKpuURCEWFyc4/es/OP/wx5WMEXB9VrrqCavvaYFc9jZWVuy97T20B6O1CoHKTdWwHTnwV60taDUzUOTpQ6FEyAOxqYG4ucLZXHkq8hzBciFKedJE9G+kKXJ8+4GyPySKIoK1so6/yp5sqte/rbyu+VgV5ES+Jw0YZqeH0hTAaXdhOq218pbmyn+1ZVXVxA93rbG4nnW5ieoHf5PRQZWJstw2+rsvRGajbDyv70+V1fIXM0yO3mNxcSqMBrb3oagqwtUCi/EpwtUSltvCYO8lBvuvZJYk9FaYnx1hfnYsnOuKu4mf+4ikTZkmVdNh2qKkUDdNaYiSZwkU6RiX3xi8rQnShpW1qmrwF1Oc/PXvsq/BWTMWqJdUVWU/ov8olvtXrVpffl5h2W255SDY0kyhylBct0J/U/biSnapFOHSbKA897NEZN3iwJNmBNXKf1EUQGN0weVx1jDcfw1NN7Acn2Fy9AGTk48o8hzdrV1YbkuUF08v1gJWVdXQ6g0xPHiN7Ve/yJLPqj9q0330OfWAXLev12URdNNCf/cARb5Xzko7AgC0ekP0tveR7keYnnzC+PAd/MUMcehfEfj181VRhXmJcL/zYVrOWgCvKKI3syoL7o52Mdh7CdNprZ9bN1C/19XLi+vUF4S+5vdXL2dfXJzi9K//4PTdpWkGcEtGumYKA6wLp/pzhJPnH1hOzmC5bTF4XNcBKLK3s8oUt/pbUMv7ILBZPD814U/WoVAi5AvYdNO/EsDcguW24HYHCFZzpHEsh8l+Txmcp0ZVUma3OnDaXTidHjTDlIG9fN49vsf6a+pZoDSOkEQhIn8lm4er73b08q0YIrpJWK/ZxC8xPfmE+dnx2myg+/6wNn/0VU2D5bbR3drFYP8V2v0tQBF9Pc1ZIWkcYzU5x9n73zE9+YT+zgGcTg+RvyqFwCnyLJV9JYP9V8izDN58gvHhO5x/+BOr6XkplL5NsJtnKeIwEFbbugG3O0CeZfAXM+RZClW7a+BdHedmxjiXGbbqGHW2tkX5bJldWVycYnZ6KN8TEAKpO9pdsxqvSpaEeUEfTqcvbLA39JRU/722h3c8FyrxI8voShv0qj+yO9pFd3tPZrKu9JQ0SlKr893t9mHYDtqDkSidG46QZxkG+69gWk55HrzH/OwIWZrAdFy43QGGB68x2HuF/u7BjcNin5NAugubelXUWrlbZ7hTztpKYbkiu1ctaqiajunJR8zOjq6UsW4yfBCOeqkorYuEsYOiqEjjSJbx2q2OGCZt2bfa3l/7mWqZmDgMUBQ5DNO+mkn+CpmV+vZXszHO3v+Gs/e/YTk+A3BpYLG5l/GabW5w3wTENZNnoi/Xm42FqK8ySpoOzRCLMqqmw251rwyzru9zfUGOZXhPEwolQj6TTb0ktz2/GjJZOWhlaQKn08Po1VtMjj9iNTlHVs6HIV8PVdVglVbDrf6WLDGqqOaM3FeMbGpUVsqsVVVukywDTI4/XAaVDaFUF2eVIcJyfFb2sR3KWSmXfUd3sOqu9SkVNZ8my2nJwNjt9GU/TLUvddIkgjeflGYSK3ke+4sZZqeHiPxV2QCuyV6lKPAwPnyHo9/+C+PD9yJ78w0XAPIsQ7CaQ9U0aXXtdgcik7vBSXITRZ5D0TY4E9ZKc/Isw+LiFMFyLvuKRO+HB38xWzOHMGwHg92X2Pvlnxi9fCtWnGtzWQzLgdvtw3JbZdlSBrXQrpyHsuehkcGu7jHigymy9Kf+Onl88lwMQv34J5aTc9itDl7+8/+NnTe/wnTcchOX71G/HurBXbV93TDR6m/BbnfRLwedVg5hrcEWVE2Hbpqlw2QfvZ19DPZeylX5TftYsena+p5oBsmarqO3cyBtw6sMUHe0C2HqkCLyPSiKslamB+BKBgSoyv102K0O3E4fUBRZSlYUOVr9LXRHezBrLoL3CtwbJeXVfcLtDtDb3lsrT/uaIqkoCjncdzUVs6rE+17eKzfdg+6UadqQWQbKnsgsE32OiIDAg2k76I72RCbPFgsnaRKX2SfjyrVU33+KpacFhRIh92RTmdSm0qwkCpFEIeLQF/8O/PKxAGkcy+dlaYJwtRSOQ3I7N89lIF+Gquuw2105WFNRFKRJjNX0At5sUv64uRjsvYTb7cvX3TTAsGK9lEKFYTtw2qKRejE+FT+6ZdDZpJnBKooCi/Epzj/+ienJJ9n3Uf1NUT5vpV3VNLQHI2y//rVc0X+5tuor54PUZsHkqSi9q/pyIt/D/OwIy8m5tP8uCjFvSAQRl3OUluOzB7O3v9H5rmZqUTl3FXmO5fhMGqW0ByNsvfxJ9grVM3zXvucdjnEaR0jjSNjk1wbKAqJPyun0ZN9Rf/cFBnuv1hzcREZBk70rwjRC2MFfVxJaPVbfh9X0AvPzY0S+B8ttwekI0SWc9dSyr0xDkmVYTs5x8ue/cPrXf5BEIXbe/Ire9r40GGgGbZsWAUQmLJd9GIqiQDWtK9nZVm8IRVHQHmwJt0nbgd3ultmN68tav2dxVNEs267EZ5VhKvTL70HVNDidnjiPQlGmV/XAhd7yimNj1U+marq0uc/zDKqmw7Bs9HdfwHJbGO6/LsvuXPnaz8lYA0AWh6UVt8jmdIbb0knxa36feS4yvMFihqCWwa0WO750kWbTvudZtvGeFnpLzE4PURQ5Zm5bZp41w4BhOVA1UXba2dqR5bW3vRd5HCiUCLkHt4mkKksU+SuspmMEyzmC5Uz+kKVxJG6YiSix0zRdltY03Xg29ZSQ+7PpR0xVtbKcRayeFkUhS8guPv4JbzZBqy8COzEIVKzm4pYfL3leVEGmqsKwbNjtjhxW6HYjtPpbGO6/WgtKgKsro+FqgfGnd5gcvUfkr9bfq9FsfDfEK5x2D9uvf8HB3/6PdFyrMhrV5yyKHKpyOWA29JZiH4oChmUjiUSTeFyr/6/KGU3HRVHkCL0l/Pn0MsMBlCKikPvezNqt9+ts/vvaddLIplTopoX2YCSdr8S1OEd7sFUOFdaRpSn8xfTWQc43rUA3/yZW9cXKvmHZaPW30N85QHswQnswku5jzTKzywZ/0etQufQZtiMCqQ1BZl3I5HkObz7B+Yc/cPLXv+HNxnC7A3SG23A6PZi2C1XX4bR70E0LcehjcvQeR7/9F4LlHN3RHnrb+/KcrAJAKc4a38/afS/Pr7riFZfuntU/rd7wynDYTTTLk77noHGjAVApPoGGOJaLAOJ7VF/oMG0XobeQ5a+VWCrK61nTxXMUVUWWJmUvjXDdM2wHbqeP9nAb7cEWnHbvs8c6KIoCTdORFUm5qDLF/OxY9j/qplVzsny477N+DWRJLN0Bs+zS6lyUyt1vIPK9+iOr66D6//JYz8+P4S9nIrvue+XxN8Riha5juP8aeZ6hu7UL3bSuDDpnZulpQKFEyA1caSIuf/yvyyh48wnmZ8fS4axqHk+iUIijNF0LGhNc2rtWzkXVez1lkfRYQ2+/hLrw1HRDWOAqKvzFDJphIPKEEKka7BcXp9AME5ohLK41Xb97EKGsO4/586mcjVNlckav3q67imE96K8HvfPzYym86gKiefxv2j8x00gXJgw7+xi9/HnNlrpq8K/2Xy1dq5IohDefYHryqXTbSgEUSJMYkb9aC0AMy8bw4DW6oz3pOlVlbS73Y92oRNMNYUXttKRDYNU3UW2z1RsKC+qy76d6X7FSfOkyVze3cLsDjF6+BaDAbnXgL6Yyyxv5HpxOD8P9V6Ik5hahdB2bmr0rVE1DZ2sHu2//geH+a1huC6btinlFG5zcqvNFmE90EQe+aNZPUylY1iyVG30e1TlbDalOorA0Z1jJ5n1AlFtqhok49GXP3GD/Ffbe/gPbr38Rs8RwzyCtkVFXFEXu2123s8kEpxlUf4+B48aM3YbPWT8Oummhs7WDdpFD003EQR+GJTLXkb9CFHjityZL5eIFAJn5tVqiL7GztVOWebZFoL7h/nGj0UnzO1fLwbeFcJ3zlzPMz47LOWo9aNDXvtO7ZCs3cV15WhwGWIxPxSyq5PJ3tt6fdB1f8lu2aT/TOC7NfFZyAVUOB1bK67mMB8LVQpYGG5YNy2mtzUv7luV43/OixOdCoUTIPan/mOdVXXIcIfSWGH96h/OPf8pJ9XehvgJNvg1iZk6MYDVHliZlZkkpy4OEZfFqeoHl+Axn73+D3eqgs7VzpybnZhlmUYgBpnmewe0O0B3tYvv1L2tlV1dKnPJcOMldnCIOfCiKCs3Q1/pPqsDkLvOFKjTDQGdrB9uvf8H/n73/7m4b27Z90Y4cCWYqy6mq1tp7n3vue9//Q7zW7j3n7BXKdlm2IjMJIof3x8ScBEBSloOCpflrrVpZEkmAIAiMMccYvbf2jliSlCZJZft0Zib0VpjdXGBycYbRlw/w3QWAvKgKbW7XdNroHr6C09tD4C5IFcpfVdrh6KyAKMnEjHZwhO7xa1jNDuIwwPzmAtOrL/DdORRVR3NwiPb+MXS7wapTuwx3ybEngZpm2sSTx2nB7vSwGBJp7tBfYT68ZO2Gd/WJqnNb9VeSFYiyDKvVRf/kLdr7x+vn5Wsp8rLpMN1/1bBgt/sI1AVpxZPlapBUCqbLv6er6fMhURYEUMi2zyv7TY006WN6x29w9Lf/yc5J1tZXqmSUj2/lGHyDsMRdArCt1ZUXxK5gmCXIxd8lWYHirFsbFU2HapiwWuQ7FAc+MzUWJQmqbiLLUviLGRPSaPYP0OgOtibtd6X++a+/fxlLBBajK4w+f4BhO8QSQZIqj69s8w4iD/U2xTJx6GMxusZqPkF9zrd+vfyZbKiJZhlyZBuLQuW/AcBycoMo8ODNp2h0+2shnP1j2J1+pRrLeTx4osThbGFbAFC/WCUxUQGjsre+u8BidAVvPq3IkT5HbjM3fUpVpl3JQ+i5GH3+gCxJ0Dk8hem0oBoWJFkpZkgOMb+5xPm//l8shleYXn2GrGqV5Gbr9rYEkmQuo8eEEuhcRv0x9efKqkZU6ACohonIX8F3F6BD21Teuq5wtWu/cpBh+/b+MbpHr1lfPPM4qd2UBUHAcnKDqw//wOz6HKv5BGkcQRBEqIbJJMRpq4+kqMSHyWnBsB0id1/z/SFy3SbiiPj0tPaO2FyMapjI0hRWi/TtR74HRdPRHBzAanUhCCKG+XtIkrwRBNHVYrZyXAy7E/PcFoxGE4qqI4lC+O4c7nQJ5HmRMNxufvs1tp3veZ4hjWPyX1INluqfGa1UU88sVTfQ6PSh2w3iPaXqLHnJS58V+1yL8ydLUyIEs+P7J6saqSxJMrIsRRwGkFUNzcEheidvYNjOlvexnpnhPB5f+wxESSKeZaqGNI6RZbTVLAcgsPYzu9Vlyoqqbv5QklR+fPnaRbctSjJEWWaKnbrtkGSumFXbeJ07JsmVVttaspTGpDpcnjt8yucurTiRSvoUgihCtxpIopDM0VqNW5UgOQ8DT5Q4nG+ABCMxfHdB/EIuz+DNp6TNzl9tSLU+d4RSz/lTC6jKSdKmJKzAAmvdakC3nY12B9Npk4Tqy0eMPn8klSbl71AN85vaiQAQueR2b/u8Tb5WDSvf+HWrgfbBCXTbgSAImF6FQE6qOYK4Ofx9F6jan241qiu3tXbSPM8R+R6mV18w/PQnVvMJ+5tuW8QctENksCN/xXxaBFFkgYokKzCbbTS6AwTuAqpOVryNRhNR4EMzLHSPXqN79KpibqvbDpzuHrIshSAIUDSDecH4C2KGWk4GKipuxVwNrbzFYYBgtUAax/Bdso9R4CNwFyS5k5Xvbru7DfqZks8yZ+IYdDV9YyWd/EDmfKT1/FyWbW+t3FWx2aYqSM85RdNhOm2iMKcoCNwFFM1A/+QtS8jLr7Xt35zHY1c1r3yuiaK6M7C+rX3rRz7jba8pqxoanT6c7h6mV5+xGF0x3zFaPV57D60Xcr42A3obWZYh9Fck8YjjyqLdU1q8q5OlKWmzLYR63OkIoihBtx3IRxpPlJ4APFHicErsaiUByIXYdxdwpyNMLz9jdn2OxfgaaUJWjl+apDedraLJBZ1deSpsa4egGLaDzuEpDn77T3QOTqEU1ZVyMCErKgavf0eaxBievcfw7D3sdg8t9ajSPnIboigCubRRrSmr57FB7XJLiSgWsyICG8ymIiDMc4eqyDHj1B39/CXRhzSJmbCI4bQgqtrG+8gyUo3xljNialmquNCVaNpG0+gOIMkK3OkIl3/+H/iLGaZXXyArKvHJabTQPXyFPM9ht7ssUE+isFDvqkqSA+S7p+gGRFFk7ZHUQ2py8QnecrZ+bEn2XJAENrdEj2McBrj5698Yffm4FlMJSEBCVep+JjQ4EwQBsqpB0fRbW/s2ZlJoW15xrpST1+9pv6GVhBykAk5koDtwenuknVNWYHd6lXOP8zTZ9R3/2nlR90Mr86Oft7ildVRWVJhOC83BIXx3gcBdYDWfYDm+wXkhONI/eQunv8+qS5WFg3xthnyX/aOze3HgF3LnK9b6R+cXn+pZvWvW13cXWM3GaO0dPsZucWrwRInD2QEdwIx8j6h3LaZYzYiPDBlSH2/tQb7L4OhzQBBE1htPVdHuY3X+Z0IlcZ3+PtoHJ0TMoAjKgWo7hyhJaPYPEK5cTC7O4E5HzP+o0elvfX36/Iw61IsiaUHZ1h5XS47K/fn0Jq+ZVsmXh1QL6nLW9XkXYPcKahwGmN1ckNkZRYGyJVESRRGhF2AxvMJqNmZVUkXTiXJbpw/DbkIvjHoN24HptMh80fASiqYX70uA2WyjR4OnJkmSds15ldXuqEHvYnyN5XiI2fV50d463/HeyHMlWSEtZooKVTMQBz785Rzz4WVFWp0m9z/re7phTCmQFhrDaRWy3GTFfJtgAXn8dkW7LE3Z94q2O1IJ8fJz6XuiM01lwRi6/UanX1TwiMmtoulsqHyXeALnafG1pGjnjFdxbdl1/v2M/SpfO2VFRaPTR+i5WI5vsJpPkEQhZtfnCNwFQs9FczJE9+gV7HYPqmGRRSNJWrcC3+E9soWnYmFnOb5BVMxECuw7Ijy5lvAyG7OmglgSDuKzSU8BnihxONheSaJJ0uTyDOMvf2E+vITvLojR5o7qSbk15rmHG6IkQVY16JZDZh4CH3HmP5mb0rbVOllVYbU6rPUj8omqmG47UEs+QuXzwXCIMebs+gLzm0uYTtFGVws86LbiMEDoEylYzbBgNJo797ESrAibaop5nkM1TBiNJjTThr/clSjcrsBWbkdzJ0PMby7g9PZ2SjVHvgdvMa2IJmimjWb/gLUQEsPLtaJa5/AUVqsDzbAKiWmB+TWR6ohE9m2b91FpTisu/KyuPvwD13/9C5HvFea2tVmf4j2VJXlNpwmr2WHzOEkcQRBFOL19uNMRAndBqmKGCVGSkaUJUaT8gQR/m3EknS8wbIclKmXq0s/lYX0msV0kSaPPH7CaT0grU28fkqJAM6xKuyIAZmQpSTJompTnRMrdaDSx9/oP9E/fwe70IUlrBUe2zztMaTmPx/dUEbcKI9Tmeuhr36Y69637Vq+Mi7LM/MMU3WALLlHgYfTlI5bjGwTuAr2Tt+gcnrIZuXqVqv76wPpaR/chjWPinbScs0UCKmTxqyEpSiHrvym0wXkceKLE4exgNZuwlqvF+BqBu9h4zK6V6eceaJBAOV0HsILAqidPpQVRVjUmOU2DbTLsG2E1nxDfpMvPgEDc7luDQ9idPquy0M9QtxpoDg4LuWYfcehvBBjrlroUob9C4C6Q5znkwmSR/C2rBidbAo06ZLifGN8mcQSj0SRta6IESVEQFRUT2kaW5xnEQnGNGIvKiEMfke+RVje7EFtwWltvwtSwcXr1BZPLz/BdopgmShJMp432wQlag0NAENaBuaxAFEU43QHiBpEnpoqP5cdIirI9uaxV0/IsQxSsjWp3UZdJV3UTncNT9E7eQpLJDM58eAlRktA/eYtGpw9vPmWJpyQr8JdzTC4/w50Ov9ln5S7QuQz67w31ulsqOFmWMm+v8flfmDttNLqXZPbLaZOk1LSJApqmI01i9h2kSLKCRoeoHPZP3+1UbqwPxn+vytZtrcu8WvXAfOdn+CPUzyFVN9DoDtApPNj85byQ9vcRBz5RsPRXWM0naA0OYbW6MGznq63NFSPsNMVqPsHs5gLudFSpppL9ud/3/LMRBAG63SDXKOX7FDk5PxeeKHE42LzB53kObzHF8Ow9xud/seB/HYSUb/gCuRhvWeEGnvYg6bdSbjGiCQgN2gE6E5E/iWqaqhmwmh2kaQJRlBD6K6Z6FqwWSKII9HNs9g8QuEsM0hTNwUFlrkQQRditLlM3JNLYhHrQn0QRmyWSZKXqhVFUU26Te62/Hm3Ba3QHUA0L3cNXiMOABd3eYloE+iN48ymywjdF0Y1iHsjCckKSAM2w0D1+jfb+CToHJ1srXXHgYz68xPTqM/HiKVaBaUuboukwnBZLjtIkYS2EdL+X4xt48ykU3SCVD90gLXeShFwQgdJxoO8xy7KNJpPycagbMdYNZwVJhum00Dk4xeD0NwDA5PIMs+tziBKR6bZaxGhWtxpM0GAxuoa/nGM1G0MQv68Nr/655sXvotAnwhP5eh6tvM+0FW/Xe86zjM1UreYTYuBZJH5Ws1O8p04hktEFkFe2J4giaYHq9jF49RvsTr9qCFt/Hz8hiSmLi/Bk6cfZ1mb2tcd+S5L7I5/FrtbRSnW1aPkUJQmBu8Ts+hzT6y/sukIrpovRNeY3l+idvEH36HWhUqltbhTVSliWZfCWZC5yMbzaUJv9PlPuh4NeOzYXWb8uCf49nzfn++CJEoeD7W0EptNGa++I9FlPhgA2zTJJwEr+/ZwSoq9BA700iRFHAdJ0LUv8VAKhNE2QZSmZo2k0Ea7WlY40jsgMWuE1spwMC38e8pjW3hGTApdkpWjNM4Fibi1NYlYtooF+liYIVgsi8yoI5GavGZW2sjLfEjTKigq5qTLZbTrsbzbbkGRSqUljUt2TVQ2qTnxSWnuHcHr7mN9cQLcddA9foTk4qMiTU/I8hzsdYfT5Azse7FgmCeLQh7eYYXr5uQjgfaRxRGTTWx3Y7T6SOMT4/BPmw0vYrS5JOhWVJYyCIGysdAtFNXIdYJH2xfrKcLmCxAxY07RoL9OYR5VmWkTZbrWEOxsTw1ZBgFRU0JIoJN5CgkDMa/0VtqnFfQ/lz5NKFdM5g3JFcVvL08b5UVSHBGG9ABN6xBQ5DgN4ixnmw0vIisqS17K5L5mzkyErGpsBuW9+pJWL8208peO77Rym1XBF06FbDUSBD4AsQMbBukWbmkATL8IF/OUcg1e/o3f8emM79PWTmCxIudMRZtfnxGR5OnryM7Lb2CY6FIc+osCvLGbdplrIuV94osTh7MBu93D6X/9fqLqBqw//wHx0xQJrSnVotMpzTJzqMtv0ZpchQZamW8UtHgsaEGumTaorhsW8aeLAJwleHINIYROJ6zzPyQyIabNEiQ4nq4bJgu0sTQGltHrKBAhWiHwPqmFuzJGsPX52K4x9bYhZEMXKzItuNYiju3bFkhHatiLJMhNgoKaTuu2Q2ZwsI0lfmhTzdiRB8RZTrOYTxIEPSVaK1kryudIkaTm+IVWYYkDbaDRJy9txgCxNMR9eYjm+gSAIsFpdSAppvUORJG0L2Mu/C1ZLrGYTNl+UZ9Ukhsps0wQkz7KKwAFtxaGVrdBz4U5HzPWeGmJSYYwkCn+o7a4+60P3KY0jhN4K/nIGRdNJta/Uivm1oId4ThkwGk5lxgNYK/Z5iymAdcUvy1KkRaJEhUuoEMh9U0+SvkehjbObp5QYfY08z4vzT2TXIVGW2TwjQEQLBIkoVtJ5x9BzEbhLYmNgWtBMG7KiIokjprJKz/vlZIjx+V+YXV/cW+vsY5ClKbzFDKvZGFarszGLyHl4eKLE4WC7bKoky7CaHey/+zsU3YD68V+YXn1m8y6U53KBvgv1oJDIg8usovGU1P5ohWg+vEQc+NBtB5KssISDtMbJkCSZiA/kOVTDgmE3Iavr+R1ajTCdFjECtRokeK+t8JWlqctVjzLf23pUH8Jm77HwB1rNxqRKAiAKyHbjKMByMmTJhqyoWI5vSBJXzLaQKtiyEOVoIE0SNtuUpiugZFYZBR6WkxsSeBcVNNrqRVrxJFbd0q1GEbyrzNhy24poWSadHkNvPsX85mJDuKKi6leaPRAKGfHVfILF6JqZbpbbHtMkRuallZXsPF9/hj9LgKRcVU2TGMvxDS7+/b8RBT6a/f2KFPrX1L1EUYSkkOOnasbGIk0ZWuUsv2dRklh7Xnke7b4C7q3JEf35lnZTzvOiIhZROh+X4xvMri9YVZS2PdcX16h3XZrEMBpNNmepaHpRoc/gzaeY3RBxHTLzlLLFk59VHX48coSeyypvVOSCf38eD54ocTgFWZoyxTIqJawaJiRZQWtwSIJNVUXorRCH/rr9KIkhCAIUVWcBVxT6z9Z8dmM+pKyo9IRuUOW2jsBdoNEdQLccpHGEOArYzVWSZBiNJnSrAavZYY8rI4oiDLuJ9v4xmz2qBATieuVUtxtQNOPWWY3ve0M56/sXiu2nCWnvoquxZfzlHJOLM5IMKkQNjYoqaKYNq9WFKElknqioPMmqBqPRZHM7QF7MZKUsYdQtp3ivBkRxjCj0sZqNkecZdKsBUZSYsaxuOYXCnMSSovIcCw2kqRS2785JADS62ng/9fMsB219JavMy8kQN5/+JO2WdpMkaKrGXifPMqTbFAGpD9XP+ZToh0USpckNvMW0EFXoV+c3SsdiF/Rz6Ry9YslwEoXMs2ybiAydoSPtl/vM6+q+qbRH0hZLHty9aNgsUVEl8RbTyiIjANSV6fI8x3x4CW8xhaqbzMRa0XT2M1m0Wc9Q0oUvck18Oveg7yHPcyZ8ET3TGOJXgydKnBcPXQn1ljNMLs4wvfxM5J3jGJKiwG73SCXBdnD89/+bBeCBu4DvLph5Jl2lj8MAk4tPGF98elKJw8+gvsJPg3US+D3d1pA0iRGuXKbUR4LNGNQLShBFWM0OzGYbVrPDDGiBdVBLg1YUim/0bzRZpEkGbTOhN27gJ60G1uZbBEGAapBBfkUzKg+VZIVJeAM5siQpKn7EY0TR5oXIAXmveWEESappGqkosYCGVDE008bg9De094+JzPh0RP46ukIcBpUKkG30yPem22dD2dRAsnJMSnL6UeBhfkPa9uisAa1mFQeAHPNsR1UljjC5PAMAHPz2H1AN4kFFWioz1rJXr8r8SIVll3cV/V5kaQpRlguz183h923nRfn4yKqG1t4RFN2Av5yTdsKi7ShwF4jDoPrcLCvamcDOR91qVBKWny2oUElgWYufSD6t0jn7K7WOcX4O5XNcLcRdqNgNWagiizhk9pNabtDvTsLOb7qoRf4jsv60xRRAUeFOf+lzrGxWncZxcYyq1bZf+f39yvBEicMpCNwlxud/4eLf/7syFNo7eQvNtNHaO2KeMERGeYVgtSRtPjKZJ6CJkiTLzKT2ebfmrROlp5wUZimR7Y5Cn/kJ0f2lbR20MigpyoYBLQB2o2avWcz50GCAtqyx35Ve42ckSttmW2RFJRWHw1PiE7RaIksTJg9OA/Y0pu9NA/KczcrQY0AVDFXdZOIXptNGEods/mXw6ncc/Paf0Ewb8+El0oSIZeR5jixLEfkeeb2i8uQv5/AWs8K3qDCUFKrGlOX3Egc+M5atrzoTds280BaeFIG7wOTyDJppkZmdNIEoSZVVZhaQ3JMqZdnfSZQARdWhaDokuXq73eUXU3+M6bSILHwcwentYTWb4PrjPzGKwo1ECSDHQdF0NDp9mE6bnQf3DVXoE0WpeL/KgwhIcJ4+VBype/wahtPCajZe32MFAeHKRZosKtdKMhu5vnd+bf41y9Jn055Gr6dR4JFjUMx2ckGHx4EnShwOqEKUxCR5KUajCae3B6e3B91qsIuUKIpQ9WK4v2iHEkUJgihC0Qw0+wekNSAMKi1Ez0ky/KlLr9ahiVA9qSPzN8RrKPRWCL0VRFtiogi72qRoe1FFxprezG7Zj++50d1WgVA0Hf3Td4gCD1fv/0GS8yQBFJXMpuQ50jiGohO5dNUwWSCbxBECd0HkzCWZCAgYJux2jynPGbYDp7+PzsEp7HYPi/E1rj/+E+Pzv4gBcxyx/aMzS/OkMIB0F8TD5+QtU9rb9f7zPEcUkNVm2gpXEU6pfW7CjiA88j1cf/wXREkqAo2qIiP790+aSdq1HwAgKcTg2HRazFqg7qd1FxngPCeeXKR6qGM1G2NyQapn2+arjEaTtJDa24/5fQRbRIRjTK6LssKET+h74Lws6jLhRqOJvvIOSRQhWC0QrlzmSze5OIPvzouKqAxBuFt/Qv2799QX7G6jfo2i/ndxGFQEHcr3AS4R/jDwRInDAbnQaKa9NhYNfaiaAae/j+7RazQ6/Q31mXqFYf0HEc3BAaLAY214SRz9shfw50I5sRMlibWn0Z+pp0ewWqJ3/AbN/j4AsMoL9b0RS+1i7LV3VEl+JrteV1ZUNPsHRduGiPH5X6yKlCYxk4vWDAvNwQGc7h4kRYE3n2IxumbtHqphMnW7PM/Q6PShWTY004ai6eRcvjzD+MtfmF59gTsdsUSGfA9o+wyYoWQSR4i8FdI4QvfoNRF5UNRKNSXyPYT+CqMdEr/bFheqcuJ55THkPUw3nl9/jYdAVlQYjSbzkWL7dMdzpH5eKapWiI9YWxM0WdVgNTvYe/MHesdvoBrWg61C0++UKMsb+8Zb714ueZ6T+UirAd12IAgCkjhC6LmYXJxhfP5X5f7IFoW+sRr5/O6vAqvW8+/O48ITJc6LhwYRhu1g780fcHp7iAO/8IfpQjOtits9pbyaUw9oVMNCc3AI310g9FysZmOy2v7sLua/JoJAKoKqYbIbchR4cCdDzEdXrHVJLA36088uQ1XOmn72tDVElOQHbzkSJQlObw+iTIQpFqMrTK++sOF/RdOhGiYRrChEHMKVS4agFRV64XWSxBEmF2eQVVK9aHT6kGQFk8vPmF2fl9pBEiiagTj0N1pkyh5HcehjfPGJ+G2FAToHp2Q/NZ1VoGbX5xhffMLoy0f4yzmyNKklYKS9rpzklqkkAUV1hT7mIVaYt/mgVPdPZKITZBfvdm5sS77pjF1Z7ru8PdNpY//t37H39m9wunvralOp7fE+yPMcutVggjYPIR7BebpsnLu16qmsqMhUnbXb+ssZ+XtRkX/p0Mo+rfyX4TN/Dw9PlDgcUN8HCXarC9NpI03iohVph0dSaXZl2wVLLMQBBq9+A/IcVx//ienl53t9D5xvI02TYhaG+HjQNjTfXWB6+RmN7gCG7ZD5GqraVii11c1DBUGAKD7MLMg2BEGAouloDQ4L7x0iyrAc3yDPcyYykec5kigkc1gyuRnTxN5sthG4SzJsHYUI3AXc6RgAML+5IDLrYUAqGqYF01EQBRqiwNsqXU3EJEgSNbn8TCS8ZxM0ugOYTgsAaZObXn3B5PKsUNlbt9vtWlHetp1t8v5PpR0lzzPW2kt+rp4jt+3nRoVSICaymmERSfuicCbJCoxGE3tv/sDBb/+JRnewIZ5R3tbPPE/pa0mywuahtrUHcV4O9cXDbX8ns4MxQm9V+05v9+B67pRbaCVFgVr4vtHOh5d4TJ4KPFHicFBdARNFEUJxwy8PUtYfi/KFS6jKZNMbgdPbhyAQOVN/MUPor3hV6ZGo+vAQMY7I90qrc/TzzOFORxh9/oBGZ0Dm02yHBZ7ELyklM2m3VTceEJrEiZIEw25Ckon/jtMlVSZVM+BOR/DdOZaTG2imXXgracgK7yQ6W5LnGVazCZaTIbzFjAQ0cQzNsKAZFqRi9ikvRCEAIEgSUHW8inQ3NSROEyxGV2SG5YsF02lBVrXCPHKGwF0gS9PKc9bHci2Ose27Qysm9d/RfXhMqOVAHBI5ekmWmeAF8PUkCVhfb0RRJNchUSzMcw12TFTDRPvgBP3TdxtJ0rZE8mdTn+Or7/vX3ivn+VFOlgAQkRvyB6RxhGC1ZPOIlO/53j6H+yn9juZYG5wrGkmUylYUnMeBJ0ocDjZ76OnNPqu31ZSSJLZatmMuhb6G1epg/+3fycr6xRmWk+FXFXw498uulix6g3ZnY2QfyOfVO36D/qvf0Oj02WPydD3EH6yWxPPC94gQQmctif2gUKERSYJu2ZAUBabTYp4cVPJeL2YFFsMrBKsFkigisuitDiLfw3J8A9+dw1/OIckKmv0D7L35A7rVYDLgwWqJKCBJJiqy0OXdKb4TLFlK115lnsuSMjpLVX4OnQcD1oGQKMlQjHUrCnm9pJAFzp7kIDeVUZ9dn0O3Gmh0BxUVursKOdSh8vb0/WqmjWZvH6bT3pihqyQtRZL2s9t3ytvats88SXqZbJxjxaJjlCRYzSbw5pu+ShwBVrOD1t4hrFZ3ZyzC2+8eDp4ocTi4PZj42k2eBib0QlafQRAlGZ3DV5BkpWh/yuAtZhtD65z7hQ0L00Cy9DlVP2OBzOL4pCUk9Fwmt60aZqEkJ7Gh5PnNJSaXZ4h8j7TrNZqPkyih2nKmqBoUVUMcBvAWM8SBD9Uw0egOoOomFsMrIumd58Rzx25CEETSIlYMYBu2g87BCQ5//x/QLRur+RSz63PWwkel1re1w91GEoWF/5hMvmPs8Wu573LSI6saNNNm84JUFSoOAyRxhDSOgSeowZhEIVazMUZfPpLZNUlGs79/p8ShUrkuHp8mCYLVAsvxDQJ3wR5LjYRvOwZ0MFwQxI1K6M+g8p5oAHcPSRnn6bP1sy51ZkT+CvPhJVbzCROAecmUhYYEgfinKRrxt9u1WMK/Tw8HT5Q4nILyavY26d6KeAM25wd2BT/05mB3+hgUK+pJ9K9KolQvrz+1lfHnRD1hAqo3HVIkWVcn3NkYw7P30AwLvZO3gAI2s+QtZhhffMLkgnj3kGrHw6+e3xZ4K5oOq9WBbjdYO0eWpUQuvNUFgKKlToFuNdDeP4EkK0iTBE5vD629Q0iKAt9dwFtMIasaDn77DyzHNxievYe3mK33g3oIldrhbjuXszSptNRRs9Ty72RVY15Rqm7CW0zhzadrYYMsA/D0qkmULE2xmk0wkj7CdFqw270NT6VtbFukWc3GRHnw/BNCf8V+Tyt9ke/BanYAbLbDAYAoSizputdAi1eQXjRMKbTWdZHnOZI4YlXW1XyCcnLPWtBuOTef6vf8Z5HnOVbzCYZn7xGslugcnqLR6ZMFutrjOA8DT5Q4nBJ3qSDteszXnqeoGtoHJ0Xr0YpIOCfVtiN+8Xs4dt1wiVEomT/K0hRJFGJycQbdasBstqFoOgRBQOSvsBzfEJnsLCUqcd1BsbL/sNx27kmywoJnUZYBCIhDH1QSXBQlyKUKmKLpxZyLBLvTgyjJmFycYX5zAX85R/vgBJ2DE+RZhvH5p41tV5KlO1D3tConsFSCX9F0aKYNSZIL3yuvWHCIAOQ7TZ2fSlAVei6yLMXoSwuaaZPzRFaK/c5JRUhW1klMaUYry1IkUQR/OcPw7D1GXz5idn1eaVmKQx+r2QRR4Fe2SwPVcsB6X2wTjdj2N87zptx+mRWznNRsOssypHEEbzGDOx0hDvyKoiw5bwQIwua14Dmyfe4yJyq5gY/58BKRvwLyHI3uoPKo8qIH537hiRKHc0d+pM++LBRhtTroHJ4iiUIsRlekhYluY8fAOudhqRidFm1e3nwKdzoipp+qBn85x2J0BUlW0D18hf7pu6Ja8LSkkfM8Y8aOoiTDbnchSTJCbwVvPiUVprSHNI7hLabMh0lWNfjuAkkUYj68xGJ0jbTwZDKdNvzlDN5iynyaKIIgsLmk79rfLXOB/nKO4ac/kec5AndBlPaS5Jea9UvjiLQtZhnsdg+qYSIOA8iqBqe7B7PZBrAOFgEgiUN48yk7/ovRFYLVcr24Upr/qs967FLl5PNCnIdg96Jj/ffbk+jnniQBxTGSZJQXe+j3NSp86Kjcfuit2OIW+c+CrKj8+/wA8ESJw3kAyspVRqOJ/slbyIoK02lhevUFq/mEzXxwnh5ZmmI5GeLm058QBBFms80MVxudPpqDQ7T2jh5tNunr5MzHS7cayNIEvjvHajaGbjtIYtIGmiYJfHfB/IyoIay3mBYzRRKWkyGGZ38iWC2xmk0Qh8HG1mh76vdSN4kNVkt4i+nOytGvQJamhfLgAvrNBRRNLzyuDLiDEUynDRQqdbQVNw58uLMx5jcXcKfjSmIoFgEWQNoTjUYTqm480rvjcGoIAql6oNr+mefZV0xUX5Y8eL2TJM+ywlqBLATNby4BAO50BLnoSmnrBk+QHhCeKHE490x53iUXBOJ54rSgGiZae0dQDQsX//5f8AoVL87jQz1vyp4+wWqJ4ac/4S/naPYPoJkWqwwYheP8U0SSFai6uRY+SGJEvoc48BEFPgRRRBrHbBbI6e3Bm08xu7kAACbYIMkK9OJ9zq4vEHou4iioKN79jGNQlrNmEv2oVvnqq81PeYGhXCXO8xxpHBHlQHdRBJBzeItpoQJIrQVIEpQmCdI4KuTFq9eGPF+3Nxq2g/b+MXTbeei3x+FUoEF/XeSo+COpfsYxO58rScKOBOkpf79/BNJeeHtFLc8zuJMhmz9s7R2RmdIn1rnwnOGJEodzj2wz3RMEgSmS6VYD7nSE4ef3EFdLdvPgLXhPjyxNEKyWiMMAoijBdP5Ae/8Yim5AVlSIovSkjE4pkqxANSwWnEfeCqG/wmo+gSAI0G0HRqMJSZaRJkTNL44CxLV5F0FWSglkQlaF7/EcXQdNNdPUOwx8PzXK32cqk15mW1Xua9CVZ1nV0BwcoH1wAs2wfsr+cjj3QRJHcCdD0kFRtOyWryH0nH5J7PKGo9e5shcbigp/WRyDc//wRInDuUfYhax2YSsH0yw5Kskk/+icB+fHqAey5c9B0Q1opgWr1YXd7lGZPPLZFmpvTylZEiUJsqoyT584JElQuHJhNtto7x+j0R0UKn5kDiuNI9b+RW/WWZoi8j1ohgWz2YYkK4gDn7ToFduqex99DxWpXGqcWgumfqXwoKyyKAgiRFki7UdbKmRfO271x8mKCrvdg93uQ7ca7DPjARTnsaGVpPKsUhR4mN1cYDG6KiT9ObvYZqSdxBHi0Cctu6r2pO4zzxmeKHE4P8htak9lxan6cDV9rCQrRPqzkFR9aStqTxEa1EqyTNqlSuaeaRIjz4lSGa2wsCTpid64qKJanmXIkgSqYaE5OITd7sGwHbjTESYXZ5hefcbo88diRimFJCtFvzwJ6hVNJxUou0naZ7bMGpSD/Z/RIve8Fgty1HOYSqvhLc/cdl1QdROdg1M0BwdMPrjsA8fhPCrFzB0liUK40xGb7wQA1TABVA2kgZch5vAtiJJMfPye7Bzs84UnShzOPVJx1S5Vl8rJk6IbMJ02GYxn7U5r403Ow0IDV0lRoKg6AFRa0aTCJLU8m1NulXiKCIIARdNhOm3otgPTaaN38gaCIGJ2fY7xX/+COx1hOb5B6K8qHkaCKCKJQkgKkRk3nTYkRUGWkVmDXYmMuMXUVKAVj1KV5bZE6DkkSZt+XfmO39+tslQWyjCcFlp7hzDs5vbH8coS55GpCjnQRUIRgphDM23YrS7SNIG/nCMOMgCF+tsz+O7/CKzFuPhZ1Q00On1Yzc6GpxLnfuGJEofzg2wLjnc5aW+rODndPaRvY+R5huFZhsj3KkE455EoPkPNJK1mtL3OdFpkHsS01499oglSGdNpA8eo+CbNrs9x+ef/wXx4SYQe0qSyYkl9lqhaXqM7gG43ELgL0naXbarQsUSzECeg6nlA4TqvqJCKG30c+EhfWEB0l6pxPYEsz2XlxSq9qpto9g8KQRiz9GReTeI8EWrt5tSjLU1ioh7qtKDbDpbjG0TeCrwZbzeSosJ02mSelFaPt7Tyc34+PFHicL6Ru16c7uJfkuc5NNOC09vDaj7BcnyDJAoRh/yW8VjUZ2QMqQm73YPV7EBSFBh2E6bTglFSGBOLWZqsMAp9ijcuw3agmcR7Iwp8TC7OcPHv/43h2Z+IwwCqYcJsEDVGQRCZZwdAKkuyqkGSFUS+B3c6hu8uNlZ96fsWJZkE98XvaeuiIMlEPc9qsN+X/X9egojJt7YU1SuVeZYxxczOwQkMu8kUxoC12hivJnEek3q7uSAIUHUT3cNXaHT6kGQFmmkjzzMkUVgkVc/7u/8jSLIMRdMhKWrl+865f3iixHmxfM9qzDYp07tWlOhKbz3oCQMPq/kEoeciS2/zl+A8JHmeI4kipkhmtTpodAdQVB2SokCU5Mo58FQ/NybXK0msHY60g6aVRCXyPRh2E1ari0anD912oBkWosDD9OoLluMb4hQfeAi9FULP3b3NLENenOfknBchSCXlxyL4f4oJ5VODGtBW5cCbGLz6De2DE0jy+jb+VM9Bzsukfl2UVQ1Ob6+QxSaLIr5L5iHJtYlfD8rQFkVqKp2l6bqFH7yS9FDwRInD+Ubqyl6CIGwkQXU58HpSlWUZQs/FajbBcnKDxfAK7nSE0F/90qaazwlSWSKfU1BUT8xGqzJ7QytITz1ArZ9/eZ5DMyw0+/uIQx+L0TWyNIEoy7CaHfRO3qLR6RPPpJsLMrvkuVjNJ0Se9pbtsHO/WEGWFRVJFBbndoI0TZBEIQRBfPLH7emQV+bGWntH6B2/qVQ166v3HM5ToHwuiqIIUdPZz0kcMRGH515J/h7YLDPIsVrNJ1iMryEpKoxGk1eWHgieKHE4t1APMNmcQJax2YuyrLcoyRC3DPXXf86zDNOrL7h6/99YjK4LM9CQDMfz9oMnRZrE8BYz+Ms5kjiCKhnsb/Ub1VMO/Osru43uAADpfRcEEavZGJIkQ1IUqIXzu+8uMLk4w+TiDO5sjLTwPqlDV4eppK0oidCtBpr9A+hWA8vJEOE5XQSIEKyWEARhQyL4OQZLZeGK2363i/LCiShJzBRYLXkmlf3aaBsoh/PYbNz3SucpNVaWVY3I2mcZv/eVINdS8n9RkpDGEaZXX5BnGeIwQP/0HexW97F380XAEyXOi2enG/gtJe48zyqD6lRKGjtctilZlsFfzuFOR7h6/9+4+vCPrWaTL2FW41chSxOEngt3NibJRG8fgihuXc17qit8FSGAIphWdQOdw1MougFVN7AYXRPBhk4foiQjWC1x89e/cfn+vzEfXq5V/2SFiTxkWYokCpl5JLBOAsgMAhHCiMOAJQVkBdnf3MkXxG0J0m4VQRlObw+DV7+jc3gKVV8n7Hmek5ac2oIOh/OUYIqXggBBkpjoCyAg5VWlDcrCL2kSw1/OiPqdP0CWJI+8dy8HnihxXjxbFeqK1S3SI7w9qKGzA2kSrROlr7S8RL6HyeUZbv76N8bnf1UG2YHn7x2xS/542/t+ajfNJAqxmk+gGiZU3YRQMvx77HanuwTF2/ZPEARYzQ4UTUfn8BUUTYei6cizDIvRNcbnf2E+vKxUknSrgfbBCVTDRLhySRI1HQEgwTz1QokDH4G7hKxoyNIEsqIiLVptXiLloIdeO4ivUl55zC4M20H36DVZSW731t8leu7VzsXbzkeeRHEegq2CRnVxkjzb2nq3rQL7kthmNyHJCqxWF63BIfRS2y3nfuGJEodTQhRFZEVbHfkFIGBb5UBCLtDf5wCEyoWNOGgHiHwPaRJDlKRCLWyEm09/YnJ5VvJMev4J0i6e8vsuV/WyNMFyfIMsTeEv53C6e3D6+2xGhJrSktbJvPBgWsts31adfAzKLaWSLMOwHfZekjjCYnSN4dl7TC4/V85TAFAKPw+j0YS3mMFbzip/J59pjij0sZpPkCYxosArEiSBtNmUvJReEutkaZ3UlI+DrGrQDAuqYULR1u2PoiShvX+M/bd/Q2vvcKuPCq8icX4F6lV3WVGh6AZkRUUsSS92IeU21oI8MnSrAavdhVKa9eLcLzxR4rx46quvTHAhTSHtaK+irS6SuPaEKT839FaY31xgdnOBwF1AKgbal+MbeIspa1V6yonCfbJOKjdX1Z8CTLCh+KzTJMFyMoS3mGI1GyM8WUFWtcowfei58BYzxGEAo9FEa3BYNVosWqOeQqJEoe14NHgJvRWWkxuMzz9hevUFUbBduIG0naYk8K+tDlOVuzSO4S2mCD0XaRIzAQdRkpEmCXK8vEQJKJIlaUt1TxRhNJroHr5Cc3AAzbSRpSkCdwEAaHQHaHQGEKXtKndP7TvE4WyjvmikGhYM24FqWlzMqETZpgIg1weiXEosFp7SfeS5wxMlzotl24UmS1NmoikpCkRR2lip3aVul1VWyHOE/grTqy+YXZ9DVjUiBV6SVH5JSdK2NoocT/cY1NuhaFBP55XqLZNZmiAKfMxvLjG9+gLTaQEAGp0+5ML34lcIALzFFMOz9xh+/gB3MkQSRxBLq7yCKCKJQixGVwg9F0kcEQ+UGuT45USkJApZ5USUBPa3l0xdoEEzbTT7B2gfnKBzcAqrRdohszQtZhhzqIbFqpQ8KeI8F0RRhKxqUDWjoijK2USSFeKlJCuPvSsvCp4ocV4Muwxgy21TNDCk5pplOe861ZX0nCl+AYCskBYaSZLJsHsUkioK848Ri9X8rDK7ADzPfuxKZaXEt6h/PSS3DdQ3ugM0+/uVHnHqbxEFHhajK/juHFarQ+Sxm0XF8YlVk4Bq0p9lGdzZGJPLz8z4mLaJrWdrRIT+CpOLMyi6QX72VpXXA8qVpZKXkiQByJn5LIec91ari/b+Mfbe/A3t/WNopk3+Vgy60xab+rWIHl+eNHF+RcpznaIoQZRlCMLTug88JVTdhG41CkPwp3Ufee7wRInzoigH7FmWMSnv5fgGy8kQsqLCanUhK+rWdrwyG9LhpWBfMy209o4Q+ivEUYDlZLie9RBF4IW2HQFkBV2SFeLEXsyDlVfYn1LSVJ5TUjQddqeP/uk7dA5OYTSa7HGSrEBSVJhOG73jNwDI+eEX8zuqYVZmlh5s/+8YSGdZhjjw4S9mpJJUqRKt52gESUAaR4gDny0qUInv+ue2TeDiKc8m7RIa+Rmvu+01qR/S/pu/oTk4QHNw+NVzhCdFnOdCxV9JlpmKJqeKohsw7Cba+8fFIt1Bpd2fc//wRInzYqhXgOj/I98jg+sXZ2gWajJ188Z6RWRbwFIPSnXbQWvviPjvRCFLlMq9x7TK9NwpHxfaY03bB4jwhc/c2p8KbI6qCHQlRYVhN6HbDrtRrc8HEgjb7R6a/X2kSVLM5UTwl3OIkvQoidJt5yuF+BlF8JYzeIsZopIMOFGkWgcv5X+nSVz8vP27kKVpoXBFxB2eYushafUhc3LAz09EWCWuOIeE4nhIioLW4BCHv/8P7L/9e9FOI7N9YBLK9JpC96tkbE3nyzicX5Hy/VjRdJjNNgzbedHKmNswbAf903fYe/MHrGYHuu08WRuK5wpPlDgvjixNWS90FPgYX3zCzac/4U5HMJxWJXmpr4pvm02qE3orJHGIyPewnAwRrJZI47iiikdvBE91df0+qJj1ZilUhchsZ1mKcOUiCn0yz7JFJpYF3g9IuZWSGiL6yxmGZ+8RuAv0jt8w09bQWyH0XAiCANNpQ5RlUnWJQmRZ+uCtEvVAupzob7vJZmkKdzLEaj5ZKz5+hfLsFv0Z9apSYZr41KAJi6yqRL48SxH5HvIfWNHeJudbr6CZThvt/WO0BodoDg6JcaxuwHcXSJOYtGoq6mab5g5pdw7nV6S+aGnYTfRP30FWVAzP3mN69aUyB3qXBbRyG3f531tb5Guv+VTuw+WqNr1GmU4bnYMTtPaOIMkKT5IeAZ4ocZ4Vt5vE5oXZZcLmg6aXn3FVGGoKggBF06HqJqSSshSdCaABPn3tchBKL8DeYgp3OoK/nLP/vMUUUUgllsnq9UszlK0ro6UxmQmDDiiaAVGSoUQG4sBHHAVMUW39eeb31hp1G2U55zSJsSySifnNJakShgFJoNwFQs+FbjVgOm1opkV8g4rZN1GSWKvng+37DqU9lkDlObIsRZ7nWE6GmN1cwF/MNh/3Ldvc8tk8lfOcBk3l760oSpAUBULy85KO8uIKnc0iColNdI9fo3/yrphFspClKZaTIZbjGwCA099n4h/119q1DQ7nV4VeYzTTQkcl7cyKTu4H0+svSOP4zgs35cSnnljRmeCnLiLDFrRKP4uS/Git2xwCT5Q4z5J6IEFnMLIshSQriMOAVAc+v8foy0ckUQint8+CXHqhFUURSRwh8j1EgYckIrLetE2GquSFnssqSKvZGKG3QhpHSOIIWZogLVy0aYtWuaXrJcBawIq2Q0EkqoBJHMFoNGE0mrCaHQiCwI53msQIPZc8LgrXwWfhw0Nf7z6hrVlCMU9FW9ECLDD68hGr2QRJHJF2kSxFe/8Eje4Auu2wYXxRklnr1EMFuDS5r6tI0W1HvofQc0klo/BNcicjJltPeNpBxbdCgw66UJJlKZI4Yosm3/t+ywn8Oq1fYzU76B6/RvfoNZr9AyiajjSJMb36Anc2hr+YIYkjmE6btdw9dFLN4TwklZbg4t/Ez41UljTDgm43MLk4gzsd/dB1PgcgFpfBXeJBd6ku3VbV+hn3IbogR6/ZWZoizTK40xHc6QiNzoAkkYXXI7DpScW5H3iixHmWCEWwQVfUKaSilGI5vsH4/C9cf/wX/OUcdruHoz/+B9r7xxUzxyxNMb+5xOTyDKG3giTLUDQDsqoiS1OE3gpR4MFfzhEFHrz5tCIBXtmnckuAVMiO3+9heDLUbyR5ljE1QGAte6poJiRFhShJTFqazmSsVwXJR5rnD1GZK8+nZWxVMg4DzG8usRhds/dAjVQlWYEgirBbxBSwXHHMcX8tU+W2uvo2kjhCnmXFAsEcy8mQVTuTKESwWiL03EKK+vnCpOmL/ydRyFasf6S1k1YeaYWKeh1phoXm4AC94zewO30IoojVfAJvPoW3mCJYLSGKEvTC8FdWNa5kx3kRlKsndAFJkmXYrS7MRguqYUIzbdz89W8EqyWTyS9bFQB3S1K+5bv92HOyeWmRS5IVqLoBAKT6X2pv5hXlh4MnSpxnQ908Mw4DpEkMWVGJ471pQYxkrGZjTC7PcP3Xv7CaT6DoBvbe/A1Hf/u/mDQvJQo8jL58xOf/8/9DmsTE9LE7gKLqCP0VVrMxS5IAMAUwSr3dh64WPWX1r/umfExI8O5jOblBFHik7bEQEWCtbY8UNJIbZo7y5sufWS4IyNN1spalKVv9VHUDutUgXjg0OL/HatJtxyhNEgSrJQJ3geVkWCR4V4iKGSpaJSurDz52sHAfELGQze/dj55fbPFDIIaxje4AptNClqakFbPZhihKmFycwVtMmbiLrGpQNB1Ofx/t/WOYTpupbfIgiPOcqbSmbjnXRUlCozNgC2jTqy9YDK8qhrTEvFpi167nALkWk+uJZtpodProv/oNzf4BVN2sdLpwHg6eKHGeDfU5DNLyRhIl2s61GF1hMbrG9cd/YTm+gSQr6J+8w8G7/4DV7LDnp0kCdzrC5PIMN5/+DW85g2E3YbW6aHT6UDQDymrJzCKJYANROKMrP9uGu+m+vdQkqQytqGUpGaSPwwCyqhXBokjme5jnTtWo9CFa7+jqHf0IWTWrND9SH/6PAx+z4JwM4B6ewigpFGW4v1VA+rppkiAKSFtdEoVIE2KQ682n8N05VrMJ3OloZ9WTvr/nGqhvG/j+GeeQrGpo9g/QPXqFRncAWdHgu3PEgQ9vMYO/mGE1nyDPc+hWA5ppw7Ad6LaDZv8ATm+vIrjxXI8/hwNs9zSszxdrpgXNtKDoBqxWF7N2D96cVMBRzBPTRCn0XPjLOQCSYNCukCxLkUQhosBHHPpkNvYOPm6PsVBUriSZThvdo9do7R0yKwpJlrf6OXLuH54ocZ4VVRlv0q4liCKC1RLXH/+F4ac/4btzuNMRAKC1d4SD3/4DdrvHXoO2J918+jdu/vo3wpWL7uEr9E7eYvDqN5hOG5KiIIkiJHGILEngzsaY31xi+Pk9kjhi6m3l24Egilz2FEWb0hYHdtqOl5XmuepB40MnmXUp97WcNADkO1snI3+F1XwCu9NnQ7j3uQpIW02D1RKTi0+Y3VxgNR0jy1LEYYDI95DEIdI4ZnNylPocE/AwiehDs5EA/qS2TUEUoeomOoen2H/7d6iGBX85Qxz4GH35CG9OWuwkRcHBu//E8d//J6xWlxlaU5n8iiLXls+Ew3kOVNriKVTZlP6+1HVgNlqsukKrsfQ7JykK0jiGt5hiORlCEARYrS4004Yky0iTBP5yBnc6xnJ8wyq6ZUW9r/HQpuiKZqBzeIrD3/8Lje4AmrGemabHhC+kPCw8UeI8C2jbHS3li6IIRdORxCEWo2tMLkhlaHr1hV1o7XYPe2/+QPfoNQBgevUFobeCOx1hNZ9gNSOBZufoFbqHr9DeP4bd7rHAkqxakVa9KPAQhz4RjLglGdrVV/3SVPB2qnllGdL6cXgiMq7rBO/rnjvubIyr9/9AEkVodPrQ7UZxYyeKZjsV5UozdVR0QJLkyo1y/dC8IgPuLaYYnr3H9Yd/EuVFd4Gv+Rfd94Dyz6Tesvmt7ErQf5Q8yxBHAVazCSYXZwDARFx0q4EkjogHV6OJzuEpE3TYeJ2SVxKH8+whg6ab53vNjkOQJOJD1+nDaDTZd59eS7Msg9XqkBlAQShang12Tw09F83+AVbzCcKVi/noilkhJFFUadvb5h13r4eg1pqfZxkzvW/2D6CZ1tbn1W0fOPcLT5Q4vzxlueM8z1kwlOcZAneB4dkHDD+/h7+YsZUk02mjf/oO7f0TCIKA2c0Frj78gyRJhWqd3e5i783fsPf6DybbS9Sy1ooztNVpdn1BVNDmkzsFcdsSo8eQv34s6tW2rz32qXDXG2joubj59G+s5hM4vT2090/Q2juE1epCpDKvtUSJSnVTh/qo6MfXTBuKpm/K0ZcSpcj3ML36Qqqmnz9g29Dzj76nbWx77fv4vKinCEDiKKp8+K3buq8AKIlCjL58wPzmAmmawGp20D99h8Hr39EOTyDJCptXwo5VYRoU1n/H4TwnKuf+loWf8s91SCJTvQ4KggDVsKAa66SirJCqFy2uTm8fWZZiMbzC+OITJuef4LtzeEVcoOomVMNEHPiIAu9BuheoSBGwriTT9nMAFfXLbceDi748DDxR4vxylC+oNGkRBIEFbUkcsaH1ycUnzIdXTN2LYtgOGt0BkijE5fv/xvTyM8bnnxB6Lkum6NxBc3DALlybBp4ZVrMJlpMbBKtlyXents9bVN84zxeqMLcYXSH0XOYVYrW6ALYHxWVZ2CQK4U7HyLOsonxU9wECSMLuLaaYnH/CcnyzMdi865y8C09F1KFubruNh67KCqJIBBlUnQQ3qgpF1SEpKhqdPrpHr4jkd55BlGTIikra7LhYA4dTa5Ov/n5bAnCb2ftt3yf2N1GEBBmtvSMougG71YW/JG34cRhAtx3Iigp3OsLs5gKBu2DdDfd1HSTvc13BklWNiQBta4nmPA48UeL8UpRX0suUE6f5zSWuPvwDoy8fMR9eVoInGtwQnxuRqN99/FclkRIlGbrVQPfoNRqdfiVJyrMMIpX2znN48ykml2dYjK7ZbA1ZIaq2Vn1LteilteE9R8pJj7+cYzm+gd3uwWp2IHX6ALYnMIJAjG2JEENcqTrVh/3pz0kcYTG6wnx4iTgKNrb/q1P+7pDvnsjm/fI82/h+37+3lgxF05kgg9FoQrcdKJoO3WowXzDVsLg6FYezg13VkG/9/bdAJcid7gCNTh+R7xHRlTCAZliAIGByccbmjL9llul7YIJBxXXCdNpkLsm0eQvuE4InSpxfirJR3dpfh1xQ4jDAcjLE5fv/xvXHf8JfzjeCJklW0OztQzNt+Ms5ZtfnWIyuKo+RVRXd49fon76D0WgCqBp40qFTdzrC9V9EIIIoWpHAN88ztl93HYqvq+QJhZoP59ekflMnIgtnSOMYdqcHVTOgGmRmKUsT5l9EvKQMIg5wcII8z9k8S6V6yuaYUnhzMshMeu5DPDdogqRZDZaQAGBBTuR77HEPgdXqoL1/jPb+MVTdZCvRoixDkpWiyqRV30OpTRLgLXUczmNDlfVkVUOWJpBkhbU8G7azERfcB6IkQVJUyIoKRTPQPXqFzuEpE3u5re2O83DwRInzS1MOGOfDS1x9+CeuPvwDq9l4/RiWgAiwmh20D04gihIW42t48ylESYYky5BVDXmWoXN4ioN3/4H2/vFakaqUyOR5jtBzMbn4hOuP/8Ls+hxpEldWvnN8+8zRethcYPvNK0u/JuXPTZQkIht+fQ53OoJhO1ANC1arA820kcYRvMUMWZZCM6xikHcfptOGbm0O85aD7DSJsZpPELgLprTI9uEXv7mWv7eqYcKwHZhOG6phAgACdcmqbw8xTyBKMgzbQe/4DQ5++092fbgt6ckyUvHK8wyiKLFVYp4ocTgPT12CHAAkmdz/AXLNkRS1EIp4iNY3AbKiotEZECnww1dMxGFXayLn4eGJEueXYps8ZpZl8N05JhdnGJ79icBdVJ6TZxnkwgC0OTiA6bSxmhG50CxL0Tk4gdlsE9lvWYHd7rG5JGZiW6ok5RkRiViMrlklaRvfE7hlabo2peVJ0i/FrsSYnEMp4tAvPD08SJIMdzqC3e4Vc25jxGEAUZSg6Aac3h46B6fonbxh/l7b2riSOCLGynFcuaHeVzXye6Vyv0eohH5vNcOCapgQJZmoyWUpspQczzzPISkqef9fmWH6UURJQnNwiP7pu0pLbmWfS59BRe5bEDcex5MlDudhKAvgAJvX0oqCaLGw8RAJSpYmSOIIut1A//Q3cl0pqtH8GvF04IkS55cmz3P4yxmGZx9w8+lPLEbXANbVGFnVoJk2mv192O0+mgMizRsFHnTbgWZY6J28hd3uwmi0SAlcNzYupIIgII5C+IsZvMUMk8szTK++IPJXbHvA1wNB6v+gmTZU3ShK/YVBaBwhz8hg51MZouf8OMzYFACQIk1ixCDteHHoA8W/2bkzB9zpCN58itBfob1/jEZnAEXT2conRRSJ4XFr7wgAEPor8rqBz6qcd52Lq+/vtnPwNqESWgESZYUk+7X2U7q/5YWANInZ+S6IIlvFzQojX1lRSSubZhRtbUQQQZQkpElCvi9ZijSOiTx/4RlFzYqzNPmupJG9F0lm23O6e9h78wc6B6dbZXuZB8zaoZgEOjvmKXkgxOE8PjQ5EiQJaRIjWC2JcXxNFOc+EESRyIE3O2j291lb8U77CM6jwBMlzi9LnhMJ5OV4iPH5X1hObtjfBEEARBGaYaG9f4y9N3+g2T+AqpsIPRd2uwdVN2A0Wmj2D4ryO1GkKidJ5UAmcBcYffmI0ZePmF5+RhwGrAK0TamnnjzRQNDp7WHw6nemuje7Psfw7H1lxoRXk349vuczC73V1uemSYz58BJR4GM5vkH/9B1ae0dwuoPK4xTdQGtwCLvdRfvgBO5kiPHFJyyGV/DdOQAB2JFzV0QQyrK82O5ZtGG2W2t3o8GGpCiF+psCgIhT0Dkj1TChW42iCkRaDuPAh6So0K0GNNNira2h5yKJIkS+B7n4e2vvEEajRdrvaFJSXAeiwEOwWmI1G8NfLuBOh/DdBbLU/6bPhH5PFU2Hbjuw2z0YjSac3h6c3j6UQoEQ2DI3Vk587mAOyYMhDuf+2VSrrX3vSosb/nKO1WyCJI7Wz/8B5VC2iS2LqZKsFO3EVmVBhy+gPC14osT5pai0thSCCjR5oUPd9HF0pb1/+g79k3dsFZj2IVNzurvKcIqSBFGSkcYxQn+1U/J7Q8msWNVXdRPN/gEOfvtP9E/fwWq2kaUprFYHqmFifP4J85sLRIHHhRxeCOVVy8qMWyEvHodX8JczhJ4LfzmHv5xDNUyoulkIP+gkuViR9lBRlllVhgTpP3aT35x5qiZOUtEmIogiFFWHaphFBUhn80XU00mUpEIRrgVVN5DnOYLVEmkcF0kJMYrMi1ba5ZhI7ouiBKvVRaPbR7N/QAQdamIJ5FimiAIf/nKGYLWEOx0VvmgTxKGPNEnWqoJxtFYUFARWuaJeKuTfZCHFbveYmp2satUB65phZl2wYVfAwxMkDudpQL+nSRzBnY2xGBE7kSxNfnhOuPz8bb6JptNG5/CUGNnLPBx/qvBPhvPLkibxWhY52Fw1NhpNsgrf24OiG0gL+W5q6JZvcwW/BaPRQv/0XeHcncCdjhAWrXcsONqxEp8DMJ0WDn77D+y//RtU3WR/c7p7rB0PAGbX5wg997uPC+fXZNcNOQ4DzG4umC+TZtpodAdodAZo9vcBgAiL/PUvxGEAbz5FFPpfNfWttNttqQ7Vn1vfP1GSoZk2JFmBoulEJttqQJTIbSVNYoiSxL5r1BhStxqQVQ2SoqA1OCTD07LMFi/yLEOwWkLRdITeClazg0a3D1U3iXjCjqRPEEWoBkkgG90Bmv0DljD5yzkTfWDVqmLFWJJkGE4LdqsLs9muJXwGZFVlQgwbc2K160d9Rok8ZLfvC0+YOJynQeitML+5hDefMllwQRAhSNt9nbZRtmVgYjQ7zOVV3Syq1HuwWh1IxXWz3HbHK0tPA54ocX4paBKSpSlCf4Uo8CEIApPxFiWZXeRoQKZoZOaIXqq+19tEFEWYTgu94zcQBBGjzx8wvviEqFZdqgedgiCi0e2if/obeidvoVsNAFXJcdNpYe/1H0iTGJG/4okSp0Ic+JgFRDVPVjXSQ58kMBpNSDIRhhievUccBsSkVlGgmTYRPkgSZFm6tbK07QZ+2wqqohswbAeaacN02tBMm1W2dKvBFOnSJKkkSrRFTpRk5HmGwCXzWXrxWvW5QGLgqiGJQmbA+DVYBad4HVlRodsOTKdF5pZSMtMU+R6igMwxCYIISSYJn9FoQjPt9T7vYJtyFofD+bXxFlNMLj7BnY3X10Bx+zVyF+VOkPpikyhJMOwmNMsuqtQOS5JkRV13FPAk6cnBEyXOLwUtkUf+Cu5kBEEQ4PT2SelakiErKqLAQxwGRbCTs/Ymsb6CXjPuvOv27XaPOWdHgYfZTYws9ddD6rXVJ91qoH/6Dntv/mBJUuitEPorpEnMAk/VMGG3e6yyxHm5UGNVSVEgK8TnIwo8JFGIJArh6WbRopkwgYc8z5FEIWRVg9XqQlZUxGGAwF2wymeZulFr2cG+nFTR3+uWU3gInaDZ34fhtKBoOmSFCCyUqz1UqAGCwCS0qfCCtyCtcYG7QOR7yJIEut0okhQZYrEvutVAbtrfHDDUB6E104Zm2qxVjiZM9H1LksyEJ+j73RimLv+79DheGeJwngeR78FbzJDumE36kRZmUZJhNJroHJygfXDCBGEEQUQSh4V5ds6uUeXrMb+2PD48UeL8ckS+h+HZe8yHV9AMC05vj6nISbIC310g9Fy2gkPb3LKsOrz+rUlS+blksPwIq9kEoeciDvyNuSLSjtRC9+gVE2+QFRVJHGE5GWJ49h7udITm4AD9k7cQJZkNkXIPpefNLpVE+ntRkqFoOux2D629I+RZhtn1OeajK8SBD8200Bwcsla35uAQR3/8X4gCD6puor1/jCQKMbk8QxKFWxMluj1BWLeLAjkEQYThNMlMjqIyY1zTacFoNNHoDFhiv6s6K0jSxuwf/R2V6SfVMAWKbkBWNCKhnefIsmzj+1n+3TZ2rcIKtQSIHNsf8EfZ8nocDufXRxCEwjC+mpiIogRBFL+qoEmvZYbtME/GOAwgKUSwodHpo7V3BKvVhem01j5OsbJ+EWpQX6ta82TpceGJEueXIk0S+MsZrj/+C+50hMHr32E6bSL7XQx4q4YJ311AVlRopr32JaDGj5JcVfm6RZlq19/yPIfptNA5OEHouUSeOCIqeETGWIPd6qK1d4TeyRsi71zsB1HyWmF69RnDs/fwlzMmm7ycDJFE4c7eZs798rXWtPveNhVAoElS//QdBq9+hygRQQPVsOAvZ2jvn6C9fwxF05HnOToHJ7DbXaQJcZjXTAuz6wssxte3b1MQSPWqeN9pHLNW0M7hK1itDlFl0o2tLXJ1tn1fKq2oggBVN6DqRM6czQkVxs5ZmpJgobSiSr3LUKtwbdt25Wdq/FxTo6snXOUk62uVpG3+KxwO59fHaDTR3j9GmsRwpyNIkgxFN6DqJgRBQBT4iIp2/0IbFEDOOlmoF6PT24NuNZAmCSJ/BUU3YLd7RD3Tdja2y/waS9dI5Pn62sV5dHiixPlloCpZi9E1luMbpjxHvVUoSRytk40SdQ8aym2B17ZAiAZasqLCKYbpzWYbceAjzzNIsgrdbsB02jBsh6lllffDaDRhNTtYmNeIwwCr2RiGQ3ycqJcSRZSkqnnld5h3cu4GbSEDiBgBlWuvU/5MdlX/yoO9d4HJa8syTKeN3slb7L3+A1arSySri/aN0HOh6iaSKIQ7G0MQRGimBdNps/a75fgGw7M/Mb36cms1icz7JZBEFapuIspXSOIIaZoQUYROH3a7x7yEvpsdVZiy0APdp/rj6KLB14KGbc/Z+bfa83bNHeU7nrNruxwO59fEdNo4ePcfMJ02vMUUAKAZFpt/9t0FUcSbk78pukHigEIt02p1YbU6bDY6S4lnniTLUDTj1jlLQRCQ16wFKHwx5vHhiRLnlyJwF3CnI0SBR3xZdBOKZrCV3zRJyPB6OTgt/pZlRK0uiegqtkxmIgofpF3s8mCgLXiKpsPp7zO/GElWbpUdl2QFdruHvTd/g6SoiEMfim7AdFrIG014iym8xZSttguCCOB2BTPO11n7AJH2Mpq8ZhmpAqq6CaPRhGqQFcRw5cKdjRF67q1tFzRZIgm0yBIn1sq2RQlxF2X1RMN2YDbbLMG3mm0mKR+slmwWTxSJ+IBcqMYF7gLn//pfuHr/3/DdecXQddu+5wAUjbTECYIAeC5TftNt505CCpRdCm93TTS2Vavu0iJ7m7LcXdjVTvc92+VwOL8O9JqrmRY004Ld7rFFWCpSA5C54kVvD6vZBADpXJEkmQhGFS13X7tW3pb08GvJ04UnSpxfhjzPSbUojpg0sdlsE3+k0oq0aliQisBRLZlDxoGP2fU5FuNrpHEMo9FEc3CARmewtdr0tQsXveiJkgzNsCpB7m3tSaJEpIbb+8cwm23m/2S1OkiTGOHKhbeYYTG6Jl4OsgIBVUUcup2d+8arTRXIsRJY8krNROnqn2E3YTQcGHaTSVf7yzlm1xdECWk6QrBasterJ015lkErvHYEUUS4crGakxuqrGqsSpVEIUuoSZWoWnWife3zmwvMento9g9gNtsVFTZq3JrnOdI4Liqf68/bW8wwuTxjSdIu6saHsqpBKMQXGt0B7HavUgnlcDic546i6ZBkBVmWMk86gCRGxNy7xwy0BUGEKMvsusl5nvBEifNLkcYRsiSBZtpwenskmFNUMsdQtPBo5jppSZMEWZogWC0xuz7Hzac/MR9eIo1jNLoDSIoCp7u3c3t3UZ752sxG+XXKz6ErWACpdolFK1T36BW8xbRQ4Zn+FFfwl4woSSwZ0m0HoiRBM21YzQ5Mp0X+VngAlVcEnd4+rFYXut3AYnQNdzpCmsTwl3ME7oI9jj6/e/gKdqcP5DlmNxdMXc1oNAszVG/b7lXOLUlWIMoyFFVnEviaaW/IVdM5JICY1hLZbXL+p0lMvic1qVpgd3ItKQoM2yGLDDIRh6AtdxwOh/PcKbcAi4XwTF6IywDknk2tEHY9P7tlgZJXjH5deKLE+aXI85yo2TWaMJ125aKV53klaUniCKHnwl/OMb36gsnFGWbX58x4kg7C32X2YpvyzF0UuOpD4/XEiV2YS3NHuu2g0R1gOb5BsFoQg9vkbnMunCp01U+3HHQOT9E5PC2SDJslILQtTRSlDTEC02lBkn9Ha3CI0FshCjxcf/wnrj78k8nOW80O9t/+vRAWIZ49EAQyJyeK0K0GlpMh/OUMWZauW/O2+GzQgWC73YXd7u+s6BARBhmG7ZB9Ls3wUJl5bzHbOWMFVD2TBEGEbpNjRP2EaCsfh8PhPGc2hGDoz3lOrtnC2ocR2G41Qh9ftw/gM0a/PjxR4vwyCIJAjDPzvJgpMbaueGdZhtBzsRheYXL5Gb47x3J8A3c6qgSOUeAhcBdEwvM7h9Vvuwh+TU2P/r9SkRIEaKaN1uCwMMb04U6HG543nLtBPgPyb91qwOntQzPWlbxd0JVBWVEhN1UyG5RlSKIQWZog9FYI3AVU00L/5C0Of/8vOL09tp00iYvHucjSFHHgIw4DAIUQRGlbkqxAtx00+wdoDg5gNTtMAETRdEjK+hwvn2/bKpl0AcDp7cNbzMisWxRBlCTW8rf1/RY+TVS1USoqVABfCeVwOM+fr17naBJU8mDMsuyrHms8Wfr14YkS55eCGllmSUICv9JsBg0c0zjCajbG1Yd/4OrjP9njs6yqJCcIIrzFDNOrL2h0iTfMrja6XRe6uhodqwzVFPPu6gtDn0/8l14jcBekEvENbVScNXmWIc0yRIEH310QudZbWifY51F8fhnWnwlVOLLbfQxe/YZgtYRuNdA+OIHZbFdeS9EN6LYDbzGDOxkyFSVRkkj/e+nztFod9E9/w96bP9Do9CEpKvHuKGStN2Srixt23TCZKNiRvnqz2UazfwBBFBEHPgAQv68iWauTRCEWwyuIooQ49JlzvKobEH5E7Y7D4XCeOPV7cfk+zeaU6GN2VYpq9/iyqT3n14YnSpwnx66V7CSOEKyWWM3GyNKUCSFYzU7lsVmaIvRWcGfjyixJnTgKML38jCQKsf/27+ifvoOi6d91YftW89qvPVYzyazIYnQFzbR3BrgPSVnZDSBqcbsqFE9FwlyUJGRpShKBETEopsdSMyzWhw7U5tEEAfQTKickgiDA6e1B0XQkUQhF0ytiC0kcYTWbYPTlI+bDS/jLOSAIaPYPIEoyVIOYH0e+hyQOIckKOgen2HvzR/GY7UnJxk25lCyV9z1NYgCkqtU7eYPW3iGSKEIcBphefSb+IIUxolC0B9J9BAB/OUeWpSzhkpQflAXncDicXxRBECoWAVvv27dYD3CeBzxR4jw5diZKUQh/MYM7HUEQRITeCnEYbKzakEAv2fraQqnik0QhFuNrrOYTZhhnt7p3lkNmAXQpkLyt8nTX3zPHbkWFbhE/JhrA7qomPURCIopEFEEzLQiCCN+dM8W+bTy2aW5Z6S5LUyzHN8jznEjLixKag0Polr2Wz64Ld9RWBil0oHfbebqcDHH94Z+4fP9/sJpNoNsOBq9+Q6M7qPhrRP4KWZoWFSpiRnhbQrLN24f9XJyHtKIEgRjWGo0mU2P0l3Moms5ms0ynBVGSsZzc4Oavf0OUJNjtHgCSxEW+hzRNqm0lHA6H80zZdY/eZk697W93+Tvn14QnSpwnx66LC5mj8IvANmdtTHWIWtxsI4jflVwkUYjp1RfSPpXnaA4ON4Y177K/P/MiSVevjEYTVquDxfiaVcdESQaQswD/PignDrRNTFY1NPsHTBBh9PkDhp/fb0hQl32DHp+c/T8OA+a4bjU70CwbkiwjiSPIqgaxEE647cZY/jv9fxwGmA+v4LtzTM4/FXNxC+hWA53DU3SPXsPp7UHVTYiyzNpHicSsXMjRfv1SvO18qrd3yupagIHIkpPXpcIMje4AqmGSfSnMbadXXyBJROlOEAQEqyVMpwXNsLjqHYfD4XBeNDxR4vwypEnCZpJU3YRuNaBZ9tbKUxR4rA1pF1T1SxBFeMsZbj79WajgyTCbbSh39JD52QlBuUKmGhaa/QOsZhMkUUiU1O45CVknScSclf7ObLbRO3mD/bd/Z15DUejDm08Rh/76+YKIPM8eve2OqspVqkVZhijw4S1nUEbXTPygLr8N3K0KGHouZtcXuPn0b8yHl1iMrpFEIYxGE/3Tdxi8/h3N/gF026moIJX9vYDdM2vb2LaKSc8Zajxbf11Rkog3UqfPFgGocIOi6tAsG629QyiaDn+5gNFwiJQ6n4PjcDgczguGJ0qcJ8e2YDHLMmK+WgzUa6YN3WqweZlycqHoBnSrAVU3sLrjNukMSxz4bGapvX/86BKfmmmhfXCCKCAzLbPrC5YA3lc1aZtstW456B2/wd7rP1iLVv/0HWRFhTsdYzG6wmo+QeAuSAvYE5IzL78fUv0irWhx4CPPMvRP31UqJ1/7vOl5tpwMMTx7j/H5J8xvLhD6K6aqSOeRdKsBRTcqCce28/tbZ9y2vdbXBofr21jNJ/CX88JDifpIGZAVkgTzJInD4XA4Lx2eKHF+CbI0QRrHJADViU+M0Wiy1qJykCjJpJ2JtKgRdiUVZdEBNpuRxGSlvZjzKPvJPHTCJCsqnO6AzVwJgkgMc0tSzz8zYSJy1KQiQY1LBUGEpJDjQUUAAMBudWE2WszMd3ZzgenlZ3iLGfF/Kl5TeMQ5JYooSVA0A5ppQZRklhCnSVycK3fz0gLW823j80/48s//B4vh1Ub1UpIVSIrKpLYB7DQj/N4kqfz8bR5d27xBqKO87y4wPv8EdzqCZtpodPusVe8ubYAcDofD4bwE+B2R80uQZxkz1lQNE0bDgWpYrKJUDjTTOCaqYiXPpHKVgLbblV+7TOi5GJ//VSiHvYXc3GzLKr/efcwo1SHD/jJESYYgiphefkZa7PfPTEI00yZeQ6aF0HMxvfoCfznHajbG9OoL7HYPxMDVBlCYpDotqIaJ5uAQptPC1Yd/Io4C5HlIjvUjizoARBije/QKRqOJ+c0lsixFq7+PRndQPRdqwg1l2ExSFMKdjTG/uYA7GbIkiSZbtGolCAJEWa54a9BtMJGEn3SObJOlrf9eEATkAvH+CFZLpsrXOTyF1ewwGVwuacvhcDgcDoEnSpxKYHSXIOkxjCjTwjdJkhWYThuNzoAod5VWv6nqlzsbYz68ROi5W1+rLAld/pkmUGkSY3ZzAVEig/694zeshaoeeNLtlvmaGMC2537tWNLKEp1BUTQd06svrCryo0mIIIpQNB3t/WMMXv8Oq9lBsFrCaDQxPHsPbzHD7PqcGPOKEpSTt0wIgcyEkTa2LN0tGf6z2Vap2iZLrtsO2vvH6J28hSQrcKdjSHmOzsEpnO5epfJ4FyLfw/zmEvPRFZMaLyvsSbICq9UtqpHa9vPlnr47tyV6ADku1IA5jSMYjSaa/QNYrW5FEbK8vxwOh8PhvFR4ovTC2RZU3ZY4PYSJGm1RKiclaRKzRMloNAtDzAYEUWQD63mWIfRcuJMh5jeXCP31hBJVZqMBrSCQ35EqAPkZpaH/NI4wvfqM0HMR+Sv0Tt7C6e5VWs/KxwRFtWvroH2tglVZ+c+ytZFdjfKxpn/XbQf7b//OZrRm1+dYjK5ZdWkbd2l9k2QFTncPrb0jtPdPoJkWrFYXVqsL3XJw/fGfmN1cYHz+F+x2jygDShaC1ZLM6Xz5C3EYYDWfIPTcSjWveuy3863J1c5Wyi3zRc3ePjlmhgXfnUOUJKi6CavV2fp5fg3qPZTGUWX/c2SQZBlObx/dw1dodAYbog10H2/7+Vspv9+vtYZmaYLZ9TmW4xuYThtOfx9Ofx+yWk3oeJLE4XA4HA5PlDi4vYpU9SfaTGDo87e1+nwv5ZmL8msJggDDdiApKoxGc10Zoiv0JTnrXVWWPMuAUoxNtrFOWsphJp1ZytIEeZ4TeWzdID44gQ+AKOTJirrdh4f8cPv73JKQbkuQ6O9EUYRmWth78wd0uwGnt4f5zSXiMIDvzhGu3IqoAHvPqLeGVed2nN4+ukev0Tk4gdVskycqgKobkGQFcqEA6E5HhaJghDw32eslUYg49L+7urWtEiSIIkRRYp9zliZs3zeSzyIZLEuVC6IIwybqc629I0wuPmF49gFZksB0WtCtxoYM/F1m0OIwQLBabJgAC6IIo9FE5/AUncNTmM02RElCEkekrU0Q7jUJqUuFV9pRkwRR4GE1myBcuVB0A83+AVqDQ2imVX0fPEnicDgcDgcAT5Q4NZhxJZ0tAQmEabIgiOKGlHJ55iLHjwda2xIOEtQTGWNZ0ViQzIL+IjBUDZMYx7Z7yLIUcRhU3gdQDcbrydE2Qm+FxeganYNToE+qW/6S+DSpholGdwBZWs93sNcvkrd6wlNGFMWNAL38fLbvhfdOnCTsWLQGh7CaHXSPXiNNYixG15hdn2N69QWr+QRx4Fe2pWgGBFFE5K8KiWqTBMt7R+idvEGjM2BmuzQpFovgf//t35HnGYZn76EZFvucqFeQqhtI4gjL8Q2W4xssxtcVH6uvCU6wc6ZU/aIKh6phMpPWyvFFVfq7PgelGRa6R6/g9PeBPMfw7AOuPvwDnYMTaKZd2f5dkyTy2AxJFFWSMlqlanQGaHT60G0HkqyQzy2OkSImbXklYZCfyW0LFXlOPKQWQ6JMKKsaWu0jWK0ulKLixeeSOBwOh8PZhCdKnI0AKYkjuJMh3NmYBHlFixFdMW/2D2A6rcrzc2CdLP2EoGtbC5UgiFBUvQg26TxFtXohSjIa3QH23/0HmoMDxGHAVM6oHDKd6ykjyQqRFDctMsexnLMZJ9Uw4fT2oNsNEoiKIgRRRBwFiEIfKBIGprRXe+/fIg1drwoAJMFbToaYXZ/DW0wBAEajhdbeIex2D41OHwCgWw1YzQ7sdg/L8Q3moyvSIpbEUFQdrb1DqIYFfzkvRBjaaO0dwunuFWIRJeW3InHIBQGiSMQbesdvSLJq2mz2RlZU2K0uVN1EnmdodAYIDomi2vj8L3a86xWgMruSVXoeiaK0Pj61JBdARV1PVjVohgXVtNA9fIXeyVuouonF+JodO912YLU63zSbVKmsJgni0GfeUdSIt7V3hO7RKzS6A2iGBVEUkSZJ/U3deZvfw0alt0iw0yQG6EKC00aj02dJMYfD4XA4nO3wROmFsy1wD9wFrj78E8PP7xF5KyRxBFlRISkKmoNDYtKpG0w2mwWxP3G/ds1OpWlSBNx0Bb3mo5TnsJodqLpJqmBZBklR4C/nmFx+xuz6HIG7gO8ukMZRkUhJsFoddA5O0RwcIo0jDM/eY3r9BQDQ3j/G4e//hWb/gCUHutVA5Hvwl3O4kyGSKITptIokglTctslBJ3FUkfUWxbWwBPlZZO14lDSJsRhf4+rDPzC9+oI0iaGZNgavfsPh7/8DvePXAIhinWpYsNs9rOYTWBdnTNRCM0miY7WISIOsaDCbbdbKWG9BY//OMrY/ptNmc2Fl3yFJUWHICiAIsJod5HkO3WoU7XhBpQ3wrtBKUZom7JhtJB01VN2E0WiitXeEZn8fvZO3xRzXBWbX55BVDXtv/kB7/5gYwNbEC3buS61KQwUssjSFrGpodPrYe/MH9t78rVAFXFdlAUCU5eI1xHsRcdjl+5QmMZIoYosCVqsDQSCqkXUzZV5N4nA4HA5nE54ocRhZmiL0Vxif/4Xh5/dERrnw76GhbhJFyBKSgHQOT2HYDoB1MPkzqknb2qDoHEzgLiCrGqxWl2y3aLdijy/atRRNr+yHYTeh2w6a/QNEgYfF8ArLyRDeYgpZ1dA/eYv+6W8wnRaSOIKkKFBNC5HvwenuwXTalddTNAN2uwdZ1RC4C8SBD794/5phQVY1lnxkWYbIX2E5GRLhhTiCZtqQFJJsiKJEAu7uAIbtbJV5VlQduu3AaDRZcpfEEULPReitmBeQIAjQTAuSQuaKnN4eS3StVod5UImSXNnHDWrJAZW6lmoqg/RvdbEK+vpSqWpz2+wSVRWUZIW8tyhCsFqQzzxJ2IxSHVGSoBoWNMNCc0CqOk53jx0rFJ5HoiRj8Oo3ON09GE4LmmFBkuQ7GcvWCT0XfnEedg5O0T1+jb3Xf8DpDqrHpvgu1M1s68fuZ0PVHyPfQ+ivIAgCFM2AqpuQFZVVDrm6HYfD4XA4t8MTpRcOnX3Jswyr+QTL8Q1uPv2J5fhma2DqLaaIowBZRuaW+qfvoGgGC6B/RtC1K4DLshSh5yIOA9YOKIoish0tf+WfRUmC3erCLhKseXcP06sv60Tp9B3ae0fsmEiyAsNuwnfnMBqtDUNSSZaZIICrqAhWSzYLQv1oaLIRrJZYjK5x89e/Mbk8QxKFxLdGkpHnGatKKLpRSZRYRUKS0ej2IYgimv39okoTQdUNiJKEOCKJk1DMO5H9U+B0B5vBO1CZQyor0m1TPduVSGxLZgVBQBJHTEo89FykpXNIlGSWVJHkNgMgwG534fT2mbmvpKgIPRez63PMh5esekM/A0EQ10IUlg273YPV7KBzeIrW4JC9vzgM4M7GTOa8e/gKTm+vcmx3JfbbhDSAqvqi3eri4Lf/QOfwVeU4Z1lW8UnaJhixrcXyZ5FnGZIoJC2mcQxJUSDJMkuStpnTcjgcDofD2YQnSs+Er62Ml6WoxVLLUZYmCNwFluMbTC4/w52OMB9ebszwlIkDH9PLz4jDAKG3Qvf4NRqdPiRZ2ZmofAtU4KD8XElWoOomBEEkQWBJmplWM7ZtK4kjFmSXRSga3QG0omIEAEZp5orM5DQgShIJ3lVtnfxgMwEzGk02FC+KJGHxl3My45XECNwFE1oIVktSJVkt2eeimTZEUdpoUWMVOlEkFShZgd3uIo1jZFkKUZRI5UjRiqTrduXB+u+2CUl87Tm7fk9/Dr0VZtfnGJ//hfnNJSLfYx5NVrNDBAQ0HZHvkRZOTUej04fT34eqmyzhiwOfHfvF8ApR4BWVQpJMGk4LVrMD3W5AtxxiQmw7lbkbfznH6PMHhN4KVqsDSdk0Di7v+21JIYokmO5H/+Qt7E6ftffRx7Fz45bjRreTZxmyPIMgiGyhYdd35rbvEv0b3X6axIgjosi3Tj6VUqLJk6Onwo98FncVH+FwOBzO98MTpRdEnuco35ap79Dk4gyjLx8xPv8Lke8hTeKvqpQFqyWC1RJx4COJQgiCQFrRdgSj30o94VI0HUajCd1uIHCXTCqaVkLYTAhbsc/gzadYzSdIohCSrBQzPCZESYYkK5AUFXYxdF9HlCRops0U3upy5VQVkLQ16ZUAPY5CRIEHdzJEsFoi9FwEqyUkWUFrcIg4DOAtZ8iSBKIkQtVN6LazcezKFR5RVHceWxZ47/DTuS0Y+xG56u0BPalSpXGMJA6RFTNlskJaC/fe/A12qwvfXQB5zsQF6hLVAJm5klUNptNC4C6haKT9kKoaklm0TZ8ish85osBD6K0A5HcSLtg16wOAzUqRWbT19qmoCasilT6zr0GPlSDmEHOpkrB9reJTTrZoMl1/rqIbRRK+eX7zZInD4XA4nK/DE6UXApkbqbaPiZIEbzHD5PKMtUoBdzMopXjLGUZfPsJoNGE1Oxt//9YWn20eQmTOQyZVg0YLKNK9OAyYYWieZYgCH1HgAXmOKPAxufiEycUZotCHJK2fb9ikAiHJChrdARvAr+8DJctSotomCBCKOaDbAtgsSYiKnu2wZI4kAzZ0m4gcLEZEPluUZdjtHtr7xzCd9tZjsK2aQAPzusntY7VU0X3WrQb23vzBWuzGF59I61yWQpIVmE6LmNjaDvIsY5LZ29CtBnrHb2C3ukiTpKieqVA0ncw/lWZ/6D6U1fFU3UR7/xhZlrIKIUXYktDcesyK16Zy5YpmVBLXchXpW449/YzL+5NlGWtNpBXKcsWIvj+aaAFgXl55njMFR0EQd8+gcTgcDofD+So8UXpBlAO4NEmwmk8w+vwRk4szeIspa1ETBBEQbx++p8SBj9n1OaxWB83BAZze/sZMxvcE7fXnpUlCEgtJImIFtSAZIEP28+El4oAYn86HV3Cno4oBq9Pbx+DVb6xFKYkjJHEEu2gJo9su/lGZKSkbjNIAXxTFQqzBQ7BasFY+RdPR6A6I8t4yh9XqoDU4hNlsI8+yQlTChyTLRHjAbkKS5XUwXKpOlPeJBsx0rkxWVAillqrHbseRFXUtHGGYRNWvmIOjQb1UE4Wg1A2NRUkibXaFYMhtlH2/Qm+F1XyCLE3R6A4gShIRzKgnNluotMZtaf+UVW1DBON7k1NBECFIYqV6S+bGSsa6eQ5JUNhnTpNj+jf6Hc2yFFKRUIlbji2Hw+FwOJxvh99RXyjBaonh2XtMLj7BX84r5plAEfTdUlmiq9xZmiLLUnjzKRaja+iWA93aNPNkr/kVdlVrgtUC8+EVkihkFQVF01nAKogi4tDHovAOEgQyF9M5PCUiFZMh4sAvJM4PoFsOlpMbrIphf0EQ0Bocbt0fUZSQ5TmiKEDgLpHnGZm5aXUhqhrSOMLs+hyjLx8Rem5RVfkbnN4e3MkQcehXZr4kRUWjOyjNjEkQJakqJ/6VuZmnBv3csjRFFPhwpyOsZhPmNZTGEZFlX843kmmg2spYkdb+SkWEHp/y47zFFMOz91A0HYPXv5Nqkih9VZq7Xkms+F+JIqRCzl2sJTb0/d+V8uxZeTusklQW2chIVSnLUpaEExEPGaJYrjhuzvVxOBwOh8P5MXii9AJJkwSz63Ncf/wnZjcXW4Qb7hqcrxXMlpMhrj78A7KqYfDqN+axBPx4sJ/nOakSzMbstbzFDEIhukC3peomrML8lCYgdE6FijGIolS0xTWQpQn85RzL8Q2c7h4wqG24PCMEmb2GN5+yticqDz4+/wuTi0+QZKVQtJNKam0ymWNiAa4IUdxsN/sWJTSayNLnPYVqEkBU4bwFSZppVQco5N0L36osTYBcupNMdT2B2iZYkSYx0jhGFHhIohBXH/6Bm09/wnTasFpdMqdT21a5GrO1dXGL3DmwTmq+JoJxV+qJIG1ZZBW3UmseU5YsDI8FQYAoCKz6+CPzZhwOh8PhcDbhidILg7bczYeXcKejjSSpPANxFwRBQA4gDn02q2S3uoVXj7Q1wP1WqC+MKEpI0wRx4BPvotBH9+g1a6my2z3inSMISKIQs+tzeGdTpgCmFHLa/nIO02nDbLahT0cI3AWIVPXu9whRZCalq9kY7nRUSZS8xQx5nqPRHaB/+g6SrDBpazq/RVT7qu9/W3J022PosRQleeN3X3vdn8HXPsc0ISqKwWrJKiAAmJodnSeDuJapJlW7amJCZ3VY++P6jxsJQRwGWM3IOe0vZxh9/ojlZIg0iTG7PidqeIUseJ5lyDIiNkE/c0EQmSksmw3D5v5QysINP0sII8/zSnW0/lhBFNlnvjFXtWU/eHWJw+FwOJwfhydKz4ivqWYlRYvY8OwDhmfv4S/nG69x1wQpzzIIUil4TFNkqY/JxRlMp83UyirPqSnH1fdv63aKlX/NtGC3e6wqEQU+4jBg+0uSB1KliMMAi9E1Rl8+YnZzAUmS0T16DVU3ICkqvMUMqkGqSGQ4nxjE3gYNYjXDgijLSKIIobeCIIpQDQt2u4s8J/5LcRjAd+cI3CVUw0Sj04fptLfO5dz1OOx6bP1z/llVvLtQ33aWZfCXM8xuLrAYXVd8uFTdJL5TtkMCfqEqWS/UWg/Ze9xyXMrnUOR7cKcjLMc3mN9cwFvMiiQ2wXJ8g6sP/0CeZYjDAGazDUlWiL9QoezIpLm/NfEpHe+ffay37QOvFnE4HA6H8/DwROkZwsQAABbQJXEEdzrC9cd/4erDP7CaT354O/W5JoB414zP/yqSg1axC0JFxrgeWNYD/22JgNFoQtVNxFFQJHg5pELpCygSPFFElqYYffmIi3//b4zP/wIA9E/fYfDqdxiNJvHW+fIR7mTEKjy0fW8X5f0J/RXSOIYgCEiTGKIowentEZ8eWUEUeJhefQE1kjWdFhrdwc7X/9Hgd9vz7ytJqidGdYGJLE1YohL5K/Y8UZJhtbpo9g8qCWOWpkVVR2RVmixLCzGRtTfW1mpOsX3fnRPBjkKxUVZU6LYDfzlDlqZYzScYX3xiAgdms40kjpBnGZk5KsRLhGL+CLWEcxs/Q0mu/vo/OwniSRWHw+FwOD8OT5SeCfUWN9TamYLVEjef/sTNpz/hTkcASDtUeVbju7ddSlaiwCOGo50+rFYHVrMDKqtdp6woV34f5b/T15dEmUlD06pAThXCiqpElqbMsyhNYtjtHux2D72Tt+gcnEDVTciqhtBzyayQJCFNyGwL8Y9KNmZTKEkcYXr1Bdcf/4Xl+IbIkANEXEI3oBkWdNtBmsQIPZfNT6mG9dO8pcrUk4csTZgIgKQoG+a/90FdIS5LUyRRSNQBBQGaaSPPM+hWA+39Y7T3j6EaJns8gKrIQjFXxn6m50fpXC5vkxzrVSHSoaI5OIQky/CXcyxG10iTmHlUaYbF5MUBcq4SLy2inihK8jdVOuvHgcPhcDgczvODJ0rPiLKsdLkdKo0jTC8/Y/jpTywnN+zxgiACyO4s3bCNio9PIexAqzaaaRMfnHav0kJVrxJUhup3BJ1slqUwgtWtBqLAR5okSJMYkqwQgYUshayoaPYPYDSaaO0dwXRaLEDWDAvtgxMApPrgTsdIk5gZ6KqGyR5bkSePY0wvP+Pi3/+LJEKCWEheJ9BMC629I6i6iayRAhCYKt4uQ9SfSpHsUgluIgawKZ/+s6kkayn5HGRVg93uQZJkSIrCvJV6x28Kqe61BHrdH4jO4gBF8peRiqVYzDMxUQdBQBJHpHo1GcJ3F2h0+mjvH8NotJDEIRbDK+R5Ds20iRy5ohbJksp8m3g7G4fD4XA4nNvgidIzYltLkL+cY3J5hsv3/43lZEhmi1iAmv3UNq2ypPhyMsSXf/4/cKcjZqaq6Abx/lE1Ni8kiiJyoWqqWvfTyfMcSRwhSxIiCS5JMBot4mcjScwMVpRkYjJ6cAKntw9F0ytGo0kcscBdkhUIogi73UUcknmn5fgGTm8PSm1eKS9awqiRZ5amzFPJdxdYToYwnTZrwUuiEJKsMGPSn01d3AGCwN4PEQWQ7iUB2DU7Q6uSeZbBanWgmTYTCaGft93u7fQx2pawiKIIQdheFRNFEXEQYzm+IbN27gKKpkMQRciqSs6toqJWNrOVZIUbsHI4HA6Hw7kzPFF6RtD2J9pOlkQhaRf78E+MLz4x01VSScq3zhh973bLYgI5iBHt9PIz3MkQi9E1Gt0BSzJMpwWnvw+r2SEBbilQ3taGRwPxJI4QrJYkaZFkNndC559EUYSqG1urOGmSIIkiZGkCUSLmo6IkwW73AZCEJ8vSSisZe39FIub095HnORbja3jzKaLAg2ZY0EwbiqZDNSxYzfZPOaZfo36chGLe5jGgxz/Pcxh2E5ppVf9e7GuWpkiLFsEygihCkuRqdRIlhb/C1DdLE+YpNB9eYnj2HuOLT8jSBJ2iSkhFPe5iUsvhcDgcDodzGzxRekYkUcjMVRfDK0SBh9VsgtVszJIkAGtZ5FsMZe8KrVDtkhWPwwCL8TX85ZwF8q29I0iKQmaGFBVCMStF9m2zwiWKImRFRZYmuPn0b8yuz2E1O2j2D6BZNmRFW4tX7ECSZQiCgdBfIfK9Iqh3oBomHGkfptOGIBKTWjY7lWWs6ibJCpzuHnSrAavVgbeYAXkOzbJh2E2YzTbxb7oHbhO7qP/9oaHH6rakWxAExFEIfzmHv5jBL+TYhaISZrd7sDt9KFK1kpcmMbIkYXNNaRwjjF0E7hKjLx8xPv8LSRRCLNr8ts1lZVm2tYr0rZVU3qLH4XA4HM7LgydKz4go8LEYXePmr39jcnlWCBTUzWTXyQ3w85Kl24gDH3Hgs5/TJGZtWElnANNpQdF0sj875JZFSWIS3oG7ROitkCYxWntHhWjAptcQa+VLUyJ2UArob6tC0edmhaksbeFSNBGaSUQbIt+DJMtQNKMi+12RvL6HGZinGLCXzVDFksx3liaIfI95KvnunCRLyzniwEeaJpAkGXYxX9To9KEapBqVxCEWo2skUQjdakAQRSLU4S6xmk8wufgEbzGFapho7x0XrZYG8xoqi5TcJVl6iseVw+FwOBzO48ITpWdEWrSm+e4cobdCnmclY9J1lUQsV3B+MEn6HpIoxOzmAnmeI41jSIrCEiVgu/w0QJTJuoeviAT45w+YD69Iu1ury56f0XmlkihA6LkI/RWQE0lxzbSh6MbO4JhtT5S2VkpkRWVzQNvMQVFrIXvO0PfLRBIKmfA0jhFHAaaXnzG7uagYvGZpQtoo3QWTrZ8PL1mylOc5vPkUi/E14sCHZtrMH4uKbkT+CopmoHv0Gge//Qea/QOohlk9d25JVJ9SVY7D4XA4HM7ThCdKz4ki2IvDgJl9ElNY8l+epUVgL0AQtvsgPQRUOCEOfJLYLedo7R1BtxvQLQeaaVWEHCiiKMLukJmiJCIVh8BdwJ0Mi7mU5oZyHpUsD9wFREmGQSWh8xyhR7x+0iSGv5wTEQZFhdFwCrU0Ze2zUxMf+Fnmsc+BDRXDYk4oSxKsZhNMLs6QRCFUw4RukdmhOAyQxBH5dxQgnQzJXNvVF+RZxs6LLE2g6EaRtCZMREPRDQxe/Ya9N39D7/hN8ZhNaffbPouX9jlxOBwOh8P5Nnii9IxQdQNGo1mpzpA2smp1Zld720OSZSl8d44o9LEYXWH05SManT76r35D7/gNa4XbpoZmNtsYvPoNsqrBW0yxnAwhqxpkRatUFQAyj5XGMfHN0YgARBrHSPIQobdCliYIvRUml2fw5lNoll14/pzAaraZzDYPqm+n3O4oyTJrlRQlqWh9JEIZskpaLonMuwXdciCIItJC7nsxvt6ocqZxhBQCUBKy7x6+wsFv/8nUDbmaHYfD4XA4nJ8NT5SeEYpmoNnbR+/4DZIoQhR4ZBakNqdEkiThpxnOfg95RvybspTML/nLOVbzCdnXPEfn8BSqbrKZl3LVQlZUNLoDAGCVHRqUb7ZUiVANE1mWMllvmvzkxQwS9esRRBGiKBW+PdnO2RbObsqtb0kh4BB6LjTTRrO3TzyWFAWaaUMQROh2g4iQzCbMl0o1TEiygsj3EPorNmMGgPlTDV7/ju7R64fxqeJwOBwOh/Mi4YnSM0KSZdjtHvbf/h2SrGAxusZycgPfXSAOfKZOR2JZ0o4nCPghw9nvgchAl81GiQdP6LkYn3+CKMmQVY2YuEoGMVRFdfhelGRYrS6bwdJMG7KqVbyYxEIyW7cd5FkGdzpClqZQdQOyohVCDAqTGW90B1B1E0ajCUlWkKXJTi8fTpX6MUrjCFFA/KlESUKzv4/B69+Zh1Vr7wiiKEFSFKxmE4jiWqzDbnchCCIW42sm6ECFSRqdPvqn79DeP+ZJEofD4XA4nHuFJ0rPgHLbkyhJaHQHLBhdjK4xuz7H5PIMwWpJqkeiyMZ4Hq8FL6+0A+ZAMZuywHx4iUZ3UFSNjMrMEX28IAiQVQ1m4VtEpaHZ3FVpRkWSZGRZimC1hCCKMJ0WVMOCSueMChPaLCWmspIss+oSV0a7G3WlQYC011mtDgRRZMmNKMnMHJgKYUiyAkU3kCXE44oq39ntHtr7x6Q66q+QxBFMp4XW3hGsVrey7TL3oTbI4XA4HA7n5cETpWdAnues6gKQ1jSnt8f+o8nE8PN74iFUtL39DGnw79rfYvsUUZIgSnJhBrtOXtbqc2IlEBcEgUlQK+raeyfLMqRJzJIc8jJrfybqJZXEEZDnlQpUea6L7Sf1U9riXcTZQvkzEknLY+fgFM3BIZr9A+hWo6K8SNFMG6phbbQ5Ws02soxUG4n4QwhZUdlj695b/DPicDgcDofzM+GJ0jOAVmS2raTrVgOdg1NE/grudITI9x5nJ29h3Q4IaIaF7tFrdI5escoCDYS/Oi9UDpzLqmeFYa2kqExpTzMtVt1IkxgozE+3KafV/83ZhB5nYP15KaqORndAkqbCjLf8uPJzdx1fURSJ/LhsI8vMrY/lnxOHw+FwOJz7gCdKz4CvtRrplo3W3hGc3hm85QxJFD5KJWkX5QqTohtodPqwmp1K4lOXny7/u/Letxi9CoIARdNh2E7RWqcgjWMEqwWSKEIcBtDtBjTTBm5Jlji3s545y4kohi5DEy3290qr5ZZ2ua9RT5T5Z8PhcDgcDuc+4YnSC0HRdJhOG5phIQ58AHczm60bqt71ed8LVaYLPReZphOz0S37UE6GaHAOrGeVNoNoAaphQbcd2O0esjSBOx3DX86Q5zlU3WAVpaz0/vi8y92oqCcWrXe7jttjS9NzOBwOh8Ph3AWeKL0QFM1Ae/8Y3mKKJI4Qei4LbB86GbqNOPQxvfqMLE0gqxqsVhem04IkK+sWPEmCqpsV09c8y5ClCTM7pQkTQAJzSVFgtTqQFRWKpmMxusbk8gzL8Q1kRYVuNeD09h7lPT8H8jxnMuvlYw+AybtzOBwOh8Ph/ErwROmFIMkK7E4f7YMThN4K0yRmlaV6EJvn+dbk6WdAX3dbIiZKEuIwwOTiDIvRNSSZJDckWWozOWhFN+B09yqJEgBEgY8o8KDqBnTLqfxdVlQoqoY8z8n7v/qC6eVnLMc30G0H7dUSWZoSYQnuncThcDgcDofz4uGJ0guAVllMp4Xu0WtIsgLTaWE+uoI7HbGEiSqR7ZoH+pnsUtxLk5io062WAIDVfAJteAWnt4dGZwDdbkBSVGRZWlHBq+9zlqUQc2mtkpemiOMI3mKK+c0lrj78A9OrLwg9l223LkPOuTuCIDClQQAbinQcDofD4XA4vxo8UXrmlOd3BEGA3erCsB00ugNMzj/h/F//L6ZXX4pH1xOF+w1y68nStqA6TWL4yxkkWYFuNWC1OtBMiwkCsARJEIo5IxmCQCpCWZoWUuEi4jDAYnyN0eePmN9cYD68RBwGAABJUSGrGqskce+kb0cQBAiStD7fyrLq/BhyOBwOh8P5BeGJ0jOnnFDQYFaUJLT3jqBoOqLARxwG8JdzZFlaSgyK+Z5b5ph+NnmWERGAUgJFFfH85QzLsQFVN2E6bcCqPlcQBEiKCklW2O/SNAHSBELhtUQNbRfja0SBB6PRgtFoor1/DLvdW+9H6XiVf+Z8HXbMUJxBpYofry5xOBwOh8P5leCJ0gtg18yN6bTRP32HyF/h5tOf8BZT5EDFDJTys8QdaDL0tdcsJ0uiJCFNYtKGZ9podAew291KBajefpdlGdI4RprEECUZoiRB0XQomg5BEGHYTfRP36G9f0xer9Wtbr+UJHG+HWo6y6tzHM798JDfp/p1cNt1kX+/ORzOc4QnSi8YURTh9PbgLU6wnAzhLaYA6E3w/hKE2xKkcgWrXMXK0hSht0LouYhDH1masr/Vb9BZliEOfLjTEZIoLAQaiFBElqZQNB3NwQFO/uP/A6vZgShJEEQRSRwxE1rO98MNYDkcDofD4TwHuLzXC0fRdDi9PTQHB9CtBkRJIu1uxX+PSb1li8p/A7srPVkhE05FIeIoYD+HnoskCqFoOux2D41OH5ppIUtTJFGINI6BUptdeb6Lw+FwOBwOh/Oy4BWlF44gCDCdNnrHbxC4S0wuzxC4i8fbH2ZUKiDPN5M1WVELD6X1LBJtvaMiAqIoQTVMNLp9pEkCVTcRhwGiwEewWrKZrOVkCM20kaUJREmGrKhceIDD4XA4HA6HA4AnShyQqlLn4BRJHCGJQkT+ilRTHqmiJAjizu2LsrzRHldOlKgHlKyokJsd9pgo8JFEIUJvhcgnPkp5nsPp7cF02rBaHYgyb7vjcDg/Dp/N43A4nOcBT5ReOPSGTk1cG90+lpMbhJ57z+Lgu8mydGeSFhemsllGZpRoFSkrzzZtCUzyPEOWpsjSBEkcYTUbI/I9RL6HvTcK7HYXkqxsqARyOBzOt1Jv2f3VryV1cZtf/f1wOBzOXeGJ0guH3vhEUYTptNDsH2AxukYShRXBhAfbnyLhUXQDmmFBkhXkeY7IXxH5clFk80dshqh20952E0/jGFHgFYIOCTGgDQPiLdXuojU43FDR43A4nNtgM5FxjCQOAQCKZkAuLAk4HA6H82vDE6UXTqVyIggwGi1YzQ6W4xtmyPrg+ySKMBstdA5PYTSaSKII3mKK0HOhWw0ARAUvz7INn56dIg9pgsj3EId+5TFpEsNbzBAF/nr7XLWNw+GU2FZJyfMcWZog9FbwlzPMby6RZSl6J2/R3jvi1RcOh8N5BvBEiVNpNdNMC6phQZQe59QQJQmyqsHp72P/7d9hNtsI3CUif1XId0vQLQeKprNKEmsLyTJEgc+qT5ppQxQlRIGH0ZePcKejzSrZliCGBzYcDqfOpk9bhCSOkMbR1kUabrLM4XA4vz48UXrhUNEESZYrN/vHShYEQYRm2kS+uzuAZlgQBAFGw4Ekq5ComIMobhjppkmMYLXA9OoL/OUcTm8PimZgPrzE8NOf8N052UbJzFbVDZhOiyReHA6Hs4V6JSlNYsRhgDSJi0p8E7KqQRAE6JbDHvfc+Np94Tm+Zw6H87LhiRJna6sZFUt4aERZht3uwenuFRUhEbrlbE2MNlZwRRGyqiGJQsyuz7Ec30CUZHiLKTOfpWIP9JmSokI1LEiKAg6Hw9kGW0Qq/X+9YCNBlCRopg1BEB6tGs/hcDicnw+/or9wRFGsJBx5ljGFuMdAUYkZrOm0SNVHFCHJcjE0na4TnS2tLrKiQrcaUHUTSRxhdn2OJI4AoKait04MRVEq1O649zKHw9lNXgg3UAsCRdO3qmwKtZZgDofD4fy68ETphVJWdqP/lySZtJQEPvL8cTyUFI0kSkajuRFo5HmOvEjgyglTGUlWIMrktE7iaIfM+Po5ZCZKhShJP/eNcDicZ0eaJAAAWZLYNWPrdYpbDHA4HM6zgCdKL5BKBan07yjw4c7G8JfzBzebFSVS2aFJkqLpyLJso3JEWwKlHX5JSRQSafMkgSQrlXY7qpRXTq1kVYOiGRBFnihxOJzt0KSHXnOo6XWWpuR6Uvobu3byJInD4XB+eXii9MIor3YCJACgXiDudITJ+SfMR1ds5VQQd7ek/YxkigoriJKM1t4ReidvmQR4PTiBKEKqnbLlZCkOAywnQyyGV/DdObI0qbzvOqIkQdF0qIbJfU84HM6t0BlIoHTdKV1HWaL0AhOku4g47KqucQEIDofzlOGJ0guifkOiP0f+Cv5yjuHZnxh9+YjAXZAqzC1J0s+gLKwgiCIRcejtQZIVpElSnUfKMmI4K6x/x5K94nFJHGE1G8OdjhD53le3L0oyVN0sjG35V4HD4exGEISN60RdYGbX714a26TSORwO51eER4cvgLrsN/0vyzLkWQbfXeD6479w9eGf8BYz9rz78gGpDkCXhBUkiSVoZZU74o/kIQp85Fm2TpREEZKsQDVMKKpWCFFsijzsqnxJsgJZ1Xg1icPhcO6ZXdYTdel1DofDeUrwROkFsGt1L0sTJFGIyPeYOpyqG4jDoHjOQ9y0yDbyLIM7GWH0+QMUzYBuNSCrKgDSUheslghXLtIkZvsmKxp020Fr7xCNzoAkPooKzbQgyQqyLN2ZJNE2GkXTISvqA7xPDofDeZlsS4B4lYnD4fwK8ETpBbCtMkTltqPABwC094+haDrmw0vMby4RBR6SKLyX/aGCCrSyJEoSsjTF9PoLVvMJS2AUTYcgiEiTGKG/QuR7JFEqZqpUw4LT24OsqjCddjFvZMF02rBaHXiLWeU90O0ARBZc0XRiEslbZTgcDudBKLdNczgczlOHJ0ovADZkXFaPSxPEYYDQcxEFHiRJhqyohafQw9zEqE8S2V6OyPfYbFHZyDFLU6RJXHmuohswbAem02ZGj4Iowmp10D99B820Mb36gvnwEoG72Hi+rGqV53I4HA7nYai3SHMpdQ6H81ThidILoVxVouIIaRwhiUKEKxdJFMJbzrCaTxBHwb3Jg9PqTTl522gNpHLeWcrkwIGShHinj87BCXrHb9HoDqBbDfb+NNOGoulo7R3BbLYhShLG53/BX84rJrrUr4kq7NXZ1U/P4XA4nJ9ASYE1B7/WcjicpwlPlF4QTBwhzyHJCjTTRhwGcPMRVvMJFqMr0t4Wx/dqOLvrhlhugSsnNQBJkkynjc7hKXrHb2C3e7A7fSiFEANNuERRhCiqgAI0+wdwJ0MsRlfwl3O2DVlR0ewfoHNwAqPRJNvLMiDPK3K/HA6H81QpL3zRisxjLvBs61zYti/s74JApHx4NYnD4TxheKL0Aqj3hOd5DlGSoJkWQs9FnufwFlO40xH7+73tS5ZBkKTN37EWPNKGRx9D9123HLT3j3H89/8bveM3G6+7FqhIIUoS0iRBliYQJRllZT1ZUUlF6vAUje4Aqm4w9b8sTVjLXw4u88vhcJ4mrBJP/19SEn2MZOlr29qZxHHFOw6H88ThidILoXyTEkURaZIgWC0xu7nA7Poc3ny6UcW5z30p+yNto7wvOQDNstHsH8Bu926/KZcqQpHvwXfnFUEHo9HC4PQ39I7frNvu8pxU0Eqvy1c4ORzOUyXPczJ3WVTBpSdQCa/PHG37W11YaFcVisPhcJ4KPFF6AbCkpPgvTWKsZmNMLs4w+vIRk4szxKH/oPu0+8aYM48k0k4iQjNttAaHaA4ObpXyLt90aRI4vfqCJA4hShIAAXa7h+7xa9idfqUVESBKeIIgVBImDofDeZLkOaugl3nsZKkszFBeDNumLsoTJA6H89ThidILoLyal0QhvMUMN3/9G1cf/wl/MUMUEKU5sdTudl9iDgAqN05Rktj2yrdMRdPR6A7gdPdgOC10Dk6IV9JXPI8EQUAU+Jhdn2N49h6L4RVESYJuORAEAZppQVbUSjBBbuxSpVeeV5Qenl1BE/8sOJwqgiBAkhWIkvykFnfKs1J5niNLE2RpSva3dt3lcDicXwGeKL0Q6A0qiSOs5hNMLs4wvfzM/k4rLoSHX+UTJQmCIEJSFEiygtbeEbpHr5ngwi51ujpZlmF2fY6rD//A5PIMeZ6h0T1As3+APMtgNTvI8xxJFEJSVFJVKm7u/CbO4XB+BQRB2Jj1fGw2rp9bFE05HA7nV4MnSi+A8g0sS1OkcVTxFaomSWByrfe6T0UbBp1FknUDVrODZv8ARqNJ5pE6PWimDUlW7vSaWZrCdxcYn/+F4ecPiAMfje4A+2//jt7JWyRRSCpXWYYkjqBoOoDdog239dxzOBzOUyDLso1KzmMu/DChiaLqReeothmfczgczlOHJ0ovjDSJEXorJHFU+8vD3cBoYpalCQBiHtvs7aN38hbdo9cwGk0YjeY3q86lSQxvMcXs+gKBu4DRaOLwt//CwW//CbvVRRyFcCdDrOYT5HkGVTchyeQrsM0AkcPhcJ4yTzXx2JWoPdX95XA4nF3wROmZU5dkTZMYUeBVlOAe8uZFKknrmyiZH2qgOThE7/gNnP4+JNp3X6Muc14nTWLEgY80iSFKMnrHb3Dw23/CsIlXUhpH8JdzLEbXSOOYzDzJMvFQApmdov5RoiRzefAH4C7n3m2P4Qkt5yVTn6l8CjOWt1WOHnq/eGLG4XB+FJ4oPQNuM/ir35gkWYFmWNBMG/5yjjSJ70W4gbbWlV9bqHh90N8XSnRHr+D095mBLOVbbnRpkiCJo8JQdh/do9do9vcBgCVDUeBjMboGQOa1NFhMLp0mj6LMvxYcDufXoH6NfwqLB09hHzgcDudnwJfMnwll+e/bkgvdasDp78Nu9yDXkpKfCW292C4Jm7HZJFGSYDotWK3uhinut68GkscbTgvNwSF02ylvFIJA9iWNI0R+vaqWIcvSdQLHB5E5HA6Hw+FwXjR86fy5UBqYpQlHlmUkIYhDUkkybciqBqPRZEIGD7qLWQaIIqsyKbqBzv4J2vsnMJ3WnUUbdr5+kdjoVgOKpkMzrfXvBYG8d9uBalgIVkvcfPo30iSG3e4hS1NkaQpJVvhqKIfD4XA4HA6HJ0rPhlqSlOc5VrMxlpMhIt+D6bSYeME6kUrvbXcqwgil5Ij+X1Y1tAaH2Hv7t4qR7I9UcQRBhKxq0EwbqmFClGRSuRIEMm8kirDaXbT3jzG9+ozZ9Tmbe1J0A6IoFcdnbUTLk6aHZdvnzz8DDofD4XA4jwFPlJ4B5QHeLMuwmo0xu7nA5PwTgtUSutWAapglQYfk3maTKLe9ttPbQ+fgFL2Tt2jtHTKxhSzLSItcMcv0rUmTqhuw2z2kjRiSJEPVjfX+FEmPbjXQP30HSVHgTkcIPRezmws0Ov1C3EGpmDfyZOl+KSf25Z85HA6Hw+FwHhueKD0TWJUoTbAc3+DiX/8LN5/+RJ5nxLj16FWhBkdMClXdhOm04E7HTKb7vpFkBYpuoHfyFsd/+59oDg6rynJ0Lug7kxNJUWG3umTWKMvIfFQpEM/znAk9KJoOs9HCfHSFyPeQJgkkRWHH5/tmpDgcDofD4XA4zwWeKD1DkjhC6K9YAuTNp3AnI6w6fTi9fRi2g8Hr35HnOa4+/AOL0dXW16Etc2LJAZ6KMHwPVEiivX8Mu93blN+utQ9+a7JEX08Qxe1JTsmMUbcdSLICSVERBR4M24EoVb8O5WoHr3Q8HvzYczgcDofDeQx4ovTMEEXiS9QaHAJ5jijwoVsNAEAcBsizDIqmo3NwAlGSEHou3OkIQKGYV2qZ+5HWvLI8uKxq0K0GqWwdnqK9f7xVTOJHfIvqrVv1JIf+nf4siiI004Ioy0iiELKqse3zShKHw+FwOBwOhydKzwxBFNHsH0DRdLT2jhB6LkRJhum0oJl2yb8IMOwmTKcFw3YQRwGSKALEzQSpXkVa+yEJqCdY2/yTFE1H7/gN9t/9B+x2jyVu90E5ySknR9X9Jr+LwwCCIEDVza0y5pyHg1eNOBwOh8PhPDV4ovQMqCjMCQI004JmWrA7fcSBjzzPIUpSIX0tVpTe2gcnSJO4kBGPkKUJosBHHPiIwwBJHCKJosocE5X5prHtbVUoRTfQOTjF4PXv6B2/gVQyc73PlrZtJrxU7CItWhPjMIBuNWAU1S1eSeJwOBwOh8PhUHii9AygAggozfcARDxBMAQmdy0IAlBqQxMEAc3+AYxGs/ARSpBnGUJvhWC1gDsdw1tMsRhewVvONhKir6UVoiSj2T9A7+QtnN5+ZdaJ7c8DUJ57igMfy8mwqLRJj+InxeFwOBwOh8N5+vBE6RlQl9Iuz+GIolr5fb36pOpGRUYbWBvV+u4c/nKOeWeAxegK3mKGOPRJUpWlTByBKsxJsgJF05knkdFoor1/jM7hKQzbqeznfSdJu+TFsyxF5K+QJjFUw/xhk1sOh8PhcDgczvNEyHm/0bNjmx/Rrla0OpXH5jmyLEWwWmIxuoY7GcKdjZFEIZIoRJamSJMYWZpAUlRohgWr1YHptAvvJguqYUIzLMiqxuaAdm37R9h1Gpfb+wRBgO8usBhdQ5QkWM0ONNNm7YC3fRX4DM3LhPs7cTi/Ljy84XA4u7jrfZ0nSs+QjAorFAnJtkpS+f93IQp8BKslQs9lSVKWpciSBHmeQZRkKJoOzbShmTZU3dgwbxV2/PtnUE6Itr3X8mxS5HvER8lpQ5LlDWW8bfBA+WXCEyUO59eFhzccDmcXPFHi/FS+5zR5rOCSJoaV2aQoZEmeJCtQdROqYTKBh6/tKw+UXyZ00aEuHc/PBw7n6cPDGw6Hs4u73sf5jBLnTvyKgSGdn0rTBJHvIQ58AICsaqQV8DuNbTkvg9uCLG5CzOFwOBzO84ebx3CeNVmWIo0jpHGEPM8hyQpEUYIgipXqAA96ObeR5zmyLNs678fhcDgcDud5witKnGdDOYAVi0RIFCUIgghZ1SAp6v+/vXvtbiK70gC866aLZWPshg7dne7JJJmsNWvm//+YWVk9k3RCoKEBG18kS1U1H2SJ8kEYhzRYl+f5YjCSLJmSTr3nnNo7irKKoppXukuv3xKWWOgeE8tjZLGls9O4GADYXoISWyvLssiKYllxr6nr1Se41z2oILUMSk0TbXtdJKV1rADALrD1jq3RrfLXdJrjFmUZbdPE+Pw0xudvl41zlwUfrBDwEW3bXIcl2+4AYFdYUWJr3DiJbdu4Gl/OezyV1fJEdzE1sKpUuZNgVpkH8Dwij/lXoRoAdoKgtGE2qUz3bT41lNz2Wtqmiaap58EoIi5OX8fF6ZsYjA7mvZ2Go3kxh6JcPla3lDh0dUvML5oSAwC7w+jP1mjbNpq6jrLqzfsj1XVcXZ5HU88iy7IY7D+I3mAYsaLKnbBEqrvS2NR1tG0TWZZHlufLvkoAwPYy2rNVFqtEEfN+SVV/GG3TXG/Dqz+4bUpIoqtbMn5+/FzE5OI8ppNxNPXsxm27pcMBgO1hRYmtkeV55FHGbHoV9XQa0bbR3xtFPZ1GWfWiKMv3ApGAxMd8bLVxWTr8+u+OKQDYDoISWyPP84g8j+n5ZYzP30aW5THYfxBt01z3T+pFxPsnst1VKOhahKSy14+irCKyLPK8uBme2jaapr4u+DBfpBeWAGDzCUrcu1+76ty7rXe96A32lie3t5UBV/mOru5xkOV55FkWkV83nk2Ooaap56XDszaKLFMVDwC2hKDEvUvDyY2T1H/ypLNpmsjzIqr+MHqDYVT9wa/yHNk9bdsuizYsVx1vCdJWkQBgu2StKfS1lwaHRUnrVVb1B9ok6Wu7y+tJ7zNvDDoPTHlRfL4ny9ZaHE+rqiOm32+aZh6grgtAbOL7jt2w6rP1Q5+3TdPcLGpyh1OFdTv2nd4AH3LXzysrSmusGwBW/od2B4E1G6Duom3bZUW6tm2i7PWXpb0/aYC7Plnt9rxZ9Ttct8Gc9fOxLZpdSoWziW5MLnUKkmR5vnKVXwsFYBcJSmvoxgrJ9dc24v1tQAtZtvy321Zk1k1T1zG5OIuTF/+I2dUkHv7muzg4fnzjNretInXl14P7x2ZJ1/n3AfA5vbcSGu/GlbqeRXv9vSzPoygr124CO09QWjM3BqQPrCgtAkF36PqUbRL3qWmaGJ+fxtmrl3Fx8jryslwO0hEfDzTdsJiuFK0KiwISwDvdz9C2aWI6GUc9m0ZRVlH2+hszlgB8ToLShlmEgLxTwW3RNygvy6iuB7h1DwZt08TF6Zs4/eV5VP1hPHj0mxjsP7h5m2SAvq0H0nvbQhb3XfPfA8B96I4TdT2LycVZtE0T+V6xDFHrPo4AfG6C0prpDlBtRHSHqXQFpWmaqKdX8fbVizh7/TIiIvYeHMX+0aMYjPaX91m3wa6p67gaX8R0Mo48L2LvwcM4OH4cRdW78RpXPe96Noumns1LNhfle1sOF1vwmqa+fpw8MgUdACLi5mdl55vz/mDZfMtdXpTLscPKErDLBKU1dCMgdLdHJANXPZvG5dlpvHr613j5049xNbmMw0dP4ts//feNoPTeY96zejaN6fgyyqoX+8ePY/TwOMpef1ncIT4Qktq2nQes8WVUg2H0BnvRdpp+pqtH89feRNt+uH8SwC5ZFm5YTMi1bWR5Hv29+ZhRDYaR53k0TbOWE20AX5KgtMbSrWWLr4vZwGY2i/HZaZy+fBavnv0Us6tJXF2cRzUYRn9vP0aHxzcqwKUX796XLM+jGgznDWDzPMqq/262ckVIapomZleTmE4u42p8uXILXtu5X3bdYDYNlgC7Lr2+NSKuV+eLG4WBVt0PYNcIShtgcbLfNM27ggeLLWZ1Pd+ONptXLLo8O4lXT/8ag9FBFGUZo8PjiHg3i7gO1+yUVS+Ksoq6P4h6Oo22bWN2NYmy6t3oe7ToT9M08+p44/O3kWV5DPYP5hWZOtdpdQf3LMtst+Oz+tRtSE42uW+rJuCyLFuODekuhE2pogrwOQhKG6Y7oBVVFYP9g+jvjSIvy6hn02jqOk5e/CP6e6MYHR7H8ODhu8IP1+HqLs1qv8TrmJefzZfXE3UH6qauo6ln7wbtPI+y14+iKJeByqAN8K9bFZ4AEJQ2SpZlkXVWTsqqF6PD4zj+9oe4OH0Tb57/PerZNGZXk3jz/GmMHn4Vw4PDGD54eKMaXtMpw9197C+pG4CKpD/UohhDPZtFRERRllH1BlH1BtdFHIr5NhEA/mXCEcBqgtIGWXVtTtnrx9GT7yMvyjh8/CROXjyL189+isuzk3j+v/8TRVnFb/79T/Hw629XPl7anf1zB6YP9T5a6G4vLKpqeb1RUVY3Hyh57laXAAD4NQlKGy7LshgdHsXw4DAOHz+J18/+FnlRxMuffozTl88ioo2mnkVT1zE8OJxXNrqucrS4/7rNJmZZFkVRfvDC4u72wXWs6sfuWsf3EwDwaQSlDbdYBcrzPIb7h5F/V8bV5UWMz9/Gm+d/j9OXz2M6Gcfl2Wl8/W9/jK+++130h6P3tuB9bDXp1wok6V74dFVo2T/qlmp1y5NRTWVZI91V0vT9JDyxTvRGArgbQWnDdQNMXhQx3H8Qj3/4QzR1Hb3+MN78/DQu357Eyc9P4/DxN9HU9fK+aRhZVtGrZ8sKefOCC1+2yEP681aFtGWJWwM992wRjBbX1HWrMcK66U5QpeH+No5pYBcJShuuuzVtUU5778FRfPPH/4zRw+MY/uXP8cvf/y+G+4cxOjyO/t7oxra7rizLYjK+jPH5adTTaVT9QQz2H0TZKQTxOZ//h6z6ufojcZ/SGfm2bWM6uYymrqPqD6Koejdu51hlXXRX4xer9xGrr1ldfN/xC+wqQWkLLfon9ff25ydt16tCZa8XFyev42p8ERERZa8fg9FBlL1+NHU9b177y/OYXU2iN9iLonpXQOFzDJQGXzbZ+zPw11UphSPWWLfh7KrJsoj3eyctVqGEJmDXCEpbJC0fXpRVHBx/HdPJOCYXZ3E1voyTF8/i7NWLqGfTGOw/iKMnv43R4XFcjS/j7PWLePvqRRRlFf29/XlYKqs7rfrALupeI1j1B9G2TeRF6T3D2lq55bpp3j9mOw3K27adVyO1rRTYMYLSFklnA7Msi2owjMHoIM5ev4xXT/8aJy+exdXlebRtG/29UZy/+SX2jx5F1R9GUVWxf/QoBqODGD38KqrB8EbwAt63DEtFEREaIbPePnTNZ1eWZdGuGE8c28CuEZS20GIPelYUUc+mEVkW08k43vz8NN7+8vPydtPJZUwuzmM6GcfRk9/G4dffxMHx1zEY7S8r4hkY4W68V9gU3YIOi5Wk9DO/O/GWZVmEoATsIEFpCy32oLdtG0VRxt7Bw/jqu99FRETVH8TF6ZsYn50ueys9+v73cfj4mzg4fhz9vVFEzAfPL9GAFjbNqqphsEnSwg1N08TsahLTyWXUs1lU/UH09/ZvbMfb1GM9Ldef/hngNoLSFlr2I2rbyIsi+nujePzDH2L/6FHsHz2Klz/9GD//5c/RNHUcf/tDfPsf/xV7D46W4WhZQtwMIrxnWTXM+4MNtDIktO28397bk7i6vIjhwWH0BnsRGz5hppcZ8K8SlLZYd5DI8zyGB4dx9OS3ERExuTiP85NX1xXxbs4atk4A4YO6TZFhe8x7gTXNfKJsfs1dbEURhzQkbfJrAb4sQWkHLCoa5Xke+0ePIi/KaOpZnL58HqPD4/mJ3/VgGHG33kawq1zUzta5bi5eVr2YXU1ifP423r56Ef3hKIqqiiw2d0xYrAC/C4BOe4C7y1rr0Tunqeu4PDuJq/Fl9AbDGIweRF6o1gWwqxbjwutnf4u3v7yILMvi6Jvv4/H3v4+8KDZ2C17btlHPpvPJwCyLoijfrZY5/YGdddfPM1MrOygvihgdHsfo8L6fCQD3qVvevjfYi6o/jIiIq/FF1LPpVrSIyLI8lotiGxj2gPsjKAHADlpUcGzbNvI8jyzPY3jdiLypZ8ut2RGbe11Pt8fZ4u8AdyUo7QCljAGIuH27WV6UMTw4jGowjLZpouoPvuAz+3yMfcCnco3SDlg0EuwWaVjMIrowHWB3NE1zo7x9+vmf9gnr9lzaxrHCKRDsJtcosbTqYNjGAQ+A2y3K29/278YHgDkrSgAAG8ypHPxz7johtPnlbAAAAH5lghIAAEBCUAIAAEgISgAAAAlBCQAAICEoAQAAJAQlAACAhKAEAACQEJQAAAASghIAAEBCUAIAAEgISgAAAAlBCQAAICEoAQAAJAQlAACAhKAEAACQEJQAAAASghIAAEBCUAIAAEgISgAAAAlBCQAAICEoAQAAJAQlAACAhKAEAACQEJQAAAASghIAAEBCUAIAAEgISgAAAInyvp8AAACfLsuyL/4z27b94j8TvjQrSgAAAAlBCQAAICEoAQAAJAQlAACAhKAEAACQEJQAAAASghIAAEBCUAIAAEgISgAAAAlBCQAAICEoAQAAJAQlAACAhKAEAACQEJQAAAASghIAAEBCUAIAAEgISgAAAAlBCQAAICEoAQAAJAQlAACAhKAEAACQEJQAAAASghIAAEBCUAIAAEgISgAAAAlBCQAAICEoAQAAJAQlAACAhKAEAACQEJQAAAASghIAAEBCUAIAAEgISgAAAAlBCQAAICEoAQAAJAQlAACAhKAEAACQEJQAAAASghIAAECivO8nAADAZsmy7L6fAnx2VpQAAAASghIAAEBCUAIAAEgISgAAAAlBCQAAICEoAQAAJAQlAACAhKAEAACQEJQAAAASghIAAEBCUAIAAEgISgAAAAlBCQAAICEoAQAAJAQlAACAhKAEAACQEJQAAAASghIAAEBCUAIAAEgISgAAAAlBCQAAICEoAQAAJAQlAACAhKAEAACQEJQAAAASghIAAEBCUAIAAEgISgAAAAlBCQAAIPH/PRi6/o+hcfgAAAAASUVORK5CYII=&quot;,&quot;width&quot;:&quot;842&quot;,&quot;height&quot;:&quot;595&quot;,&quot;x&quot;:0,&quot;y&quot;:0}" math="0" shadow="0">
      <root>
        <mxCell id="0" />
        <mxCell id="1" parent="0" />
        <mxCell id="wzV6GubrOvk5PIbykHtW-10" style="edgeStyle=orthogonalEdgeStyle;rounded=0;orthogonalLoop=1;jettySize=auto;html=1;exitX=0.5;exitY=0;exitDx=0;exitDy=0;entryX=0;entryY=0.5;entryDx=0;entryDy=0;curved=1;strokeColor=#A4AABF;strokeWidth=8;endArrow=block;endFill=1;" edge="1" parent="1" source="ifYSCjk3bkaeWlkqm7E1-1" target="ifYSCjk3bkaeWlkqm7E1-2">
          <mxGeometry relative="1" as="geometry" />
        </mxCell>
        <mxCell id="ifYSCjk3bkaeWlkqm7E1-1" value="&lt;h2 style=&quot;font-size: 24px;&quot;&gt;&lt;font style=&quot;font-size: 24px;&quot;&gt;&lt;span style=&quot;background-color: initial;&quot;&gt;&lt;br&gt;&lt;/span&gt;&lt;/font&gt;&lt;/h2&gt;&lt;h2 style=&quot;&quot;&gt;&lt;font size=&quot;1&quot; style=&quot;&quot;&gt;&lt;span style=&quot;background-color: initial; font-size: 18px;&quot;&gt;Corpus&lt;/span&gt;&lt;/font&gt;&lt;/h2&gt;" style="rounded=0;whiteSpace=wrap;html=1;align=left;fillColor=#ffe6cc;strokeColor=none;spacingLeft=8;verticalAlign=bottom;" vertex="1" parent="1">
          <mxGeometry x="30" y="210" width="120" height="60" as="geometry" />
        </mxCell>
        <mxCell id="ifYSCjk3bkaeWlkqm7E1-13" style="edgeStyle=orthogonalEdgeStyle;rounded=0;orthogonalLoop=1;jettySize=auto;html=1;exitX=1;exitY=0.5;exitDx=0;exitDy=0;entryX=0.5;entryY=0;entryDx=0;entryDy=0;curved=1;strokeWidth=8;strokeColor=#A4AABF;endArrow=block;endFill=1;" edge="1" parent="1" source="ifYSCjk3bkaeWlkqm7E1-2" target="ifYSCjk3bkaeWlkqm7E1-3">
          <mxGeometry relative="1" as="geometry" />
        </mxCell>
        <mxCell id="ifYSCjk3bkaeWlkqm7E1-2" value="&lt;h2 style=&quot;font-size: 24px;&quot;&gt;&lt;font style=&quot;font-size: 24px;&quot;&gt;&lt;span style=&quot;background-color: initial;&quot;&gt;&lt;br&gt;&lt;/span&gt;&lt;/font&gt;&lt;/h2&gt;&lt;h2 style=&quot;&quot;&gt;&lt;font size=&quot;1&quot; style=&quot;&quot;&gt;&lt;span style=&quot;background-color: initial; font-size: 18px;&quot;&gt;Enrichment&lt;/span&gt;&lt;/font&gt;&lt;/h2&gt;" style="rounded=0;whiteSpace=wrap;html=1;align=left;fillColor=#ffe6cc;strokeColor=none;spacingLeft=8;verticalAlign=bottom;" vertex="1" parent="1">
          <mxGeometry x="280" y="70" width="120" height="60" as="geometry" />
        </mxCell>
        <mxCell id="ifYSCjk3bkaeWlkqm7E1-14" style="edgeStyle=orthogonalEdgeStyle;rounded=0;orthogonalLoop=1;jettySize=auto;html=1;exitX=0.5;exitY=1;exitDx=0;exitDy=0;curved=1;strokeWidth=8;strokeColor=#A4AABF;endArrow=block;endFill=1;" edge="1" parent="1" source="ifYSCjk3bkaeWlkqm7E1-3" target="ifYSCjk3bkaeWlkqm7E1-4">
          <mxGeometry relative="1" as="geometry" />
        </mxCell>
        <mxCell id="ifYSCjk3bkaeWlkqm7E1-3" value="&lt;h2 style=&quot;&quot;&gt;&lt;span style=&quot;background-color: initial;&quot;&gt;&lt;font style=&quot;font-size: 15px;&quot;&gt;AI Self-Hosted&lt;/font&gt;&lt;/span&gt;&lt;br&gt;&lt;/h2&gt;" style="rounded=0;whiteSpace=wrap;html=1;align=left;fillColor=#ffe6cc;strokeColor=none;spacingLeft=8;verticalAlign=middle;" vertex="1" parent="1">
          <mxGeometry x="380" y="170" width="120" height="60" as="geometry" />
        </mxCell>
        <mxCell id="ifYSCjk3bkaeWlkqm7E1-15" style="edgeStyle=orthogonalEdgeStyle;rounded=0;orthogonalLoop=1;jettySize=auto;html=1;exitX=1;exitY=0;exitDx=0;exitDy=0;entryX=0.5;entryY=1;entryDx=0;entryDy=0;curved=1;strokeWidth=8;strokeColor=#A4AABF;endArrow=block;endFill=1;" edge="1" parent="1" source="ifYSCjk3bkaeWlkqm7E1-4" target="ifYSCjk3bkaeWlkqm7E1-5">
          <mxGeometry relative="1" as="geometry" />
        </mxCell>
        <mxCell id="ifYSCjk3bkaeWlkqm7E1-4" value="&lt;h2 style=&quot;font-size: 24px;&quot;&gt;&lt;font style=&quot;font-size: 24px;&quot;&gt;&lt;span style=&quot;background-color: initial;&quot;&gt;&lt;br&gt;&lt;/span&gt;&lt;/font&gt;&lt;/h2&gt;&lt;h2 style=&quot;&quot;&gt;&lt;font size=&quot;1&quot; style=&quot;&quot;&gt;&lt;span style=&quot;background-color: initial; font-size: 18px;&quot;&gt;Review&lt;/span&gt;&lt;/font&gt;&lt;/h2&gt;" style="rounded=0;whiteSpace=wrap;html=1;align=left;fillColor=#ffe6cc;strokeColor=none;spacingLeft=8;verticalAlign=bottom;glass=0;" vertex="1" parent="1">
          <mxGeometry x="520" y="343" width="120" height="60" as="geometry" />
        </mxCell>
        <mxCell id="ifYSCjk3bkaeWlkqm7E1-5" value="&lt;h2 style=&quot;&quot;&gt;&lt;span style=&quot;background-color: initial;&quot;&gt;&lt;font style=&quot;font-size: 15px;&quot;&gt;Reproducible Publications&lt;/font&gt;&lt;/span&gt;&lt;br&gt;&lt;/h2&gt;" style="rounded=0;whiteSpace=wrap;html=1;align=left;fillColor=#ffe6cc;strokeColor=none;spacingLeft=8;verticalAlign=middle;" vertex="1" parent="1">
          <mxGeometry x="670" y="150" width="120" height="60" as="geometry" />
        </mxCell>
        <mxCell id="ifYSCjk3bkaeWlkqm7E1-11" value="" style="sketch=0;outlineConnect=0;fontColor=#232F3E;gradientColor=none;fillColor=#8C4FFF;strokeColor=none;dashed=0;verticalLabelPosition=bottom;verticalAlign=top;align=center;html=1;fontSize=12;fontStyle=0;aspect=fixed;pointerEvents=1;shape=mxgraph.aws4.virtual_node;" vertex="1" parent="1">
          <mxGeometry x="730" y="75" width="60" height="60" as="geometry" />
        </mxCell>
        <mxCell id="wzV6GubrOvk5PIbykHtW-1" value="" style="sketch=0;outlineConnect=0;fontColor=#232F3E;gradientColor=none;fillColor=#8C4FFF;strokeColor=none;dashed=0;verticalLabelPosition=bottom;verticalAlign=top;align=center;html=1;fontSize=12;fontStyle=0;aspect=fixed;pointerEvents=1;shape=mxgraph.aws4.documents;" vertex="1" parent="1">
          <mxGeometry x="92.57" y="283" width="54.97" height="67" as="geometry" />
        </mxCell>
        <mxCell id="wzV6GubrOvk5PIbykHtW-8" value="&lt;b&gt;&lt;font style=&quot;font-size: 20px;&quot;&gt;IN:&lt;/font&gt;&lt;/b&gt;" style="text;html=1;strokeColor=none;fillColor=none;align=center;verticalAlign=middle;whiteSpace=wrap;rounded=0;" vertex="1" parent="1">
          <mxGeometry x="29" y="290" width="60" height="30" as="geometry" />
        </mxCell>
        <mxCell id="wzV6GubrOvk5PIbykHtW-9" value="&lt;b&gt;&lt;font style=&quot;font-size: 20px;&quot;&gt;OUT:&lt;/font&gt;&lt;/b&gt;" style="text;html=1;strokeColor=none;fillColor=none;align=left;verticalAlign=middle;whiteSpace=wrap;rounded=0;" vertex="1" parent="1">
          <mxGeometry x="670" y="90" width="60" height="30" as="geometry" />
        </mxCell>
        <mxCell id="wzV6GubrOvk5PIbykHtW-11" value="&lt;b&gt;&lt;font style=&quot;font-size: 24px;&quot;&gt;AI Open Climate Reader&lt;/font&gt;&lt;/b&gt;" style="text;html=1;strokeColor=none;fillColor=none;align=center;verticalAlign=middle;whiteSpace=wrap;rounded=0;" vertex="1" parent="1">
          <mxGeometry x="510" y="460" width="280" height="30" as="geometry" />
        </mxCell>
        <mxCell id="wzV6GubrOvk5PIbykHtW-13" value="" style="group" connectable="0" vertex="1" parent="1">
          <mxGeometry x="280" y="399.99621199387815" width="181" height="89.47378800612188" as="geometry" />
        </mxCell>
        <mxCell id="ifYSCjk3bkaeWlkqm7E1-6" value="&lt;span style=&quot;font-size: 15px;&quot;&gt;&lt;b&gt;&amp;nbsp;&lt;/b&gt;&lt;/span&gt;" style="shape=tape;whiteSpace=wrap;html=1;fillColor=#f8cecc;strokeColor=none;verticalAlign=middle;rotation=7;" vertex="1" parent="wzV6GubrOvk5PIbykHtW-13">
          <mxGeometry x="11.079999999999984" y="9.48378800612187" width="159.92" height="70" as="geometry" />
        </mxCell>
        <mxCell id="wzV6GubrOvk5PIbykHtW-5" value="&lt;b&gt;&lt;font style=&quot;font-size: 13px;&quot;&gt;Pipeline Systems&lt;/font&gt;&lt;/b&gt;" style="text;html=1;strokeColor=none;fillColor=none;align=center;verticalAlign=middle;whiteSpace=wrap;rounded=0;" vertex="1" parent="wzV6GubrOvk5PIbykHtW-13">
          <mxGeometry x="11" y="29.47378800612188" width="160" height="30" as="geometry" />
        </mxCell>
        <mxCell id="wzV6GubrOvk5PIbykHtW-6" value="" style="rounded=0;whiteSpace=wrap;html=1;strokeColor=none;" vertex="1" parent="wzV6GubrOvk5PIbykHtW-13">
          <mxGeometry x="161" y="19.47378800612188" width="20" height="70" as="geometry" />
        </mxCell>
        <mxCell id="wzV6GubrOvk5PIbykHtW-7" value="" style="rounded=0;whiteSpace=wrap;html=1;strokeColor=none;" vertex="1" parent="wzV6GubrOvk5PIbykHtW-13">
          <mxGeometry y="13.48378800612187" width="20" height="60" as="geometry" />
        </mxCell>
      </root>
    </mxGraphModel>
  </diagram>
</mxfile>
